<?xml version="1.0" encoding="utf-8"?>
<!-- Generator: Adobe Illustrator 15.0.2, SVG Export Plug-In . SVG Version: 6.00 Build 0)  -->
<!DOCTYPE svg PUBLIC "-//W3C//DTD SVG 1.1//EN" "http://www.w3.org/Graphics/SVG/1.1/DTD/svg11.dtd">
<svg version="1.1" id="Layer_1" xmlns="http://www.w3.org/2000/svg" xmlns:xlink="http://www.w3.org/1999/xlink" x="0px" y="0px"
	 width="44px" height="66px" viewBox="-21.5 407.5 44 66" enable-background="new -21.5 407.5 44 66" xml:space="preserve">
<g id="Layer_2" display="none">
</g>
<g id="Layer_1_1_">
	<g>
		<path fill="#4C402E" d="M9.999,430.796c-0.022,0.852-1.62,0.811-1.492,0.214C8.781,430.716,9.433,430.798,9.999,430.796z"/>
		<path fill="#4C402E" d="M-7.897,461.9c0,0.354,0,0.709,0,1.064c-0.689,0.264-0.163-0.689-0.852-0.427
			C-8.564,462.228-8.43,461.863-7.897,461.9z"/>
		<path fill="#4C402E" d="M6.803,413.115c0.857,0.56,2.067,0.771,2.13,2.13c-0.445,0.09,0.166,1.017,0.213,0.852
			c0.488,0.861,1.806,0.893,2.557,1.49c-0.403-0.047,0.223,1.269,1.065,1.492c0.17,0.74-0.317,0.818-0.213,1.491
			c-0.12,0.482-2.159,3.247-4.9,4.048c-8.944-0.8-2.945-8.275-3.196-8.309c0.249-0.391,0.558-0.721,0.853-1.064
			C5.454,415.245,6.848,413.354,6.803,413.115z M9.146,419.505c0.538-1.228-0.614-3.608-1.491-3.408
			c0.181,0.54,1.303,1.237,0.852,1.704c-0.419-0.361-0.488-1.074-1.491-0.853C8.099,417.567,9.053,418.477,9.146,419.505z"/>
		<path fill="#4C402E" d="M-10.24,418.653c0,0.142,2.697-1.271,4.26-2.344c0.31,0.095-0.021,0.188,0,0.425
			c-1.049,0.87-1.912,1.924-2.982,2.771c-1.083,0.904-2.078,1.899-2.983,2.983c-0.063,0.434-0.576,0.418-0.64,0.852
			c0.015,0.291,0.201,0.479,0.427,0.213c0.072,0,0.142,0,0.213,0c0.978,0,1.665,0,2.77,0c0.213,0,0.426,0,0.639,0
			c0.348,0.096,1.023-0.148,0.853-0.427c0.092-0.262,0.272-0.437,0.639-0.425c0.601-0.034,0.534,0.601,0.852,0.852
			c-1.917,0.52-1.881,3.357-0.212,4.049c-1.705,1.492-5.566,1.028-7.457,0.212c-0.103-0.18-0.318-0.103-0.426,0
			c-0.181,0.459-0.524,0.755-1.278,0.64c-0.443,0.426-0.443,0.61-0.853,0.853c-0.092,0.262-0.272,0.438-0.639,0.426
			c-0.313-0.504-0.45-0.396-0.213-1.066c-0.664,0.163-3.618,5.694-4.048,3.197c-0.114-0.668,0.421-0.391,0.64-1.066
			c0.799-0.609,0.302-0.92-0.426-1.49c0.17-1.223-0.563-2.088,0.213-2.771c0.418-0.255,0.15-0.718,0.213-1.278
			c0-0.142,0-0.284,0-0.425c0.799-0.194,1.506-0.482,2.343-0.641c0.544-0.008,1.479-0.012,1.917-0.425c0.071,0,0.142,0,0.214,0
			c0.071,0,0.142,0,0.212,0c0.241,0.211,0.321,0,0.639-0.427c0.939-0.338,1.419-1.138,1.917-1.917c0.799-0.62,1.51-1.33,2.13-2.131
			C-10.803,419.226-10.909,418.552-10.24,418.653z"/>
		<path fill="#4C402E" d="M-9.814,418.227c0.691-0.658,1.394-1.305,2.344-1.703c0.166,0.046,0.248,0.178,0.212,0.424
			c-1.27,0.294-1.913,1.212-2.769,1.918C-10.037,418.573-9.928,418.398-9.814,418.227z"/>
		<path fill="#4C402E" d="M12.98,418.865c2.084,0.925,2.762,3.125,2.344,5.539c0.294,0.63,0.984,0.863,1.279,1.492
			c0.284,0.535,2.252,6.183-0.213,5.54c-1.507,0.103-1.833,0.509-2.77-0.427c-1.291-2.191-2.406-7.906-2.13-8.309
			C12.578,422.141,12.73,420.101,12.98,418.865z"/>
		<path fill="#4C402E" d="M11.063,423.553c0.783,0.535,1.722,0.613,2.131,1.279c-1.104,1.169-0.426,5.325,0,5.964
			c0,0.143,0,0.285,0,0.425c0.009,0.366-0.159,0.554-0.426,0.642c-0.495-0.413-1.443,3.573-1.278,3.621c0,0.142,0,0.283,0,0.426
			C10.53,436.044,6.221,453.166,2.968,457c-2.5,1.827-4.731-0.537-4.261-3.622c-0.725-2.966,0.163-13.421,0.639-20.878
			c0.022-0.545,0.121-1.015,0.426-1.279c0.257-0.244,0.194-0.64,0-0.85c0.06-0.346-0.202-0.367-0.213-0.64
			c0.129-0.512-0.148-1.066-0.426-1.704c0.347-0.699-0.048-0.814,0-1.705c-0.213,0-0.426,0-0.639,0
			c-0.153-0.578,1.267-2.346,2.13-2.77C-0.042,425.237,10.691,423.749,11.063,423.553z M1.689,442.515c0.142,0,0.285,0,0.426,0
			c0.129-0.014,0.252-0.033,0.213-0.213c-0.665-0.93,0.495,0.404,0.639-0.214c-0.4-0.382-0.802-0.76-1.279-1.065
			C1.912,441.627,1.912,441.909,1.689,442.515z"/>
		<path fill="#4C402E" d="M-0.228,419.719c0.572-0.146,0.412,0.439,0.639,0.64c-1.246,0.756,1.027,0.351,0.212,1.49
			c0.217,0.499,0.217,2.872-1.701,2.95c-1.9-3.589-0.833-4.825-0.429-4.867C-0.981,419.959-0.48,419.962-0.228,419.719z"/>
		<path fill="#4C402E" d="M-4.489,421.423c0.518-0.406,1.288-0.559,1.918-0.853c0.588,0.051,0.076,1.202,0.852,1.066
			C-1.567,425.045-5.447,425.213-4.489,421.423z"/>
		<path fill="#4C402E" d="M-5.554,421.848c0.172-0.039,0.212-0.212,0.426-0.211c1.121,0.61,2.168,4.046,1.491,5.324
			c-0.229,0.144-1.476,0.144-1.705,0C-8.067,428.758-9.706,425.021-5.554,421.848z"/>
		<path fill="#4C402E" d="M19.584,430.371c-3.241,0.311-4.425-2.054-2.556-4.261c0.68-0.184,0.659,0.334,1.065,0.425
			c0,0.143,0,0.284,0,0.426c-0.958,0.307,0.338,1.546,0.426,1.278c0.173,0.042,0.212,0.214,0.425,0.214
			C18.956,429.296,19.416,429.688,19.584,430.371z"/>
		<path fill="#4C402E" d="M14.686,432.714c0.637-1.515,4.572-2.779,5.326-1.704c3.173,2.438,2.654,8.448,1.065,11.93
			c-0.417-0.397-0.585,0.693-0.853,1.064c-0.732,2.25-1.94,4.024-4.899,4.048c-0.674,0.746-1.204,1.638-1.491,2.77
			c-0.582-0.154-0.332,0.273,0.213,0.64c0,0.213,0,0.425,0,0.64c-0.355,0,0.202,0.32,0.212,0.426c0.225,0.418,0,1.069,0.214,1.917
			c-0.504-1.058-0.829,5.572-0.64,4.688c0.554,0.297-0.156,1.102-0.213,1.491c0.04,0.182-0.083,0.201-0.213,0.213
			c0-0.283-0.355,0.213,0,0.213c0.078,0.845-0.195,2.042,0.213,2.557c0,0.071,0,0.143,0,0.212c0.747,0.391,0.892,1.38,1.705,1.705
			c0.956,2.652-2.788,1.847-4.261,1.278c-0.156-0.198-0.387-0.323-0.64-0.426c-0.367-0.84-1.55-0.863-1.917-1.705
			c0.238-0.583,0.949-1.451,0.427-2.129c-0.211-1.459,1.199-3.191,0-4.262c0.284-1.261-0.708-2.524-0.427-3.835
			c-0.386-2.558-0.103-4.787,0-5.113c0.702-2.052-0.428-3.99,0.64-6.391c0.206-0.396,0.004-4.476,2.863-4.021
			c2.646,2.53,1.972,6.048,3.103,6.151c-0.159,0.656,0.584,0.409,0.426,1.066c0.142,0,0.284,0,0.426,0
			c0.262-0.239,0.309-0.136,0.426-0.425c0.698-0.795,0.89-2.094,1.492-2.984c0.051-0.831-0.792-0.771-1.278-1.064
			c-0.035-0.247,0.047-0.379,0.212-0.426c0.181,0.625,0.542-1.182,0.426-1.492c0.172,0.041,0.075-0.633-0.426-0.639
			c-0.072,0-0.143,0-0.212,0c-0.647-1.465,1.17-3.431-0.213-4.474c0.204-0.144,0.222-0.358,0-0.427c-0.285,0-0.569,0-0.853,0
			C15.308,433.653,14.767,433.413,14.686,432.714z M11.916,466.588c0.84,0.499,0.652-0.401,1.492-0.428
			c0.009,0.294-0.101,0.468-0.213,0.64c0.848-0.057,1.5,0.537,1.917-0.212c-0.332-0.055-0.148-0.469,0-0.641
			c-0.521-0.446-0.454-0.303-1.278-0.212c-0.206,0.773,0.956,0.179,0.852,0.853c-0.625-0.016-1.202-0.078-1.066-0.853"/>
		<path fill="#4C402E" d="M-3.211,448.479c-0.515-0.663-1.135,4.758-0.852,5.327c-1.072,0.14-1.87,1.675-2.982,1.064
			c0.36-0.563,0.261-4.948-0.213-5.114c-0.331-1.339,0.443-2.895,1.065-3.408C-4.393,444.31-1.932,447.291-3.211,448.479z"/>
		<path fill="#4C402E" d="M-5.554,441.448c1.001-1.207,2.336-2.133,3.835-1.705c0.322,3.41-0.277,5.753-1.066,6.604
			c-0.512-0.208-3.773-0.128-4.474,1.277c-0.364,0.011-0.552-0.156-0.639-0.426c-0.28-0.286-0.213-0.794-0.213-1.063
			c0.732-1.613,2.123-2.564,2.344-4.688C-5.695,441.448-5.625,441.448-5.554,441.448z"/>
		<path fill="#4C402E" d="M-4.275,438.679c0.637-1.636,2.503-2.042,3.408-3.408c0.031-0.612-0.592-1.661,0-2.131
			C-0.281,434.648,0.938,440.384-4.275,438.679z"/>
		<path fill="#4C402E" d="M14.898,443.367c0.344,0.059,0.367-0.203,0.639-0.214c0.448,0.818,1.306-0.45,1.917,0
			c-0.425,0.569-1.236,0.75-1.064,1.916c-0.232-0.053-0.145-0.422-0.426-0.424c0.105-0.67-0.735-0.564-0.213-1.065
			c-0.485-0.062-0.801,0.051-0.852,0.424c0.172,0.185,0.583,0.128,0.64,0.428c-0.545-0.424-0.979,0.222-1.279-0.215
			C14.496,443.487,14.79,443.99,14.898,443.367z"/>
		<path fill="#4C402E" d="M7.016,458.066c-5.643-0.526-0.99-3.055-0.849-2.711c0.586,0.579,2.021,2.674,2.34,2.923
			C8.065,458.152,7.107,458.542,7.016,458.066z"/>
		<path fill="#4C402E" d="M-9.389,452.101c-0.182-1.727,0.006-2.136,0-2.345c1.205,0.074,2.054,0.502,2.983,0.853
			c-0.4,0.406,1.793,4.492,2.13,4.476c-0.052,2.216,1.189,1.815,0.213,3.622c0.141,0.285,0.456,0.396,0.852,0.425
			c0,0.356,0,0.711,0,1.066c-0.04,0.24-0.49,1.164-0.639,1.703c-0.119,0.307-0.333,0.521-0.639,0.64
			c-0.28,0.273-0.785,0.273-1.065,0c0.704-0.553-2.316-0.755-3.408-0.427c0.491-0.47-0.37-0.532-0.639-0.851
			c0.486-0.665,0.395-1.731-0.639-1.278c0-0.073,0-0.143,0-0.214s0-0.142,0-0.214c0.121-0.212,0.227-0.212,0.212-0.426
			c0-0.069,0-0.142,0-0.212C-9.411,456.631-9.875,454.378-9.389,452.101z"/>
		<path fill="#4C402E" d="M-11.519,464.243c-1.45-0.511-1.917-1.231-2.131-1.491c0.708-0.724,1.653-0.854,2.131-1.065
			c0.284,0,1.634,0,1.918,0c0.698,0.364,0.954,1.034,0.852,1.705c-0.065,0.113-0.315,0.367-0.852,0.64
			c-0.375,0.122-1.252-0.257-1.279,0.212C-11.093,464.243-11.306,464.243-11.519,464.243z"/>
		<path fill="#4C402E" d="M-8.75,448.691c-0.255-0.279-0.083-0.335,0-0.64c0.166,0.048,0.934-0.665,1.279,0
			c-0.44,0.402-0.247,1.108-0.427,1.278C-8.181,449.117-8.54,448.979-8.75,448.691z"/>
		<path fill="#4C402E" d="M14.259,456.361c0.102,0.764,0.347,1.23,0,1.916c-0.423,0.003-0.27,0.583-0.852,0.428
			c-0.401-0.377,0.253-0.623-0.213-1.064c0.131-0.297,0.82-0.034,0.852-0.428c-0.271-0.463-0.051-0.474-0.427-1.064
			C13.914,456.138,14.088,456.25,14.259,456.361z"/>
		<path fill="#716650" d="M2.116,418.44c0.474,0.351,1.155-0.045,1.279,0.213c-0.104,0.251-0.228,0.482-0.426,0.639
			c0.064-0.87-0.445-0.114-0.853-0.213C2.116,418.865,2.116,418.653,2.116,418.44z"/>
		<path fill="#4C402E" d="M3.395,451.886c0.079,0.364-0.167,0.403-0.426,0.428c0.018,0.336-0.103,0.813,0.212,0.853
			c-0.335,0.779-0.318-0.494-0.852-0.214C2.6,452.514,2.668,451.872,3.395,451.886z"/>
	</g>
	<g>
		<path fill="#201912" d="M4.885,416.948c0.166,0.046,0.249,0.179,0.213,0.427c0.291-0.423,1.268-0.8,1.705-0.427
			c0.091,0.589-0.794,0.199-0.852,0.639c-0.143,0-0.285,0-0.427,0c-0.284,0-0.568,0-0.852,0c0-0.212,0.172-0.253,0.213-0.425
			C4.885,417.09,4.885,417.021,4.885,416.948z"/>
		<path fill="#201912" d="M-18.762,427.602c0.133,0.576,0.89,0.529,0.852,1.277c-0.614-0.636-0.067,0.973-1.065,0.214
			c0.49-0.71,0.318-0.693,0-1.491c-0.287,0.066-0.407,0.302-0.852,0.212c-0.437-1.851,0.812-3.091,2.344-3.409
			c0.286,0.141,0.396,0.456,0.426,0.853C-17.793,425.871-18.563,426.45-18.762,427.602z"/>
		<path fill="#201912" d="M-15.567,426.535c0.237-0.472,0.843-0.577,1.065-1.064c0.071,0,0.142,0,0.212,0
			c0.039,0.747-0.719,0.7-0.852,1.277c0.896,0.258,0.935-0.344,1.491-0.426c0.125,0.833-0.876,0.544-1.065,1.064
			c-0.152,0.58,1.004-0.153,0.852,0.427c-0.143,0-0.284,0-0.426,0c-0.426,0-0.852,0-1.278,0
			C-15.459,427.143-16.032,426.98-15.567,426.535z"/>
		<path fill="#201912" d="M-13.65,427.813c0.136-1.071-0.012-1.464,0.213-2.131C-12.918,425.866-12.609,427.967-13.65,427.813z"/>
		<path fill="#201912" d="M-11.732,425.683c1.213,0.343-0.449,0.976,0,1.919c-1.021-0.162-0.259-0.779-0.426-1.705
			C-11.841,426.196-11.7,426.577-11.732,425.683z"/>
		<path fill="#201912" d="M10.638,427.813c0-0.071,0-0.142,0-0.212c0.796,0.324,0.156,1.521-0.213,1.491
			C10.27,428.44,10.792,428.466,10.638,427.813z"/>
		<path fill="#201912" d="M2.755,430.157c0.43-0.492,0.707-1.139,1.491-1.278c0.121,0.9-0.837,0.725-0.852,1.492
			c0.282,0.098,0.564,0.1,0.426,1.065c0.689,0.263,0.163-0.69,0.852-0.427c0.153-0.819-1.065-0.826-0.426-1.492
			c0.743,0.238,1.092,1.677,0.213,2.557c-0.123,0.516-0.804,0.475-1.278,0.64C3.331,431.568,2.938,430.967,2.755,430.157z"/>
		<path fill="#201912" d="M7.442,429.306c-0.084,0.696-1.183,0.379-1.491,0.852C5.564,428.674,7.235,429.21,7.442,429.306z"/>
		<path fill="#201912" d="M-0.228,431.01c-0.054-0.92,0.401,0.14,0.639,0.211c-0.156,0.849-0.156,0.857,0,1.707
			c-0.84,0.058-0.062-1.502-0.639-1.707C-0.228,431.151-0.228,431.081-0.228,431.01z"/>
		<path fill="#201912" d="M19.584,434.845c-0.129,0.367-1.009-0.019-1.064,0.426c-0.166-0.297,1.173-1.387,1.703-1.065
			c-0.189-0.377-0.863-0.271-0.639-1.065c0.671-0.102,0.833,0.303,1.278,0.427c-1.079,0.619,0.664,0.481,0.639,1.278
			c-0.427-0.072-0.666,0.043-0.639,0.426c-0.201-0.178-0.688-1.126-1.065-0.426C19.727,434.845,19.656,434.845,19.584,434.845z"/>
		<path fill="#201912" d="M17.242,434.845c0.18-0.317,0.686-0.31,1.065-0.427c-0.075,0.279-0.375,0.336-0.426,0.639
			c-0.039,0.182,0.082,0.2,0.213,0.214C17.729,436.018,17.664,434.735,17.242,434.845z"/>
		<path fill="#201912" d="M5.099,437.828c0-0.144,0-0.285,0-0.428c-0.027-0.382,0.26-0.45,0.213-0.852
			C5.636,436.553,5.779,438.127,5.099,437.828z"/>
		<path fill="#201912" d="M4.672,438.04c0.071,0,0.141,0,0.213,0c0.172,0.111,0.346,0.223,0.639,0.214
			c-0.284,0.355,0.078,1.354-0.639,1.277c0.179-0.247,0.281-0.57,0.213-1.065c-0.689-0.264-0.163,0.689-0.853,0.425
			c-0.095-0.188-0.187-0.38-0.426-0.425C3.872,438.092,4.187,437.98,4.672,438.04z"/>
		<path fill="#201912" d="M5.737,438.04c0.667-0.099,0.951,0.185,0.853,0.851C5.876,439.038,5.811,438.534,5.737,438.04z"/>
		<path fill="#201912" d="M1.689,441.022c0.477,0.306,0.878,0.684,1.279,1.065c-0.144,0.618-1.304-0.716-0.639,0.214
			c0.039,0.18-0.084,0.199-0.213,0.213c-0.142,0-0.284,0-0.426,0C1.912,441.909,1.912,441.627,1.689,441.022z"/>
		<path fill="#201912" d="M1.05,442.939c-0.25-0.602-0.042-0.904,0.213-1.491c0.269,0.435,0.384,2.926-0.213,1.919
			C1.05,443.225,1.05,443.081,1.05,442.939z"/>
		<path fill="#201912" d="M12.342,448.905c0.111,1.282,0.006,1.275-0.213,2.344c-1.776-0.716-1.121-1.993-1.705-3.835
			c-0.573-0.147-0.412,0.438-0.64,0.638c-0.624-0.18,0.127-0.686,0-1.063c1.454-0.33,0.639,1.282,1.918,0.637
			C11.561,448.107,11.382,449,12.342,448.905z M11.916,450.396c0.07-0.921-0.294-1.41-0.852-1.704
			C11.162,449.445,11.442,450.018,11.916,450.396z"/>
		<path fill="#201912" d="M1.903,452.738c-0.918-0.708-0.833,1.059-1.918,0.854c1.122-0.665,0.464-2.092,1.705-2.343
			C1.448,452.184,1.691,451.947,1.903,452.738z"/>
		<path fill="#201912" d="M0.624,454.87c-0.07,0-0.141,0-0.212,0c0.02,0.334-0.029,0.738,0.427,0.64
			c0,0.213-0.173,0.253-0.214,0.425c-0.141,0-0.284,0-0.425,0c0.294-0.959-0.829-1.063-0.214-1.704
			c0.373,0.526,0.471,0.429,0.426-0.425c0.214-0.001,0.254,0.172,0.427,0.211C0.886,454.421,0.597,454.488,0.624,454.87z"/>
		<path fill="#201912" d="M8.72,455.722c0.213,0,0.426,0,0.639,0c0.176,0.602-0.3,0.552-0.213,1.066
			C8.829,456.607,8.837,456.102,8.72,455.722z"/>
		<path fill="#201912" d="M-7.045,456.574c0.102,0.671-0.303,0.833-0.426,1.277c-0.651,0.154-0.776-0.217-1.279-0.211
			C-8.285,457.181-7.843,456.7-7.045,456.574z"/>
		<path fill="#201912" d="M11.703,459.77c0.215,0.333,0.403,1.334-0.639,1.278C10.845,460.19,11.395,460.103,11.703,459.77z"/>
		<path fill="#201912" d="M13.407,461.048c-0.355,0-0.71,0-1.065,0c0.374-0.335,0.442-0.979,1.065-1.064c0,0.283,0,0.568,0,0.852
			C13.407,460.906,13.407,460.977,13.407,461.048z"/>
		<path fill="#201912" d="M-15.567,428.453c0.1,0.667-0.535,0.6-0.852,0.853c0.041-0.172,0.214-0.213,0.213-0.427
			c-0.44,0.03-1.503-0.249-1.704-1.065c0.362-0.419,0.991-0.572,1.704-0.639C-16.438,428.468-16.269,428.234-15.567,428.453z"/>
		<path fill="#201912" d="M7.016,416.948c1.002-0.222,1.071,0.491,1.491,0.853c0.451-0.467-0.671-1.164-0.852-1.704
			c0.877-0.2,2.029,2.181,1.492,3.408C9.053,418.477,8.099,417.567,7.016,416.948z"/>
		<path fill="#201912" d="M7.655,420.358c1.65,0.604,2.351-1.651,2.13-2.983c2.25,3.255-1.948,5.564-2.13,7.243
			c0.138-1.12,0.729-0.52,1.492-0.852c0.038-1.027,0.771-1.36,1.278-1.919c0.159,0.657-0.584,0.41-0.425,1.066
			c0.754-0.167,0.731-1.115,1.49-1.277c-1.164,0.026-1.274-2.198-0.426-2.983c0.127,0.44-0.264,1.398,0.213,1.49
			c0.227-0.198,0.065-0.785,0.639-0.639c0.176,0.602-0.3,0.552-0.213,1.065c0.838,0.342,0.073-0.92,0.639-0.852
			c0.018,0.336-0.103,0.812,0.213,0.852c-0.104-0.672,0.384-0.751,0.213-1.49c-0.843-0.224-1.227-0.905-1.917-1.279
			c0.382,0.027,0.449-0.261,0.852-0.214c0.688,0.164,1.115,0.591,1.278,1.278c-0.25,1.235,2.027,2.042,1.065,3.196
			c-0.638-0.139,0.204-0.456,0-0.852c-1.007,0.435-1.675,1.537-2.557,1.491c-0.031,0.528-0.04,1.033,0.426,1.065
			c0.198,0.13,0.785,0.495,0.639-0.214c-0.45-0.82,0.497,0.354,1.279-0.213c0-0.284,0-0.568,0-0.852
			c0.336,0.646,0.934,0.296,1.278,1.491c-0.582,0.155-0.429-0.424-0.853-0.427c-0.625,2.155-1.93,5.266-0.639,7.457
			c0.634,0.01,1.081-0.628,1.492-0.214c-0.032,0.468-0.537,0.457-1.065,0.426c0.846,0.876,1.259-0.292,2.344,0.215
			c-0.773-1.049-0.671-1.66-1.278-2.771c0.707,0.646,0.238-1.179,0.852-1.279c-0.093-0.316-0.273,0.084-0.639,0
			c-0.277,0.395,1.119-1.267,0-1.704c0.417-0.568,1.506,1.133,0.639,1.278c1.127,0.125,0.135-0.875,0.64-1.064
			c0.247-0.035,0.378,0.047,0.425,0.214c-1.87,2.207-0.685,4.571,2.557,4.261c0.199,0.155,0.322,0.387,0.425,0.639
			c0,0.071,0,0.142,0,0.211c-0.625-0.013-0.466-0.809-1.278-0.638c0.073,0.565,0.559,0.72,1.065,0.854
			c-0.174,0.961-1.447-0.414-0.853,0.851c-0.832,0.051-0.771-0.791-1.064-1.277c-0.273,0.011-0.295,0.272-0.639,0.211
			c0.036,0.32-0.077,0.788,0.212,0.854c-0.151,0.273-1.213-0.334-1.704-0.425c-0.321,0.583-0.581,0.382-1.065,1.064
			c-0.744-0.25-0.541-1.448-1.491-1.493c0-0.14,0-0.281,0-0.425c-0.769,0.894-1.483,0.09-1.917,0.854
			c-0.004-0.687-0.767-1.186-0.853-2.344c0.554,0.581,0.862,1.41,1.705,1.704c0.214,0,0.253-0.172,0.426-0.214
			c-0.208-0.217-0.422-0.43-0.64-0.638c0.277-1.948,0.175-4.157,1.279-5.326c-0.409-0.666-1.079,0.179-1.279,0.426
			c-0.652-0.592-0.069-1.168-0.852-1.705c-0.373,0.197-0.47,0.666-0.426,1.279c-0.771-0.412-1.468,0.818-2.131,0.639
			c0,0.284,0,0.567,0,0.853c1.31-0.041,1.552-1.148,2.557-1.491c0.355,1.708-2.14,1.06-2.343,2.981
			c0.024,0.521,0.704,0.046,0.639-0.212c0.578,0.192-0.217,0.745-0.213,1.064c-0.252-0.03-0.483-0.379-0.64,0
			c-0.142,0-0.284,0-0.425,0c-0.285,0-0.568,0-0.852,0c-0.028-0.382,0.211-0.499,0.639-0.426c-0.03-0.396-0.141-0.712-0.426-0.854
			c-0.266,0.83-0.849,0.391-1.918,0.641c-0.151,0.79,0.364,0.914,0.213,1.704c-0.183-1.38-1.921-1.203-1.492-3.196
			c-0.293-0.009-0.467,0.101-0.639,0.214c-0.02,1.057,0.885,1.606-0.426,1.917c0.047-0.166,0.178-0.246,0.426-0.213
			c-1.045-0.5-0.572-2.472-1.917-2.13c0.015,0.624,0.487,0.79,0.853,1.063c-1.356,0.362-2.583-2.149-1.918-3.834
			c-0.863,0.424-0.382,1.505-0.425,2.344c-0.771,0.202-0.298-0.839-0.427-1.278c-0.979-0.014,0.254,1.422-0.852,0.64
			c-0.012,0.367,0.164,0.547,0.426,0.64c0.153,0.578-1.005-0.153-0.852,0.426c-1.18-0.256-1.238,0.608-2.131,0.639
			c-0.716-0.503,0.689-2.397-0.639-2.557c-0.127-0.379,0.624-0.885,0-1.065c0-0.07,0-0.142,0-0.214c0-0.141,0-0.283,0-0.425
			c0.602,0.176,0.552-0.301,1.064-0.213c0.237,0.402,0.272,1.006,0.426,1.491c0.392-0.745,0.619-1.652,1.066-2.343
			c0-0.071,0-0.144,0-0.214c0.967,0.4,0.29-0.847,1.065-0.64c0.107,0.889-0.623,0.94-0.426,1.918
			c0.686-0.307,1.257-0.729,1.491-1.49c0.755,0.022-0.453,0.702,0.212,0.638c0.167,0.189,0.229,0.482,0.214,0.853
			c-0.107,1.028,0.762,1.083,1.704,1.065c0.171-0.112,0.345-0.223,0.639-0.213c0,0.071,0,0.142,0,0.213
			c-0.172,0.041-0.212,0.213-0.425,0.213c0.553,0.815,2.279,0.89,2.343-0.426c-0.039-0.466,0.174-0.678,0.639-0.639
			c-0.073,0.427,0.044,0.666,0.426,0.639c-0.034,0.249-0.389,0.179-0.64,0.213c0.011,1.051,0.437,1.051,1.279,0.852
			c-0.935-0.751,0.437-0.546,0.426-1.492c-0.028-0.381,0.26-0.449,0.212-0.851c-0.091-1.012-0.185-1.043,0-1.917
			C7.513,420.358,7.583,420.358,7.655,420.358z M17.455,430.157c-0.601,0.249-0.905,0.042-1.491-0.214
			c-0.076,0.919,0.53,0.824,1.065,0.64c0.032,0.283-0.867,0.642-0.213,0.854c0.048-0.168,0.178-0.249,0.427-0.216
			C17.066,430.62,17.542,430.672,17.455,430.157z M-0.015,422.275c0.414-0.033,0.052,1.762,0.639,0.851
			c-0.624-0.18,0.128-0.685,0-1.064C0.375,422.095,0.021,422.024-0.015,422.275z M-0.228,424.404c-0.246-0.691,0.65-1.309,0-1.703
			C-0.452,422.922-0.667,424.223-0.228,424.404z M1.689,426.11c-0.667-0.74,0.658-1.13,0-1.706
			C1.435,424.775,0.859,425.911,1.689,426.11z M4.246,425.471c0.251,0.032,0.605-0.038,0.639,0.212
			c-0.129,0.012-0.252,0.033-0.213,0.214c0.672,0.032,0.415-0.863,0.852-1.064C5.037,424.369,4.195,424.753,4.246,425.471z
			 M7.016,427.175c0.591-0.319-0.37-0.873,0.214-1.064c0.479,0.087-0.033,1.166,0.638,1.064c0.502-0.608-0.167-1.41-0.426-1.918
			C6.971,425.549,5.689,427.028,7.016,427.175z M5.312,428.027c0.14-0.288,0.455-0.396,0.853-0.426
			c-0.026-0.544-0.31-0.826-0.853-0.854C5.562,427.313,4.903,428.003,5.312,428.027z"/>
		<path fill="#201912" d="M7.016,418.653c0.315,0.11,0.537,0.314,0.852,0.426c0.329,0.896-1.103,0.034-1.064,0.64
			c-0.208,0.006-0.167,0.26-0.213,0.425c-0.214,0-0.426,0-0.639,0c-0.707,0.367-0.925-0.129-1.279-0.639
			c0.439-0.115,0.051-1.007,0.639-0.426c-0.026-0.533-0.407-0.667,0.213-0.853c0,0.142,0,0.284,0,0.427
			c0.4,0.406-0.126,0.384,0,1.065c0.553-0.087,0.615-0.664,0.852-1.065C6.59,418.653,6.803,418.653,7.016,418.653z"/>
		<path fill="#201912" d="M-9.389,423.979c-0.53,1.527,0.947,2.155,0.427,3.622c0.608-0.031,0.389-0.89,0.426-1.491
			c0.99,0.043,0.081,1.173,0.213,1.703c-1.371,0.365-1.643,0.484-2.77,0c0.032-0.53,0.722-0.062,0.853,0
			c0.308-0.805-0.585-0.408-0.426-1.065c0.19,0.166,0.48,0.229,0.852,0.213c0.108,0.67-0.502,0.871,0.213,1.066
			C-8.967,427.042-10.279,424.804-9.389,423.979z"/>
		<path fill="#201912" d="M-6.405,427.602c-1.668-0.691-1.704-3.53,0.212-4.049c0,0.071,0,0.142,0,0.214
			c-0.276,0.528,0.625,0.884,0,1.065c-0.029-0.396-0.141-0.712-0.426-0.853c-0.265,0.515-0.527,1.035-0.639,1.703
			c1.046,0.117,0.393,1.217,0.853,1.704c0.251-0.457,0.909-0.511,0.639-1.49c-0.251-0.033-0.605,0.037-0.639-0.214
			c0.587,0.091,0.199-0.794,0.639-0.851c0.585,0.266,0.456,1.247,1.064,1.49c-0.184-0.998-0.627-1.521-0.213-2.343
			c0.912,0.812,0.818,1.622,0.64,2.769c-0.494-0.067-0.818,0.036-1.065,0.213C-5.717,427.151-5.962,427.476-6.405,427.602z"/>
		<path fill="#201912" d="M6.59,440.384c0.248-0.64,0.577-2.103,0-2.344c0.263-0.304,0.732-0.404,1.278-0.428
			c-0.226-0.728-1.888-0.509,0-0.637c-0.035-0.249,0.047-0.381,0.214-0.427c0.036-0.288-1.233-0.276-0.427-0.64
			c-0.528-0.324-0.899-0.805-1.065-1.491c-0.79,0.15-0.915-0.363-1.705-0.213c-0.028-0.738,0.938-0.484,1.065-1.065
			c0.064-0.562-0.445-0.55-0.853-0.64c0.292-0.798,1.541-0.917,1.705,0.214c-0.208-0.006-0.166-0.261-0.213-0.427
			c-0.173,0.041-0.212,0.215-0.426,0.213c-0.091,0.446,0.146,0.565,0.212,0.852c0.634,0.012,1.081-0.625,1.492-0.212
			c-0.196,0.372-0.666,0.471-1.277,0.427c0.405,1.294,2.355,1.209,2.343,2.343c1.262,0.339,0.674-1.172,1.491-1.278
			c-0.464,0.445,0.107,0.608,0,1.278c-1.468,0.371-1,1.812-1.917,2.981c-0.171-0.111-0.346-0.222-0.639-0.212
			c0.283,1.025,0.436,0.003-0.213,0.641c-0.681,0.668-0.354,2.144,0.427,2.556c-0.572,0.76-0.968-0.438-1.706-0.213
			c0.024-0.403,0.705-0.147,0.64-0.64c-0.728,0.137-1.244,0.332-0.852,1.065c-0.143,0-0.285,0-0.427,0c0-0.142,0-0.284,0-0.426
			c-0.435,0.203-0.843,0.435-1.278,0.64c-0.043-0.479,1.684-1.013,2.131-1.705C6.59,440.525,6.59,440.453,6.59,440.384z"/>
		<path fill="#201912" d="M-0.44,429.731c-0.071,0-0.142,0-0.213,0c0.046-0.686-0.377-0.901-0.213-1.704
			c0.814,0.175,0.251-1.027,1.066-0.853c-0.013,0.698-0.606,0.813-0.427,1.704c0.8,0.025,0.721,0.39,1.066,0.427
			c-0.034,0.25,0.036,0.604-0.214,0.638C-0.044,430.048,0.062,429.211-0.44,429.731z"/>
		<path fill="#201912" d="M21.076,442.939c-0.239-0.045-0.331-0.235-0.426-0.425c-0.062-0.495-0.535-0.999,0.426-0.853
			C21.011,442.159,20.66,442.542,21.076,442.939z"/>
		<path fill="#201912" d="M16.39,434.205c0.376-0.138,0.901-1.208,1.279-0.639c-0.719,0.062-0.619,0.944-1.279,1.064
			C16.39,434.488,16.39,434.347,16.39,434.205z"/>
		<path fill="#201912" d="M10.851,432.714c0.785-0.006,1.422-1.264,1.917-0.852c-0.234,1.398-0.724,2.542-1.278,3.621
			c-0.165-0.048-0.42-0.006-0.426-0.213c0.245-0.27,0.975-1.134,0.426-1.492c-0.422,0.359-0.584,0.98-0.852,1.492
			c-0.003-0.85-0.204-1.501-0.639-1.919c-0.004,0.566,0.117,1.256-0.427,1.279c-0.116-0.31,0.25-1.102-0.213-1.064
			c-0.207,0.501-0.606,0.813-0.853,1.278c0.102-1.174,0.565-1.08-0.213-1.278c0.695-0.371,1.923-0.208,2.344-0.853
			C10.708,432.714,10.779,432.714,10.851,432.714z"/>
		<path fill="#201912" d="M2.968,438.679c0.268-0.054,0.214-0.423,0-0.425c0.67-0.5,0.59,1.985,0.212,2.13
			C2.851,440.073,2.993,439.292,2.968,438.679z"/>
		<path fill="#201912" d="M1.477,438.466c0.018-0.302,0.035-0.604-0.213-0.638c0.093-0.317,0.272,0.084,0.639,0
			c-0.045-0.622-0.836-1.058-0.426-1.493c0.12,1.088,1.631,0.783,2.343,1.277c-0.442,0.194-1.54-0.106-1.278,1.278
			c-0.044,0.239-0.237,0.334-0.426,0.428c-0.009,0.291,0.101,0.467,0.213,0.639c0.452,0.986-0.864-0.314-0.426-1.278
			c-0.142,0-0.284,0-0.426,0C1.477,438.609,1.477,438.536,1.477,438.466z"/>
		<path fill="#201912" d="M2.329,433.14c0.26,0.024,0.504,0.063,0.426,0.427c-0.026,0.613-0.909,0.368-0.853,1.064
			c0.144,0.538,0.708-0.771,0.853,0.214c-0.734,0.119-1.084,0.62-1.492,1.064c0.609-1.001,0.037-1.939,0.852-2.558
			C2.245,433.341,2.368,433.32,2.329,433.14z"/>
		<path fill="#201912" d="M-0.867,433.14c-0.06-0.344,0.202-0.366,0.213-0.64c0.268,0.848,0.43,0.565,0.853,1.066
			c-0.647,3.491-1.353,5.45-1.279,8.735c0.217,3.558-0.389,6.644-0.639,10.65c-0.661,0.023-1.019-0.261-1.492-0.426
			c-0.388,0.819-0.614,1.8-1.064,2.558c-0.337,0.017-0.813-0.103-0.853,0.211c0.094,0.316,0.273-0.083,0.64,0
			c-0.189,0.815,0.348,1.361,0,1.705c-0.442-0.055-0.058-0.937-0.426-1.065c-0.005,0.805-0.338,1.785-0.213,2.557
			c-1.067-0.155,0.07-1.19,0-1.703c-0.952-0.246-0.271,1.021-0.638,0.425c-0.898,0.016,0.473-0.786,0-1.703
			c-0.728,0.137-1.245,0.333-0.853,1.064c-0.871,0.116-0.72-0.92-0.213-1.064c-0.804-0.293-0.289-0.796-1.278-1.066
			c0.021-0.546,0.832-0.304,0.852-0.852c0.473,0.117,0.303-0.406,0.639-0.426c0.214,0,0.426,0,0.639,0
			c-0.619,0.303-0.705,1.142-1.064,1.704c1.113,0.61,1.911-0.925,2.982-1.064c-0.284-0.569-0.313-1.392-1.065-1.492
			c0.167-0.213,0.744,0.079,1.065-0.427c-0.623-0.737-0.878-0.53-1.917-0.851c0.218-0.281,0.209-0.787,0.426-1.064
			c0.329,0.239,0.524,0.611,0.853,0.85c0.234-0.463,1.051-1.68,0.212-1.916c0.336-0.586,0.763-1.09,1.278-0.426
			c-0.089-0.446,0.147-0.563,0.214-0.854c-0.139-0.216-0.49-0.22-0.426-0.637c-0.412,0.558-1.074,1.26-2.13,1.703
			c-0.27-0.845,1.6-1.378,1.917-2.344c0-0.069,0-0.143,0-0.213c-0.118-0.379-0.109-0.884-0.426-1.065
			c0.368-0.354,0.766,1.07,1.278,1.278c-0.111-0.645,0.711-1.528,0.853-2.556c0-0.071,0-0.144,0-0.213
			c0.559-0.779-0.236-2.732,0.213-3.836c-1.499-0.429-3.226,0.749-3.622,2.131c-0.207-0.007-0.166-0.261-0.213-0.426
			c0-0.071,0-0.143,0-0.213c0.927-1.062,1.504-2.473,3.196-2.771c1.816,0.93,1.175-2.334,1.065-2.342
			c0.033-0.395,0.722-0.132,0.853-0.426C-0.44,434.599-0.883,434.574-0.867,433.14z"/>
		<path fill="#201912" d="M7.442,446.348c0.491-1.256,1.92-4.355,0.426-5.539c0.579,0.152-0.152-1.004,0.426-0.852
			c0.252,0.103,0.483,0.227,0.64,0.427c-0.59-0.282-0.731,0.841-0.427,0.212c0.945,0.021,0.663-1.183,1.278-1.491
			c0.033-0.529-0.334-0.658-0.425-1.064c0.314-0.112,0.537-0.315,0.852-0.428c0.064-0.418-0.288-0.422-0.427-0.638
			c0.12-0.307,0.333-0.521,0.64-0.641c-0.067,0.289-0.303,0.407-0.213,0.854c1.086-0.234,0.319-1.144,1.278-1.278
			c0.781,2.841,2.033,5.21,3.409,7.457c-0.108,0.624-0.403,0.121-0.64,0.851c0.299,0.436,0.734-0.209,1.279,0.214
			c0.181-0.039,0.2,0.083,0.213,0.213c-0.048,0.308-0.635,0.073-0.639,0.426c-1.131-0.104,0.706,0.754-0.213,1.065
			c-1.484-0.125-0.792-1.183-1.704-1.704c0.247,1.03,0.155,2.399,1.064,2.769c0,0.071,0,0.143,0,0.214
			c-0.172-0.041-0.212-0.214-0.425-0.214c-0.019,0.338,0.102,0.814-0.214,0.853c-0.783-1.396-4.808-1.658-3.621-3.621
			c-0.122,0.718,0.928,0.909,0.425,1.916c0.445,0.092,0.564-0.145,0.853-0.212c-0.488-0.719-0.814-1.599-1.065-2.556
			c-0.182,0.315-0.686,0.308-1.065,0.425c0.123-0.129,0.499-1.011,0-1.066c-1.068,2.401,0.063,4.34-0.64,6.392
			c0.473,0.118,0.304-0.405,0.64-0.425c0.007,0.827-0.399,1.392-0.213,1.916c0.071,0,0.142,0,0.213,0
			c-0.244,0.672,0.335,0.52,0.426,0.854c-0.727,0.124-0.122,1.582-0.639,1.918c-0.196-0.374-0.074-1.063-0.427-1.278
			c-0.394,1.605,1.207,2.337,0.853,3.195c-0.455-0.061-0.616-1.493-0.853-1.065c-0.282,1.31,0.71,2.574,0.427,3.834
			c-0.142,0-0.285,0-0.427,0c-0.319-0.249-0.521-0.615-1.065-0.638c0.527,0.371,0.43,0.469-0.426,0.426
			c-1.506,0.155-2.38-0.319-3.196-0.854c0.083-0.23,0.256-0.51,0-0.212c-0.514-1.3,1.317-2.089,1.065-3.834
			c0.282-1.282,1.11-2.016,1.279-3.41C6.771,448.802,7.297,447.767,7.442,446.348z M13.194,441.022
			c-0.957-0.397-1.786-2.044-3.195-1.279C11.546,439.55,12.234,441.337,13.194,441.022z M10.211,443.58
			c0.178-0.729-0.044-1.01,1.278-0.854c-0.251-0.435-0.64-0.498,0-1.277c0.165-0.049,0.419-0.006,0.426-0.212
			c-0.934-0.286-1.266,0.142-1.917-0.427c0.279,0.027,1.541,0.032,0.852-0.213c-0.355,0-0.71,0-1.066,0
			C9.652,441.263,9.046,443.575,10.211,443.58z M6.376,456.788c-0.227,0.197-0.066,0.785-0.639,0.639
			c0.19-0.468,0.861-1.679,0-1.917c0.155,0.934-0.423-0.171-0.426,0.425c0.198,0.229,0.786,0.067,0.64,0.64
			c-0.532,0.409-0.876-0.324-1.279,0.214c0.534,0.646,0.747,0.289,1.065,1.063c0.529-0.129,2.089-0.451,1.066-0.852
			C6.429,458.256,6.617,456.115,6.376,456.788z M12.768,440.17c-0.046-0.674-1.111-1.431-1.491-1.064
			C11.96,439.273,12.208,439.879,12.768,440.17z M11.916,444.646c0.093-0.734-0.084-1.196-0.213-1.706
			c-0.53,0.024-0.659,0.398-1.065,0c0,0.285,0,0.568,0,0.852c0.655,0.158,0.409-0.583,1.065-0.424
			C11.352,443.696,11.612,444.358,11.916,444.646z M11.916,446.348c0.402-0.048,0.47,0.241,0.853,0.213
			c-0.499-0.594-0.003-1.394-1.065-1.703C11.771,445.358,12.04,445.656,11.916,446.348z"/>
		<path fill="#201912" d="M1.477,440.17c0.04,0.242,0.213,0.118,0.212,0c0.311,0.12-0.401,1.003-0.851,1.065
			c-0.16-0.657,0.584-0.409,0.425-1.065C1.334,440.17,1.405,440.17,1.477,440.17z"/>
		<path fill="#201912" d="M3.395,442.088c-0.201-0.651-1.037-0.668-1.065-1.492c0.494-0.513,0.57,0.334,1.065,0.427
			c0.04,0.172,0.213,0.212,0.212,0.426c0.036,0.479,0.703,1.403,0.427,1.489C3.745,442.729,3.607,442.371,3.395,442.088z"/>
		<path fill="#201912" d="M5.737,442.515c0.652,0.153,0.627-0.369,1.278-0.213c0,0.069,0,0.142,0,0.213
			c-0.87,0.11-2.102,0.974-2.77,1.917c1.26-0.409,1.526-1.009,2.983-1.492c-0.803,0.902-1.978,1.431-3.196,1.918
			c-0.032,1.439-0.341-1.199-1.278-0.854c0.22,0.861-0.45,1.221-0.426,2.344c-0.771-0.292,0.116-1.604-0.64-1.49
			c-0.024-1.058,0.209-1.047,0-1.918c0.656,0.148,0.41,0.148,1.066,0c0.099,0.454-0.305,0.405-0.64,0.427
			c0.021,0.545,0.793,0.342,1.065,0.638c0.061-0.369-0.68-1.143,0.214-1.064c0,0.071,0,0.142,0,0.214
			c0.11,0.315,0.314,0.535,0.425,0.851C4.688,443.736,4.935,442.847,5.737,442.515z"/>
		<path fill="#201912" d="M5.737,445.069c0.765-0.229,0.625-1.364,1.705-1.278C6.92,444.264,6.65,444.988,5.737,445.069z"/>
		<path fill="#201912" d="M-0.015,449.33c0.316,0.183,0.459,0.537,0.426,1.065c0.673,0.105,0.08-1.055,0.853-0.853
			c0.172,0.954-0.379,1.185-1.064,1.278c0.614,0.853,0.255,1.413,0,2.345c-0.232-0.054-0.146-0.424-0.427-0.428
			c1.141-0.906-0.45-2.124,0.427-2.982c-0.684,0.438-0.775,0.344-0.427-0.426C-0.156,449.33-0.085,449.33-0.015,449.33z"/>
		<path fill="#4C402E" d="M-7.684,451.886"/>
		<path fill="#4C402E" d="M-7.897,453.379"/>
		<path fill="#201912" d="M8.72,464.458c0.588,0.378,1.684-0.208,1.491-1.279C11.449,463.629,8.911,466.085,8.72,464.458z"/>
		<path fill="#201912" d="M14.259,452.526c-0.011-0.106-1.013,0.22-1.278-0.426c0.355,0,0.71,0,1.066,0
			C14.253,452.106,14.211,452.361,14.259,452.526z"/>
		<path fill="#201912" d="M12.129,463.604c0.03,0.6-0.522,0.614-1.065,0.639c0.978,0.751,0.259,0.886-0.426,1.917
			c-0.274-0.88,0.304-1.631,0.64-2.769C11.465,463.557,11.758,463.621,12.129,463.604z"/>
		<path fill="#201912" d="M8.933,415.245c0.166,0.189,0.229,0.48,0.213,0.852c-0.047,0.165-0.006,0.42-0.213,0.427
			c-0.003-0.777-0.606-0.957-0.852-1.492C8.369,415.097,8.488,415.335,8.933,415.245z"/>
		<path fill="#201912" d="M1.689,418.227c0.142,0,0.285,0,0.426,0c0,0.072,0,0.142,0,0.214c0,0.213,0,0.425,0,0.639
			c0.408,0.099,0.917-0.657,0.853,0.213c-0.172,0.112-0.347,0.224-0.639,0.213c-0.82,0.104-0.73-0.57-1.491-0.852
			c0-0.071,0-0.143,0-0.213c0.271-0.014,0.294-0.273,0.639-0.214C1.548,418.227,1.618,418.227,1.689,418.227z"/>
		<path fill="#201912" d="M18.094,426.961c0.17,0.399,0.355,0.78,0.426,1.278c-0.087,0.268-0.274,0.437-0.639,0.426
			C17.672,427.931,17.135,427.268,18.094,426.961z"/>
		<path fill="#201912" d="M15.538,443.153c0.446-0.123,0.607-0.529,1.278-0.428c0.308-0.804-0.585-0.409-0.425-1.063
			c0.07,0,0.142,0,0.213,0c0.486,0.293,1.329,0.232,1.277,1.063c-0.601,0.892-0.793,2.19-1.491,2.984c0-0.143,0-0.284,0-0.428
			c0-0.07,0-0.142,0-0.213c-0.172-1.166,0.64-1.347,1.065-1.916C16.843,442.703,15.985,443.972,15.538,443.153z"/>
		<path fill="#201912" d="M13.833,450.821c0.112,0.173,0.222,0.348,0.213,0.64c-0.544-0.365-0.746,0.244-1.066-0.212
			C13.404,451.245,13.252,450.667,13.833,450.821z"/>
		<path fill="#201912" d="M-5.766,463.392c-0.51,0.342-1.004,0.701-1.917,0.64c-0.639,0-1.278,0-1.917,0
			c-0.095-0.616-1.61,0.188-1.705-0.427c0.679,0.183,0.809-0.185,1.065-0.426c0.322,0.911,0.73-0.433,1.491,0.213
			c0.102-0.671-0.303-0.831-0.426-1.278c0.071,0,0.142,0,0.213,0c1.092-0.328,1.008-1.832,2.557-1.705
			c-0.26-1.303-1.915,0.184-2.557-0.425c0.515-0.48,1.225-0.765,2.13-0.853c-0.011,0.367,0.164,0.548,0.427,0.64
			c0.31-0.536,1.14-0.399,1.278-0.215c0,0.215,0,0.428,0,0.642c-0.252-0.064-0.805-0.858-1.065-0.213
			c0.257,0.044,0.131,0.235,0,0.424c0.565,0.004,1.254-0.116,1.278,0.427c-0.894,0.201,0.066,1.152-0.639,1.705
			c-0.072,0-0.142,0-0.212,0C-6.014,462.855-6.014,463.077-5.766,463.392z M-8.75,462.538c0.689-0.263,0.163,0.69,0.852,0.427
			c0-0.355,0-0.71,0-1.064C-8.43,461.863-8.564,462.228-8.75,462.538z"/>
		<path fill="#201912" d="M9.146,432.5c-0.071,0-0.142,0-0.213,0c-2.378,0.088-0.81-2.921,1.066-2.343
			c0.011,0.698,0.604,0.814,0.425,1.705C9.435,431.313,9.95,432.367,9.146,432.5z M8.506,431.01
			c-0.127,0.597,1.47,0.638,1.493-0.214C9.433,430.798,8.781,430.716,8.506,431.01z"/>
		<path fill="#201912" d="M9.785,441.662c0.444-0.408,0.899-0.048,1.279,0c-0.241,0.397-0.251,1.026-1.064,0.853
			C9.98,442.177,10.101,441.7,9.785,441.662z"/>
		<path fill="#201912" d="M17.242,439.743c0.116,0.311-0.25,1.102,0.212,1.065c0.104-0.379,0.228,0.094,0.426,0.214
			c-0.156-0.581,0.422-0.429,0.426-0.853c-0.367-0.084-0.547,0.316-0.639,0c0.213-1.305,1.737-0.58,1.703-1.491
			c0.404,0.048,0.471-0.24,0.852-0.213c0.355,0.423-0.019,0.271,0,0.854c-0.404-0.4-0.534-0.025-1.065,0
			c0.224,1.851,1.346,3.184,0.426,4.472c0.175-0.743-0.651-2.135-1.277-2.769c-0.039,0.695,0.5,1.025-0.426,1.065
			c0-0.284,0-0.569,0-0.853c-0.529-0.277-0.884,0.625-1.065,0c0.246-0.251,0.241-0.753,0.213-1.278
			C16.968,439.577,17.23,439.52,17.242,439.743z"/>
		<path fill="#201912" d="M17.881,433.14c0.415,0.479,0.665,1.124,1.492,0.639c0.064,0.562-0.445,0.55-0.853,0.64
			C18.331,433.968,17.872,433.789,17.881,433.14z"/>
		<path fill="#201912" d="M-8.11,452.526c0.2-0.156,0.323-0.388,0.427-0.641c0.621,0.365-0.483,0.775-0.214,1.492
			c-0.179,0.677-0.281-0.379-0.213-0.64C-8.11,452.669-8.11,452.598-8.11,452.526z"/>
	</g>
	<g>
		<path fill="#716650" d="M3.82,413.967c0.773-0.328,1.179,0.78,0.639,1.064C3.793,415.129,3.778,414.576,3.82,413.967z"/>
		<path fill="#716650" d="M-5.127,421.637c0.344,0.058,0.367-0.203,0.639-0.214c0.635,0.757-0.686,1.049,0.213,1.703
			c0,0.072,0,0.143,0,0.214c-0.207,0.005-0.166,0.261-0.213,0.427c-0.542-0.027-0.826-0.311-0.852-0.853
			C-4.255,423.425-5.983,422.177-5.127,421.637z"/>
		<path fill="#716650" d="M-7.684,423.126c0.303,0.052,0.359,0.352,0.639,0.427c-0.766,0.314-0.378,0.46-0.639,1.279
			c-0.8-0.17-0.014-0.747-0.427-1.065c-0.394,0.031-0.131,0.721-0.426,0.852c-0.286-0.043-0.396-0.886-0.426,0
			c-0.249-0.036-0.231-0.336-0.213-0.639c0.334-0.022,0.738,0.028,0.639-0.427c0-0.072,0-0.141,0-0.213
			C-8.199,423.322-7.724,423.441-7.684,423.126z"/>
		<path fill="#716650" d="M-12.584,423.34c0.173,0.04,0.212,0.214,0.426,0.213c-0.208,0.635-0.069,1.284-0.852,0.852
			c-0.088,0.515,0.389,0.464,0.212,1.066c-0.515-0.266-0.689-0.874-0.853-1.491C-12.933,424.128-12.95,423.541-12.584,423.34z"/>
		<path fill="#716650" d="M10.638,427.813c-0.52-0.534-0.026-1.863,0.64-1.917c-0.188,0.595-0.51,1.052-0.64,1.705
			C10.638,427.672,10.638,427.742,10.638,427.813z"/>
		<path fill="#716650" d="M8.082,428.665c0.141,0,0.283,0,0.425,0c1.017-0.012-0.615,1.199-0.852,0.641
			C7.673,428.968,8.198,429.139,8.082,428.665z"/>
		<path fill="#716650" d="M19.584,434.845c0.071,0,0.143,0,0.213,0c0.213,0,0.425,0,0.64,0c-0.447,0.645,0.047,1.756-0.214,2.131
			c-0.713-0.495-0.083-0.7-0.424-1.705c-0.143,0-0.285,0-0.426,0C19.413,435.099,19.586,435.058,19.584,434.845z"/>
		<path fill="#716650" d="M18.52,436.123c-0.825-0.444-0.348,0.315-1.278,0.212c-0.091-0.444,0.146-0.564,0.212-0.852
			C17.601,435.905,18.724,435.351,18.52,436.123z"/>
		<path fill="#716650" d="M5.099,437.4c0,0.143,0,0.284,0,0.428c-0.181-0.04-0.201,0.082-0.213,0.212c-0.072,0-0.142,0-0.213,0
			c-0.156-0.199-0.388-0.324-0.639-0.428c0.155-0.377,0.387-0.028,0.639,0c0.02-0.672-0.57-1.269,0.426-1.277
			C4.976,436.465,4.6,437.346,5.099,437.4z"/>
		<path fill="#716650" d="M6.59,440.384c0,0.069,0,0.142,0,0.213c-0.789,0.401-0.59-1.019-0.214-1.491
			C6.847,439.131,6.467,440.008,6.59,440.384z"/>
		<path fill="#716650" d="M3.395,441.022c0.138-0.361,0.489-0.135,0.425,0.213c0.7-0.223,0.265-1.582,1.065-1.704
			c-0.231,0.763-0.333,1.656-0.639,2.343c-0.28-0.075-0.335-0.374-0.639-0.426C3.608,441.234,3.435,441.194,3.395,441.022z"/>
		<path fill="#716650" d="M19.373,439.531c0.933,0.021,0.451,0.862,0.425,1.277C19.445,440.594,19.567,439.905,19.373,439.531z"/>
		<path fill="#716650" d="M-0.015,441.236c-0.972,0.014-0.426-0.628-0.212-1.066C0.234,440.135-0.131,440.927-0.015,441.236z"/>
		<path fill="#716650" d="M15.538,444.432c-0.056-0.301-0.467-0.243-0.639-0.428c0.051-0.373,0.367-0.485,0.852-0.424
			c-0.521,0.501,0.318,0.396,0.213,1.065c-0.071,0-0.142,0-0.213,0C15.738,444.515,15.718,444.392,15.538,444.432z"/>
		<path fill="#716650" d="M4.034,445.496c0.542,0.097-0.217,1.495,0.852,1.064c-0.148,0.174-0.332,0.584,0,0.639
			C4.371,447.758,3.409,446.107,4.034,445.496z"/>
		<path fill="#716650" d="M14.259,447.199c0-0.141,0-0.283,0-0.425c0.813,0.19,1.36-0.347,1.705,0
			c0.046,0.634-0.759,0.752-1.065,0.425c0.439,0.668-0.146,0.279-0.64,0.215C14.259,447.343,14.259,447.271,14.259,447.199z"/>
		<path fill="#716650" d="M2.755,448.266c1.338-0.244-0.414,1.5,1.065,1.277c-0.066,0.29-0.534,0.178-0.852,0.213
			C3.072,449.085,2.584,449.004,2.755,448.266z"/>
		<path fill="#716650" d="M2.116,449.756c-0.511,0.085,0.118-0.97-0.639-0.639C1.715,448.106,2.823,449.215,2.116,449.756z"/>
		<path fill="#716650" d="M-4.275,449.117c-0.465,0.949-1.552,1.074-2.344,0.426C-6.182,449.058-4.78,449.536-4.275,449.117z"/>
		<path fill="#716650" d="M8.933,450.821c-0.027-0.383,0.211-0.496,0.639-0.426c0.308-0.807-0.585-0.409-0.426-1.065
			c0.963,0.245,1.045,1.371,1.492,2.131c-0.398,0.203-0.712-0.639-0.853,0c-0.285-0.144,0.062-1.305-0.639-0.64
			C9.075,450.821,9.004,450.821,8.933,450.821z"/>
		<path fill="#716650" d="M-8.11,452.738c-0.715,0.333-0.452-1.89-0.639-2.767c0.595,0.185,1.053,0.509,1.705,0.637
			c-0.166,0.19-0.228,0.482-0.213,0.853c-0.838,0.341-0.074-0.919-0.639-0.853c-0.631,0.551,0.297,1.335-0.213,1.918
			C-8.11,452.598-8.11,452.669-8.11,452.738z"/>
		<path fill="#716650" d="M12.342,452.101c-0.438,0.56-1.04-0.508-1.065-1.064C11.811,451.211,11.95,451.781,12.342,452.101z"/>
		<path fill="#716650" d="M-10.027,458.918c0,0.07,0,0.141,0,0.212c0.56,0.064,0.167-0.825,0.852-0.639
			c-0.553,0.779,0.425,0.957,0,1.492c-0.482-0.107-0.466-1.045-1.065-0.428c0-0.068,0-0.141,0-0.212
			C-10.276,459.097-10.194,458.965-10.027,458.918z"/>
		<path fill="#716650" d="M10.851,458.918c0.562-0.065,0.699,0.294,0.639,0.852c-0.558,0.062-0.917-0.077-0.852-0.64
			C10.819,459.17,10.838,459.048,10.851,458.918z"/>
		<path fill="#716650" d="M13.833,465.31c0.177,0.19-1.414,0.422-1.918,0.638C12.296,465.476,12.846,465.175,13.833,465.31z"/>
		<path fill="#716650" d="M-2.571,420.57c0.319-0.249,0.521-0.615,1.065-0.639c-0.404,0.041-0.719,1.241-0.213,1.491
			c0,0.07,0,0.143,0,0.214C-2.495,421.772-1.982,420.621-2.571,420.57z"/>
		<path fill="#716650" d="M-21.106,429.306c0.293,0.32,0.735-0.054,0.213-0.213c1.812-0.387,1.975,3.284-0.213,2.77
			c0.265-0.659,0.703-1.144,1.278-1.491c-0.192-0.577-0.477,0.486-0.852,0.425C-19.81,430.11-20.617,429.752-21.106,429.306z"/>
		<path fill="#716650" d="M20.223,444.004c0.268-0.371-0.091-1.483-0.212-2.13c0.491-0.064,0.236,0.615,0.639,0.641
			c0.095,0.189,0.187,0.38,0.426,0.425c0,0.142,0,0.285,0,0.427C20.642,443.428,20.659,443.942,20.223,444.004z"/>
		<path fill="#716650" d="M5.737,415.245c0.281,0.002,0.195,0.371,0.427,0.424c0.059-0.71-0.998-1.398-0.427-1.916
			c0.439,0.058,0.201,0.796,0.639,0.852c0.115-0.753-0.344-0.935-0.639-1.277c0.407-0.1,0.917,0.657,0.853-0.212
			c0.07,0,0.141,0,0.213,0c0.045,0.238,0.236,0.33,0.426,0.425c-0.12,0.442-0.333,0.451-0.64,0.213
			c0.189,1.396-0.405,2.01-1.065,2.557C4.927,416.097,5.502,415.325,5.737,415.245z"/>
		<path fill="#716650" d="M-7.471,416.523c0.71-0.568,1.921-1.41,3.464-1.729c-0.152,0.626-1.525,1.536-1.973,1.94
			c-0.021-0.236,0.31-0.33,0-0.425c-1.563,1.072-2.457,1.759-4.26,2.77c0-0.142,0-0.284,0-0.426
			c0.093-0.189,0.187-0.381,0.426-0.427c-0.113,0.172-0.223,0.347-0.213,0.639c0.856-0.705,1.5-1.624,2.769-1.917
			C-7.223,416.701-7.306,416.569-7.471,416.523z"/>
		<path fill="#716650" d="M5.951,422.914c0.051,0.698,1.137,0.77,1.278,0.212c0.01,0.946-1.361,0.741-0.426,1.492
			c-0.842,0.199-1.268,0.199-1.279-0.852c0.251-0.034,0.605,0.035,0.64-0.214c-0.383,0.028-0.499-0.211-0.426-0.639
			C5.809,422.914,5.879,422.914,5.951,422.914z"/>
		<path fill="#716650" d="M5.951,420.144c-0.041,0.172-0.214,0.214-0.214,0.427c0.946,1.053,0.999-1.278,1.278,0
			c0.312-0.185,0.675-0.318,0.639-0.852c0.142,0,0.284,0,0.427,0c-0.052,0.305-0.351,0.358-0.427,0.64c-0.071,0-0.142,0-0.213,0
			c-0.185,0.874-0.091,0.905,0,1.917c-0.171-0.113-0.346-0.224-0.639-0.214c-0.106-0.671,0.464-0.833,0-1.278
			c-0.435,0.063-0.417,0.578-0.852,0.64c0.608,0.331,0.129,0.419,0.213,1.278c-0.072,0-0.143,0-0.213,0
			c-0.233-1.414-0.536,0.686-1.492,0.852c0.213,0,0.426,0,0.64,0c-0.063,1.315-1.79,1.242-2.343,0.427
			c0.213,0,0.253-0.172,0.425-0.213c-0.065,0.259,0.616,0.733,0.64,0.213c-0.418,0.103-0.687-0.978-0.213-1.065
			c0.217,0.139,0.221,0.489,0.639,0.426c-0.272-0.835,0.584-0.716,0.853-0.426c1.063-1.245,0.133-2.546-0.853-3.409
			c0.128,0.553-0.085,0.767-0.639,0.639c0.422-0.326,0.667-1.239,0-1.49c0.303,0.019,0.604,0.034,0.639-0.212
			c-1.061-1.022-1.869-0.973-2.982-1.493c-0.397,0.378-0.22,1.123,0.213,1.278c-0.344-0.06-0.367,0.2-0.639,0.214
			c0-0.142,0-0.285,0-0.428c0.126-0.44-0.264-1.398,0.212-1.489c0.768,0.022,1.627,1.058,2.344,0.424
			c-0.416-0.435-0.233-1.47-0.853-1.702c0.391,0.01,0.721-1.092,1.065-0.426c-0.715,0.352-0.085,2.11,0.213,2.768
			c0.315-1.034,0.864-1.834,1.278-2.768c0.166,0.045,0.247,0.177,0.213,0.426c-0.295,0.343-0.604,0.674-0.853,1.064
			c0.251,0.033,0.605-0.037,0.64,0.214c-0.166,0.046-0.248,0.178-0.213,0.424c0,0.073,0,0.142,0,0.215
			c-0.722,0.54,0.393,1.085-0.213,2.343C5.026,420.015,5.244,420.512,5.951,420.144z"/>
		<path fill="#716650" d="M-10.454,419.505c0.507,0.372-0.236-0.159-0.426,0.214c0.183,0.171,0.127,0.583,0.426,0.64
			c-0.063,0.315-0.896-0.231-1.065,0.425c0.076,0.298,0.375,0.02,0.426-0.213c0.779,0.335-0.495,0.318-0.213,0.853
			c-0.171-0.113-0.346-0.222-0.639-0.213c0.405,0.63-0.137,0.184-0.853,0.427c-0.313,0.521-1.443,1.925-2.557,2.343
			C-13.548,422.471-11.631,419.811-10.454,419.505z"/>
		<path fill="#716650" d="M0.411,420.358c0.332-0.258,0.83-0.682,1.278-0.215c0.05-0.944-1.166-0.622-0.851-1.278
			c0-0.07,0-0.142,0-0.212c0.761,0.281,0.67,0.955,1.491,0.852c-0.646,0.729,0.588,1.392,1.278,1.491
			c-0.003,0.423-0.582,0.271-0.426,0.852c-0.489-0.291-0.684-0.877-1.065-1.277c-0.38,0.258-1.24,0.039-1.492,0.426
			c0.521,0.523,0.925-0.158,1.705,0c0.173,0.963,0.489,1.782,0.852,2.557c-0.293-0.01-0.467,0.1-0.639,0.214
			c0.777-0.896-1.293-1.36-1.704-1.065c0.015-0.372-0.048-0.663-0.214-0.854C1.439,420.708-0.835,421.114,0.411,420.358z
			 M0.838,421.637c-0.192,0.682,1.611,1.176,1.491,0.425C1.726,422.026,1.441,421.671,0.838,421.637z"/>
		<path fill="#716650" d="M4.458,421.637c0.1-0.668-0.185-0.953-0.852-0.854c0.209-0.288,0.568-0.425,0.852-0.64
			c-0.36,0.793,0.046,0.418,0.427,0.853C4.782,421.247,4.658,421.479,4.458,421.637z"/>
		<path fill="#716650" d="M-11.945,423.553c0.604-0.484,2.217-0.635,2.77,0c-0.11,0.694-0.76-0.269-1.705,0.214
			c-0.292,0.874,0.514,1.738,0,2.13c-0.218-0.209-0.431-0.422-0.639-0.64C-11.363,424.459-11.218,423.888-11.945,423.553z"/>
		<path fill="#716650" d="M-15.567,426.535c-0.283-0.031-0.643,0.866-0.852,0.213c0.04-0.957,1.451-1.128,0.852-1.916
			c1.16,0.762,0.375-0.911,1.705-0.853c-0.688,0.528-0.39,1.201-0.426,1.491c0-0.118-0.172-0.242-0.213,0
			C-14.724,425.958-15.33,426.063-15.567,426.535z"/>
		<path fill="#716650" d="M-7.045,422.701c0.344-0.438,1.025-0.538,1.491-0.854c0.079,0.719-0.896,0.384-0.852,1.066
			c0.485-0.061,0.8,0.051,0.852,0.426c-0.58-0.152,0.152,1.006-0.427,0.852c-0.047-0.164-0.005-0.419-0.212-0.425
			c0-0.072,0-0.143,0-0.214C-6.511,423.302-6.444,422.667-7.045,422.701z"/>
		<path fill="#716650" d="M9.146,432.5c0.514-0.087,0.464,0.39,1.065,0.214c-0.008-0.521,1.325-0.783,1.278-0.641
			c0.065,0.492-0.616,0.239-0.639,0.641c-0.072,0-0.142,0-0.213,0c-1.295,0.641-3.622,0.552-3.835-1.065
			c-0.031-0.284,0.866-0.644,0.213-0.853c-0.025,0.261-0.064,0.506-0.426,0.425c0.185-0.311,0.318-0.674,0.852-0.638
			c-0.047,0.403,0.239,0.47,0.213,0.853c-0.26,0.023-0.504,0.063-0.425,0.427c0.304,0.346,1.092,1.304,1.704,0.638
			C9.004,432.5,9.075,432.5,9.146,432.5z"/>
		<path fill="#716650" d="M4.458,432.073c0.798,0.018,0.728-0.834,0.853-1.49c0.678,1.464-1.042,2.364-2.131,2.769
			c0.376,1.073-1.391,1.094-0.212,0.641c-0.43-1.521-0.711-2.948-0.213-3.835c0.183,0.81,0.576,1.411,0.425,2.557
			C3.655,432.549,4.336,432.59,4.458,432.073z"/>
		<path fill="#716650" d="M-0.228,430.371c0.437-0.709,0.52,0.312,1.278-0.428c0.251-0.564-0.408-1.254,0-1.278
			c0.606,0.612,0.112,1.482,0.213,1.706c0.399-0.047,0.719-1.243,1.065-0.64c-0.457,0.608-1.435,0.696-1.491,1.705
			c0.577,0.598,0.529,0.168,1.277,0c-0.139,0.756-0.803,0.984-0.426,1.703c0.6,0.177,0.238-1.055,0.64,0
			c0.039,0.181-0.084,0.201-0.213,0.212c-0.304,0.053-0.36,0.353-0.639,0.427c-0.001-0.213,0.172-0.253,0.212-0.427
			c-0.81-0.313-0.042,0.954-0.851,0.641c0.243-1.014,0.422-0.826,0.425-1.918c-0.567-0.001-0.544-0.592-0.853-0.854
			c-0.238-0.071-0.692-1.13-0.639-0.211C-0.607,430.853-0.259,430.622-0.228,430.371z"/>
		<path fill="#716650" d="M-18.336,424.191c0.337-0.444,1.49-0.07,1.917-0.425c-0.438,0.413-1.11,0.593-1.704,0.852
			C-18.077,424.351-17.792,424.184-18.336,424.191z"/>
		<path fill="#716650" d="M-18.762,427.602c0.199-1.151,0.969-1.73,1.704-2.345c0.332-0.056,0.148-0.466,0-0.639
			c0.695,0.055,1.025-0.253,1.065-0.852c-0.071,0-0.142,0-0.212,0c0.047-0.307,0.635-0.074,0.639-0.427c0.071,0,0.142,0,0.213,0
			c-0.616,1.217-0.03,1.882-1.705,2.131c-0.102,0.587-0.593,1.359-1.278,1.916C-17.742,427.938-18.434,428.116-18.762,427.602z"/>
		<path fill="#716650" d="M-20.893,426.535c0.123-0.373-0.257-1.253,0.213-1.278c-0.063,0.561,0.827,0.167,0.639,0.854
			c-0.573,0.421-0.465,1.521-0.853,2.129C-21.104,427.406-20.422,427.004-20.893,426.535z"/>
		<path fill="#716650" d="M5.524,424.832c-0.438,0.201-0.18,1.097-0.852,1.064c-0.04-0.181,0.083-0.202,0.213-0.214
			c-0.034-0.25-0.388-0.18-0.639-0.212C4.195,424.753,5.037,424.369,5.524,424.832z"/>
		<path fill="#716650" d="M17.029,426.535c0.373,0.266-0.545,0.874,0,1.492C15.836,427.994,16.903,427.07,17.029,426.535z"/>
		<path fill="#716650" d="M-18.762,429.943c-0.585-0.621-1.604-0.809-1.917-1.704C-19.953,428.722-19.046,429.021-18.762,429.943z"
			/>
		<path fill="#716650" d="M16.815,439.105c0.501,0.006,0.627-0.368,1.278-0.215c-0.056-0.692,0.252-1.024,0.852-1.063
			c-0.333,0.681-0.686,1.673-1.491,1.277c-0.048,0.402,0.24,0.47,0.214,0.852c-0.215,0.001-0.254-0.173-0.427-0.214
			c-0.012-0.224-0.274-0.166-0.213,0.214C16.739,439.893,16.852,439.424,16.815,439.105z"/>
		<path fill="#716650" d="M1.264,440.17c0.483-1.508-1.303-2.72,0.213-1.704c0,0.07,0,0.143,0,0.213
			c0.025,0.938,0.294,0.873,0,1.491C1.405,440.17,1.334,440.17,1.264,440.17z"/>
		<path fill="#716650" d="M-1.08,442.302c0.605,0.036-0.257-1.395,0.64-1.065c0.155,0.483-0.384,1.661,0.425,1.49
			c0.102-0.592-0.739-1.441,0.426-1.278c-0.123,0.13-0.498,1.012,0,1.066c0.214-0.658,0.202,0.611,0.639,0.425
			c0,0.142,0,0.285,0,0.428c-0.292,0.367,0.07,0.952-0.639,1.278c0.089,0.832,0.884,0.962,1.066,1.702
			c-0.045,0.239-0.237,0.332-0.427,0.427c0.03-0.786-0.484-1.667-0.851-0.853c0.369-1.056-0.5-1.846,0.212-2.982
			c-1.431,1.322,0.111,4.71-1.065,6.391c0.356-0.418-0.111,1.629-0.426,1.919c0.368,0.083,0.547-0.317,0.64,0
			c-0.446,0.48-0.954,1.828-0.213,1.703c-0.335,0.019-0.167,0.544-0.639,0.426c-0.189-0.093-0.381-0.186-0.426-0.426
			C-1.469,448.945-0.863,445.859-1.08,442.302z"/>
		<path fill="#716650" d="M6.164,442.088c0.189-0.165,0.481-0.229,0.852-0.214c0.099,0.683,0.812,0.751,0.852,1.492
			c-0.19,0.165-0.481,0.227-0.852,0.213c0.35-0.425,0.596-0.747,0-1.064c0-0.072,0-0.144,0-0.213
			c-0.651-0.156-0.626,0.365-1.278,0.213c-0.7,0.153-0.326-0.424,0-0.427C5.879,442.088,6.021,442.088,6.164,442.088z"/>
		<path fill="#716650" d="M5.312,434.845c0.144-0.047-0.118,1.285-0.639,1.278c0-0.426,0-0.853,0-1.278
			c-0.5,0.067-0.477,0.658-0.853,0.853c0.006,0.207,0.261,0.165,0.426,0.212c-0.367,0.999-0.792-0.103-1.491,0
			c0.457-0.607,1.211-0.92,1.704-1.491c0.573-0.146,0.412,0.439,0.64,0.639C5.279,435.097,5.3,434.975,5.312,434.845z"/>
		<path fill="#716650" d="M4.885,453.166C5.137,454.912,3.306,455.7,3.82,457c0.255-0.298,0.083-0.019,0,0.213
			c-0.189-0.165-0.481-0.229-0.852-0.213c-1.141-0.216-1.998-0.906-1.918-2.344C1,454.89,0.7,455.168,0.624,454.87
			c-0.027-0.382,0.262-0.449,0.214-0.854c0.71-0.001,0.563,0.856,1.064,1.066c0.003-0.778,1.263-2.097,0-1.704
			c0.577,0.192-0.18,0.784-0.426,0.852c0.1-1.885,1.959-2.917,2.343-3.835c0.462,0.518,1.094-0.599,1.704-0.64
			c-0.001,0.216,0.173,0.255,0.213,0.427c-0.306,0.281-0.537,0.976-1.065,0.426c-0.192,0.625-0.192,0.655,0,1.277
			c-0.721-0.272-1.127,0.836-0.639,1.066c0.029-0.397,0.139-0.712,0.425-0.852C4.55,452.506,5.068,452.485,4.885,453.166z
			 M2.329,452.952c0.533-0.28,0.517,0.993,0.852,0.214c-0.315-0.04-0.195-0.517-0.212-0.853c0.26-0.024,0.505-0.063,0.426-0.428
			C2.668,451.872,2.6,452.514,2.329,452.952z"/>
		<path fill="#716650" d="M2.329,439.957c-0.113-0.171-0.222-0.348-0.213-0.638c0.189-0.095,0.382-0.188,0.426-0.429
			c0.2-0.119,0.323-0.592,0.427-0.212c0.025,0.613-0.117,1.395,0.212,1.705C2.989,440.96,2.705,439.896,2.329,439.957z"/>
		<path fill="#716650" d="M-4.275,438.679c0.875,0.016,1.911-0.919,2.557-0.425c-0.251,0.031-0.605-0.038-0.639,0.212
			c-1.691,0.297-2.269,1.708-3.196,2.771C-5.321,440.189-4.65,439.582-4.275,438.679z"/>
		<path fill="#716650" d="M-1.932,443.58c0,0.069,0,0.142,0,0.211c-0.602,0.178-0.552-0.3-1.065-0.211
			c-0.318,0.496,0.072,0.916-0.214,1.065c-0.607-0.53,0.307-1.326,0.214-1.492C-2.591,443.243-2.461,443.611-1.932,443.58z"/>
		<path fill="#716650" d="M-3.636,446.348c-0.071,0-0.142,0-0.213,0c-0.367,0.423-1.124,1.563-1.491,1.277
			c0.299-0.695,1.275-0.712,1.278-1.703c-0.519-0.19-1.096,0.949-1.065,0c-0.981-0.129-0.601,1.104-1.278,1.277
			c-0.061-0.388,0.682-1.363,0.212-0.852c-0.623,0.514-0.884,1.39-1.065,2.344c0.78,0.128,0.99-1.408,1.705-0.64
			c-0.627,0.51-1.675,0.598-1.705,1.704c0.474,0.166,1.155,0.124,1.278,0.64c-0.29,1.333,0.57,1.643-0.639,2.771
			c-0.336,0.02-0.167,0.543-0.639,0.426c0.253-1.004-0.199-1.569,0.853-1.918c0.126-0.68-0.4-0.659,0-1.065
			c-0.929-0.351-1.778-0.778-2.983-0.853c0.006,0.209,0.26,0.166,0.427,0.215c-0.362,0.205-0.548,0.587-0.427,1.278
			c0.36-1.448,1.032,0.781,0,0.852c-0.271-1.274-0.378-2.881,0.639-3.409c0.209,0.287,0.568,0.426,0.852,0.639
			c0.18-0.17-0.014-0.876,0.426-1.278c-0.345-0.665-0.265,0.848-1.065,0.427c0.035-0.247-0.047-0.379-0.213-0.427
			c0.193-0.375,0.477-0.659,0.852-0.853c0.088,0.269,0.276,0.437,0.639,0.426c0.7-1.406,1.252-2.105,2.13-2.981
			c-0.557,0.06-0.916-0.077-0.852-0.64c1.626-0.134,1.574,1.41,2.344,2.131C-3.636,446.206-3.636,446.278-3.636,446.348z"/>
		<path fill="#716650" d="M-8.11,446.135c0.214,0,0.254,0.173,0.427,0.213c0.24-0.326,0.612-0.524,0.852-0.853
			c-0.476-0.153-0.103-1.214,0.427-1.064c-0.715,0.756,0.102,2.206-1.705,2.13C-8.11,446.419-8.11,446.278-8.11,446.135z"/>
		<path fill="#716650" d="M19.159,442.939c0.22-0.501,0.269,1.738-0.426,2.13C17.662,444.536,19.386,443.953,19.159,442.939z"/>
		<path fill="#716650" d="M17.669,444.432c0-0.215,0-0.428,0-0.641c0.893,0.267,0.485-0.32,0.212-0.638c0.284,0,0.568,0,0.853,0
			C18.401,443.602,18.352,444.334,17.669,444.432z"/>
		<path fill="#716650" d="M3.395,442.939c-0.064-0.131-0.531-0.82,0-0.852c0.212,0.283,0.351,0.642,0.639,0.852
			c-0.027,0.383,0.26,0.449,0.212,0.852c-0.685,0.188-0.292-0.703-0.852-0.638C3.395,443.081,3.395,443.011,3.395,442.939z"/>
		<path fill="#716650" d="M-0.228,449.33c0.771-0.791,1.224-1.9,2.13-2.556c-0.364,0.531-0.744,1.046-0.426,1.704
			c-0.492-0.384-1.083,0.495-1.492,0.852C-0.085,449.33-0.156,449.33-0.228,449.33z"/>
		<path fill="#716650" d="M15.963,446.135c0.294-0.131,0.032-0.819,0.426-0.853c0,0.143,0,0.285,0,0.428
			c0.063,0.751,0.576-0.752,0.639,0c-0.119,0.308-0.333,0.52-0.639,0.638C16.401,445.949,16.226,445.896,15.963,446.135z"/>
		<path fill="#716650" d="M3.82,447.414c0.55,0.503,0.733,1.108,0.213,1.703c-0.448,0.517,0.485-1.291-0.853-0.852
			C3.244,447.831,3.757,447.848,3.82,447.414z"/>
		<path fill="#716650" d="M13.62,460.622c0.059-0.39,0.767-1.194,0.214-1.492c-0.19,0.885-1.075,1.055-1.705,1.066
			c-0.066-0.491,0.615-0.237,0.639-0.641c-0.62-0.184-0.24-0.317-0.213-0.851c-1.768-0.027-1.123-2.19-0.64-2.771
			c-1.262-0.443,0.185-1.241-0.426-1.918c-0.22,0.676-0.706,1.084-0.639,1.493c0.065-0.666-0.616,0.54-0.639-0.215
			c0.772-0.545,0.048-1.414,0.426-2.129c-0.739-0.029-0.342,1.078-1.065,1.064c0.073-0.896-0.492-1.146,0-1.917
			c0.02,0.333-0.029,0.738,0.427,0.639c0.369-0.438,0.298-0.957,1.064-0.426c0.281-0.533-0.843-0.666-0.213-0.853
			c0.732,1.002,1.708,0.655,2.557,1.278c-1.02-0.024-2.003-0.014-2.557,0.426c1.173,0.389,3.118,0.008,3.622,1.065
			c0.146,0.855-0.204,1.217-0.214,1.918c-0.171-0.111-0.345-0.224-0.639-0.213c0.375,0.591,0.156,0.602,0.427,1.063
			c-0.032,0.395-0.722,0.132-0.852,0.428c0.466,0.442-0.188,0.688,0.212,1.065c0.582,0.155,0.429-0.425,0.852-0.428
			C14.273,459.286,14.293,460.302,13.62,460.622z M12.768,457.213c0.322-0.854,1.284-1.718,0.426-2.557
			C13.344,455.698,11.801,456.699,12.768,457.213z"/>
		<path fill="#716650" d="M15.111,466.588c-0.417,0.749-1.069,0.155-1.917,0.212c0.112-0.172,0.221-0.346,0.213-0.64
			c-0.84,0.026-0.651,0.927-1.492,0.428c0.688-0.407,0.752-0.485,1.704-0.853c-0.136,0.774,0.441,0.836,1.065,0.853
			c0.105-0.675-1.057-0.08-0.852-0.853c0.824-0.092,0.756-0.234,1.278,0.212C14.964,466.119,14.78,466.532,15.111,466.588z"/>
		<path fill="#716650" d="M-6.405,457.641c-0.632-0.31,0.279-0.833,0-1.492C-5.543,456.558-6.528,457.148-6.405,457.641z"/>
		<path fill="#716650" d="M-3.636,460.835c-0.521-0.27-1.183-0.855-0.426-1.279c0.307,0.122,0.52,0.333,0.639,0.642
			C-3.672,460.23-3.654,460.532-3.636,460.835z"/>
		<path fill="#716650" d="M-9.175,462.113c-0.372,0.395-0.82-0.055-0.426-0.427c-0.284,0-0.568,0-0.853,0
			c-0.127,0.381,0.625,0.886,0,1.065c-0.524-0.391-0.768-0.531-0.212-1.065c-0.284,0-0.568,0-0.853,0
			c-0.043,0.896,0.81,0.896,0.853,1.705c-0.392-0.578-1.688-0.487-1.065-1.491c-0.765,0.598-1.21,0.197-1.917,0.853
			c0.532-0.15,0.876-0.21,1.278,0.212c0.061,0.346-0.201,0.367-0.213,0.64c0.396,0.172,0.861,0.276,1.065,0.64
			c-0.462,0.653-1.199-0.205-1.917,0c-0.249-0.604-0.892-0.813-0.639-1.918c0-0.071,0-0.142,0-0.213c0.28-0.256,0.335-0.083,0.639,0
			c0.285-0.212,0.418-0.575,0.852-0.639c0.355,0,0.71,0,1.065,0c0.458-0.537,0.801-1.188,1.279-1.704c0,0.071,0,0.141,0,0.213
			c1.034-0.452,1.125,0.614,0.639,1.279c0.269,0.318,1.13,0.38,0.639,0.851C-9.034,462.113-9.104,462.113-9.175,462.113z"/>
		<path fill="#716650" d="M-5.554,462.538c0.28,0.275,0.785,0.275,1.065,0c-0.15,0.56-1,0.423-1.277,0.854
			c-0.248-0.314-0.248-0.536,0-0.854C-5.695,462.538-5.625,462.538-5.554,462.538z"/>
		<path fill="#716650" d="M8.933,462.538c0.522,0.68-0.188,1.548-0.426,2.131c0.367,0.842,1.55,0.865,1.917,1.705
			c-0.771-0.791-2.345-0.78-2.13-2.558C8.589,463.475,8.474,462.72,8.933,462.538z"/>
		<path fill="#716650" d="M6.59,418.44c0.165,0.049,0.42,0.006,0.426,0.213c-0.213,0-0.426,0-0.64,0
			c-0.237,0.401-0.299,0.979-0.852,1.065c-0.126-0.682,0.4-0.659,0-1.065c0.272,0.012,0.295,0.273,0.64,0.212
			C6.188,418.605,6.227,418.361,6.59,418.44z"/>
		<path fill="#716650" d="M12.555,423.553c0.146,0.709-0.441,0.344-0.64,0.214C11.344,422.992,12.217,423.107,12.555,423.553z"/>
		<path fill="#716650" d="M7.442,446.348c-0.145,1.419-0.671,2.454-1.278,3.408c-0.55-1.067,1.49-2.932-0.213-3.195
			c0.3-0.481,1.387-0.174,1.278-1.064c0.065-0.49-0.617-0.236-0.64-0.639c0.707,0.327,0.805-1.009,1.278-0.212
			C7.625,445.11,7.318,445.515,7.442,446.348z"/>
	</g>
	<g>
		<path fill="#B1B4AF" d="M0.838,418.013c-0.484-2.686,1.648-5.198,5.752-4.897c0.064,0.869-0.446,0.112-0.853,0.212
			c0.295,0.343,0.754,0.524,0.639,1.277c-0.438-0.056-0.2-0.794-0.639-0.852c-0.571,0.518,0.486,1.206,0.427,1.916
			c-0.232-0.053-0.146-0.422-0.427-0.424c-0.142,0-0.284,0-0.426,0c0.034-0.249-0.047-0.381-0.213-0.426
			c-0.414,0.934-0.963,1.733-1.278,2.768c-0.298-0.657-0.928-2.415-0.213-2.768c-0.344-0.666-0.674,0.437-1.065,0.426
			c0.62,0.232,0.437,1.268,0.853,1.703c-0.717,0.634-1.576-0.402-2.344-0.425C0.574,416.614,0.964,417.572,0.838,418.013z
			 M4.458,415.031c0.541-0.284,0.135-1.393-0.639-1.064C3.778,414.576,3.793,415.129,4.458,415.031z M1.689,416.523
			c0.221-0.119,0.845-0.209,1.066-0.854C2.407,415.837,1.109,416.133,1.689,416.523z"/>
		<path fill="#B1B4AF" d="M-0.228,419.719c0.208-0.652,0.718,0.094,0.852,0.213c0.583-0.193-0.377-0.747,0.214-1.066
			c-0.314,0.657,0.901,0.334,0.851,1.278c-0.448-0.467-0.947-0.043-1.278,0.215C0.184,420.158,0.345,419.572-0.228,419.719z"/>
		<path fill="#B1B4AF" d="M-10.24,459.344c0,0.071,0,0.144,0,0.212c0,0.072,0,0.143,0,0.214c-0.478,0.516-0.82,1.168-1.279,1.705
			c-0.355,0-0.71,0-1.065,0c0.066-0.29,0.534-0.178,0.853-0.213C-10.935,460.923-10.905,459.814-10.24,459.344z"/>
		<path fill="#B1B4AF" d="M-3.636,460.835c-0.018-0.303-0.036-0.604,0.213-0.639c0,0.117,0.172,0.24,0.212,0
			c0.3,0.243-0.44,1.25-0.639,1.704C-4.025,461.298-3.549,461.348-3.636,460.835z"/>
		<path fill="#B1B4AF" d="M8.294,463.816c-0.215,1.777,1.359,1.767,2.13,2.558c0.252,0.103,0.483,0.228,0.639,0.426
			c-1.351-0.626-3.301-1.346-2.982-2.983C8.152,463.816,8.223,463.816,8.294,463.816z"/>
		<path fill="#B1B4AF" d="M13.62,463.604c0.865,0.343,1.123,1.293,1.705,1.917c-0.813-0.325-0.958-1.315-1.705-1.705
			C13.62,463.747,13.62,463.676,13.62,463.604z"/>
		<path fill="#B1B4AF" d="M1.477,418.227c-0.433-0.155-0.61-0.9-0.213-1.278c1.113,0.521,1.921,0.471,2.982,1.493
			c-0.035,0.246-0.336,0.23-0.639,0.212c0.667,0.251,0.422,1.164,0,1.49c0.554,0.128,0.767-0.086,0.639-0.639
			c0.985,0.863,1.916,2.164,0.853,3.409c-0.269-0.289-1.125-0.409-0.853,0.426c-0.418,0.063-0.422-0.287-0.639-0.426
			c-0.474,0.088-0.205,1.168,0.213,1.065c-0.024,0.521-0.705,0.046-0.639-0.213c0-0.071,0-0.143,0-0.214
			c-0.363-0.773-0.679-1.593-0.852-2.557c-0.78-0.156-1.184,0.524-1.705,0c0.252-0.386,1.111-0.167,1.492-0.426
			c0.38,0.401,0.576,0.987,1.065,1.278c0,0.213,0,0.427,0,0.64c0.278-0.433,0.912-0.509,1.278-0.852
			c0.199-0.157,0.323-0.39,0.427-0.64c-0.381-0.436-0.787-0.061-0.427-0.854c-0.284,0.215-0.643,0.352-0.852,0.64
			c0,0.071,0,0.143,0,0.214c-0.69-0.101-1.924-0.763-1.279-1.492c0.293,0.011,0.468-0.1,0.64-0.213
			c0.199-0.156,0.321-0.388,0.426-0.639c-0.123-0.258-0.805,0.14-1.279-0.212c0-0.073,0-0.143,0-0.215
			c0.519,0.138,1.096,0.432,1.065-0.426c-0.928-0.391-1.372-0.09-1.917-0.638c-0.183,0.678,0.335,0.658,0.426,1.063
			C1.618,418.227,1.548,418.227,1.477,418.227z"/>
		<path fill="#B1B4AF" d="M5.524,417.801c0-0.07,0-0.143,0-0.214c0.142,0,0.284,0,0.426,0c1.616-0.196,2.499,0.342,2.77,1.492
			c-0.316,0.248-0.537,0.248-0.853,0c-0.315-0.111-0.537-0.315-0.852-0.426c-0.006-0.207-0.261-0.164-0.426-0.212
			c-0.255-0.282-0.083-0.337,0-0.641C6.234,417.801,5.879,417.801,5.524,417.801z"/>
		<path fill="#B1B4AF" d="M6.803,419.719c0.283,0,0.568,0,0.852,0c0.037,0.533-0.328,0.667-0.639,0.852
			c-0.28-1.278-0.333,1.053-1.278,0c0-0.213,0.173-0.255,0.214-0.427c0.213,0,0.425,0,0.639,0
			C6.637,419.979,6.596,419.725,6.803,419.719z"/>
		<path fill="#B1B4AF" d="M2.329,422.062c0.12,0.751-1.683,0.257-1.491-0.425C1.441,421.671,1.726,422.026,2.329,422.062z"/>
		<path fill="#B1B4AF" d="M0.838,422.701c0.41-0.294,2.48,0.17,1.704,1.065C1.6,423.783,0.731,423.729,0.838,422.701z"/>
		<path fill="#B1B4AF" d="M-9.601,464.031c0.639,0,1.278,0,1.917,0c-0.646,0.491-2.198,0.074-3.196,0.212
			C-10.853,463.773-9.976,464.152-9.601,464.031z"/>
		<path fill="#B1B4AF" d="M5.951,422.701c0.07,0,0.141,0,0.213,0c-0.083-0.859,0.396-0.947-0.213-1.278
			c0.435-0.062,0.417-0.577,0.852-0.64c0.464,0.445-0.106,0.607,0,1.278c0.293-0.01,0.467,0.1,0.639,0.214
			c0.048,0.4-0.24,0.469-0.212,0.851c-0.142,0.558-1.228,0.486-1.278-0.212C5.951,422.843,5.951,422.771,5.951,422.701z"/>
		<path fill="#B1B4AF" d="M-14.075,462.326c-0.253,1.105,0.391,1.313,0.639,1.917C-14.028,464.115-14.707,462.971-14.075,462.326z"
			/>
	</g>
	<g>
		<path fill="#FFFFFF" d="M2.755,415.669c-0.221,0.646-0.845,0.735-1.066,0.854C1.109,416.133,2.407,415.837,2.755,415.669z"/>
		<path fill="#FFFFFF" d="M1.689,418.227c-0.091-0.405-0.608-0.386-0.426-1.064c0.545,0.549,0.988,0.248,1.917,0.639
			c0.031,0.856-0.546,0.563-1.064,0.426C1.974,418.227,1.832,418.227,1.689,418.227z"/>
		<path fill="#FFFFFF" d="M5.524,418.227c0-0.142,0-0.284,0-0.426c0.355,0,0.709,0,1.065,0c-0.083,0.304-0.255,0.358,0,0.641
			c-0.363-0.08-0.402,0.164-0.426,0.424c-0.345,0.062-0.368-0.2-0.64-0.212C5.524,418.511,5.524,418.368,5.524,418.227z"/>
	</g>
</g>
</svg>
