<?xml version="1.0" encoding="utf-8"?>
<!-- Generator: Adobe Illustrator 15.0.2, SVG Export Plug-In . SVG Version: 6.00 Build 0)  -->
<!DOCTYPE svg PUBLIC "-//W3C//DTD SVG 1.1//EN" "http://www.w3.org/Graphics/SVG/1.1/DTD/svg11.dtd">
<svg version="1.1" id="Layer_1" xmlns="http://www.w3.org/2000/svg" xmlns:xlink="http://www.w3.org/1999/xlink" x="0px" y="0px"
	 width="360px" height="440px" viewBox="0 0 360 440" enable-background="new 0 0 360 440" xml:space="preserve">
<g id="Layer_1_1_" display="none">
</g>
<g>
	<path fill-rule="evenodd" clip-rule="evenodd" fill="#90934A" d="M255.908,67.141c-14.793-7.538-28.201-16.46-40.996-25.997
		c3.199-1.8,0.244-9.755,4-10.999c8.393,10.605,15.584,22.411,30.996,25.997c0.334,0,0.666,0,1,0
		c13.191,7.806,27.746,14.249,39.994,22.997c0.334,0,0.668,0,1,0c6.797,6.203,13.49,12.507,18.998,19.998
		c3.238,5.76,6.428,11.571,7,19.998c1.893,7.003,0.893,16.774,0,23.997c0,0.333,0,0.667,0,1c-3.9,5.119,1.225,13.244,0,15.998
		c8.389,14.533,5.094,15.998-9,15.998c-6.717-1.616-3.809-12.854-6.998-17.998c13.227-20.347,10.242-59.181-10-69.991
		c-0.332,0-0.666,0-1,0c-8.486-9.844-21.4-15.261-33.994-20.998C256.574,67.141,256.24,67.141,255.908,67.141z"/>
	<path fill-rule="evenodd" clip-rule="evenodd" fill="#90934A" d="M204.914,129.133c0.334,0,0.666,0,1,0
		c7.797,2.535,11.934,8.731,15.998,14.998c9.361,2.862,18.936,3.597,28.996,1c-1.416,2.578,0.679,4.202,1,4
		c17.748,1.916,35.072,4.255,37.996,20.998c-4.824,2.827-9.529,5.435-22.998,2c-4.303-2.696-12.602-1.396-15.998-5
		c-19.793,4.306-26.783,3.105-38.994,2c-4.406,6.593-10.279,11.719-15,17.998c-2.262,2.354-9.827-1-9.998,15.998
		c0,6-72.945,23.186-75.99,23.998c13.034-10.17,21.51-27.814,17.997-48.994c3.039-6.436-5.829-6.567-6.999-6.999
		c-3.631-1.34-6.509-6.839-11.998-9.999c-1.262-0.727-3.694,0.659-5,0c-1.815-0.916-3.131-3.108-4.999-4
		c-14.989-7.151-33.161-15.386-31.996-24.997c0.721-5.949,9.362-5.661,8.999-11.999c16.613,2.051,26.709,10.619,44.994,10.999
		c6.383-3.283,6.467-12.864,12.998-15.998c1.871-14.793,2.43-30.899,5-44.994c1.16-0.839,2.681-1.319,4.999-1
		c2.509,10.489-0.733,26.73,5.999,32.996c4.752-6.914,6.643-16.688,15.998-18.998c0.261-2.927-2.26-3.072-1.999-5.999
		c5.269-5.71,13.14-7.978,15.999,0c0,0.333,0,0.667,0,1c1.518,3.147,2.982,6.349,3.998,9.999c4.191,1.19,1.785-4.214,4-5
		c6.057,4.556,12.586,6.978,11.998,19.998c-4.231,5-10.998,24.997-5.998,26.997c2.5,2.374,6.573,2.101,8.998,0
		C204.523,130.076,205.098,129.983,204.914,129.133z"/>
	<path fill-rule="evenodd" clip-rule="evenodd" fill="#90934A" d="M316.9,184.126c3.625,8.04,5.586,17.744,5.998,28.997
		c0.279,10.467,0.281,24.212-4.998,25.997c1.129,1.204,2.854,1.813,2,4.999c-8.418,24.681-41.828,36.028-50.994,57.993
		c-2.18,5.224-0.404,11.856-5,16.998c6.713,5.951,13.477,11.854,16.998,20.997c-8.441-1.557-15.473-4.525-20.998-8.999
		c1.293-2.708,4.445-3.555,4-7.999c-7.299-23.129,12.898-32.938,20.998-46.994c0.334,0,0.666,0,1,0
		c6.197-4.468,9.561-11.77,14.998-16.998c2.332-5.332,7.205-8.126,8.998-13.998c11.105-17.566,0.996-46.138-3-63.992
		C311.666,180.694,315.412,181.282,316.9,184.126z"/>
	<path fill-rule="evenodd" clip-rule="evenodd" fill="#90934A" d="M186.916,207.123c0,0.667,0,1.333,0,2
		c-3.287,0.712-4.205,3.793-5.998,5.999c-3.287-2.046-10.126-0.54-15-1C168.556,207.427,181.492,211.031,186.916,207.123z"/>
	<path fill-rule="evenodd" clip-rule="evenodd" fill="#90934A" d="M144.921,352.105c3.024,3.226,4.454-106.987,5.999-110.986
		c2-17.188,34.683-26.311,35.996-28.997c-1.445,3.096,0.164,3.883,2,6c0.68,4.605,0.061,12.291-1,17.998
		c-0.43,1.903,0.174,3.173,3,3.999c1.377,1.289,0.99,4.343,1,6.999c6.656,18.008,12.438,36.89,11.998,61.992
		c5.371,7.628,11.924,14.074,14.998,23.997c0,0.333,0,0.667,0,1c3.348,7.036,5.699,16.144,0,21.997
		c4.881,5.451,3.662,17.003,10.998,19.998c0,0.333,0,0.666,0,0.999c7.338,6.237,25.676,28.227,0,27.997
		c-8.863-1.135-16.576-3.421-17.996-11.999c-2.83-6.836-9.781-9.55-13-15.998c0-0.666,0-1.333,0-1.999
		c2.83-3.221-1.189-8.099-2-10.999c0-0.667,0-1.333,0-2c0.627-3.938-10.521-1.416-12.998-6.999c-3.981,0.352-6.49,2.176-9.999,3
		C167.014,347.889,154.212,355.32,144.921,352.105z"/>
	<path fill-rule="evenodd" clip-rule="evenodd" fill="#90934A" d="M143.922,352.105c-3.583-0.478-5.778-1.627-9,0
		c-0.333,0-0.666,0-1,0c-3.09-1.801-9.28-3.472-13.998-2c-6.92,1.254-5.918-5.413-10.998-5.999c-3.438,0.229-4.357,2.976-5,5.999
		c-3.696-1.482-9.336,1.209-11.998-3c1.455-2.876,2.793-5.898,0-7.999c-5.126,1.207-5.678,6.988-11.998,6.999
		c-0.42,4.087,3.291,4.042,1.999,8.999c-0.333,0-0.667,0-0.999,0c1.525-5.525-4.438-3.561-4-7.999
		c4.386-3.612,8.927-7.071,14.998-8.999c1.439,0.561,12.965,8.968,13.998,5c9.577,1.461,18.223,10.496,25.997,3.999
		C134.239,353.77,139.598,346.508,143.922,352.105z"/>
	<path fill-rule="evenodd" clip-rule="evenodd" fill="#90934A" d="M103.926,237.119c2.127-2.205,4.127-4.538,6-6.999
		c20.199-17.998,21.449-29.37,22.199-34.37c14.125,13.625,54.962,8,18,41.369c-1.475,10.583-15.202,84.131-43.625,95.988
		c-13.606,1.695-45.727-1.769-43.568,5.999c-2.73,4.602-7.591,7.074-9.999,11.999c0.818-3.182,0.638-7.361,2-9.999
		c2.715-0.716-0.715,4.715,2,4c1.317-2.721,6.554-6.727,3-10.999c0-0.333,0-0.667,0-1c-0.294-2.039-2.706-1.961-3-3.999
		c4.196-19.801,14.638-33.356,22.998-48.994c-0.421-7.086,3.369-9.962,4.999-14.998c4.931-5.735,9.628-11.703,12.998-18.998
		c-0.044-3.044,2.111-3.888,3-5.999C102.354,239.88,102.476,239.155,103.926,237.119z"/>
	<path fill-rule="evenodd" clip-rule="evenodd" fill="#90934A" d="M40.935,385.101c2.077-6.231,13.987-24.528,18.19-25.726
		c5.914-1.684,3.16,16.314-6.192,25.726C51.208,386.759,42.659,386.759,40.935,385.101z"/>
	<path fill-rule="evenodd" clip-rule="evenodd" fill="#90934A" d="M135.922,33.145c1.334,0,2.666,0,4,0
		c15.245-0.979,8.999,8.188-1,5.999C136.831,38.236,135.874,36.193,135.922,33.145z"/>
</g>
<g>
	<path fill-rule="evenodd" clip-rule="evenodd" fill="#3D4726" d="M228.91,47.143c2.059,1.275,5.072,1.595,5,5
		C232.43,50.291,228.742,50.645,228.91,47.143z"/>
	<path fill-rule="evenodd" clip-rule="evenodd" fill="#3D4726" d="M316.9,126.133c-4.711-1.623-4.07-8.594-4-14.998
		c-1.172,0.162-0.844,1.823-1,3c-11.705-34.331-46.43-43.725-74.99-58.993c1.535-4.055,8.861-0.562,8.998,3c2,0,4,0,6,0
		C275.039,73,315.617,83.24,316.9,126.133z"/>
	<path fill-rule="evenodd" clip-rule="evenodd" fill="#3D4726" d="M180.918,82.139c-5.373-3.167-14.445,3.51-14-4.999
		c3.486,1.563,8.173-0.059,9.999-3C179.139,75.917,180.455,78.602,180.918,82.139z"/>
	<path fill-rule="evenodd" clip-rule="evenodd" fill="#3D4726" d="M185.916,90.138c2.553,3.483,8.459,12.357,9,17.998c-2,0-4,0-6,0
		c4.982-5.137-0.742-10.185-4-12.999C184.09,92.311,186.326,92.547,185.916,90.138z"/>
	<path fill-rule="evenodd" clip-rule="evenodd" fill="#3D4726" d="M175.917,93.138c0.81,0.19,0.997,1.003,2,1c0,0.667,0,1.333,0,2
		c-2.409-0.41-2.174,1.826-4.999,1C173.212,95.098,175.624,95.176,175.917,93.138z"/>
	<path fill-rule="evenodd" clip-rule="evenodd" fill="#3D4726" d="M156.92,94.137c1.532,3.467,5.386,4.612,4.999,9.999
		c-2.956-1.044-2.937-5.062-7.999-4C153.048,96.265,158.286,98.503,156.92,94.137z"/>
	<path fill-rule="evenodd" clip-rule="evenodd" fill="#3D4726" d="M182.916,101.137c4.006,1.086,1.299,7.206-2.999,5.999
		C179.933,104.152,182.518,103.736,182.916,101.137z"/>
	<path fill-rule="evenodd" clip-rule="evenodd" fill="#3D4726" d="M136.922,105.136c2.28,1.387,0.373,6.96,1,9.999
		C133.903,114.032,136.865,108.168,136.922,105.136z"/>
	<path fill-rule="evenodd" clip-rule="evenodd" fill="#3D4726" d="M97.927,132.133c-3.741,0.392-5.682-4.023-7.999-2
		c2.688,8.979,11.996,11.334,16.998,17.998c-3.914,0.989-5.806-2.209-7.999,0c-0.872,3.872,4.366,1.633,2.999,5.999
		c-6.211-4.129-17.416-3.112-19.997-12.999c-2.825-0.826-2.59,1.409-4.999,1c-1.09-5.576-10.019-3.313-7.999-11.999
		c1.162,0.163,1.779-0.221,2-1c5.152,0.181,3.511,7.154,8,7.999c0.81-0.19,0.996-1.003,2-1c-0.68-3.733-7.494-5.265-5-8.999
		c8.25,5.082,12.406,14.257,18.998,20.998c4.179-6.563-11.017-10.035-9.999-19.998c-3.255-1.745-8.69-1.308-7.999-6.999
		C82.427,125.738,101.125,122.131,97.927,132.133z"/>
	<path fill-rule="evenodd" clip-rule="evenodd" fill="#3D4726" d="M306.9,174.127c1.205-7.537-2.957-9.707-3.998-14.999
		c0.602-3.729,3.76-4.905,3.998-8.999c2.186,1.642,6.361,3.187,6-2c-0.676-1.989-3.322,0.988-4-1c-0.965-5.562,6.123-0.801,6-5
		c0.553,5.389,0.885,17.763-8,14.998c-1.168,4.101,6.953,4.017,7,1C315.941,163.857,310.221,170.432,306.9,174.127z"/>
	<path fill-rule="evenodd" clip-rule="evenodd" fill="#3D4726" d="M138.922,156.13c1.063-3.729-3.75-1.583-3-5
		c2.091,2.179,2.854-0.5,6,0c3.652,3.73-0.17,7.379,0,12.998c2.672,4.328,12.929,1.069,15.998,5c4.204,0.205,4.199-3.8,7.998-4
		c-2.408,5.604-11.299,11.945-16.998,7.999c-2.801,0.982,1.453,2.667-0.999,4c-3.124,0.458-3.196-2.136-3-5
		c-4.562,2.656-8.356,0.146-13.998,2c0.581-5.342,11.173-7.032,5.999-11.999c-2.111,0.888-2.955,3.044-5.999,3
		c-3.442-6.606-11.819,2.276-12.999-6.999c-3.721,3.916-8.667,1.858-13.998,0c4.128-2.538,2.51-10.823,8-11.999
		C118.522,151.866,132.298,150.422,138.922,156.13z"/>
	<path fill-rule="evenodd" clip-rule="evenodd" fill="#3D4726" d="M253.908,150.13c0.732,0.934,1.818,1.515,3,2
		c-3.645,11.982-15.891,16.429-29.996,12.999C239.83,164.05,244.324,154.546,253.908,150.13z"/>
	<path fill-rule="evenodd" clip-rule="evenodd" fill="#3D4726" d="M122.924,163.129c1.496,1.17,4.09,1.243,5,3
		c0.697,3.698-1.582,4.417-5,4C122.924,167.795,122.924,165.462,122.924,163.129z"/>
	<path fill-rule="evenodd" clip-rule="evenodd" fill="#3D4726" d="M276.904,164.128c1.973,0.789,3.596,3.497,2,5c-1,0-2,0-3,0
		C275.586,166.809,276.066,165.289,276.904,164.128z"/>
	<path fill-rule="evenodd" clip-rule="evenodd" fill="#3D4726" d="M164.919,173.127c-0.903,1.763-2.237,3.096-4,4
		c-0.169,2.168,3.547,0.453,4.999,1c-0.229,3.437-2.975,4.357-5.999,4.999c-1.909-2.42,1.09-4.857-0.999-7.999
		C162.069,175.61,161.184,172.059,164.919,173.127z"/>
	<path fill-rule="evenodd" clip-rule="evenodd" fill="#3D4726" d="M144.921,176.127c0,1.667,0,3.333,0,5
		c-1.768-0.898-2.919-2.414-4.999-3C141.208,175.538,141.99,174.985,144.921,176.127z"/>
	<path fill-rule="evenodd" clip-rule="evenodd" fill="#3D4726" d="M134.922,177.127c2.322,0.344,4.686,0.647,4,4
		C136.377,181.004,135.045,179.671,134.922,177.127z"/>
	<path fill-rule="evenodd" clip-rule="evenodd" fill="#3D4726" d="M152.92,178.127c1,0,2,0,3,0c-0.398,4.729,2.117,6.573-1,8.999
		C150.909,185.999,155.657,181.292,152.92,178.127z"/>
	<path fill-rule="evenodd" clip-rule="evenodd" fill="#3D4726" d="M317.9,193.125c-6.328,0.661-3.543-7.789-9-7.999
		c1.232-1.434,3.439-1.895,6-2C316.02,186.34,317.637,189.055,317.9,193.125z"/>
	<path fill-rule="evenodd" clip-rule="evenodd" fill="#3D4726" d="M166.918,184.126c1.008,3.008-2.228,1.772-3.999,2
		c0.244,5.658,5.206,0.654,7.999,3c-1.709,2.29-5.635,2.364-8.999,3c1.069-3.735-2.483-2.85-2-5.999
		C162.142,185.349,163.819,184.025,166.918,184.126z"/>
	<path fill-rule="evenodd" clip-rule="evenodd" fill="#3D4726" d="M183.916,187.126c-3.667,1.332-7.288,2.71-11.998,3
		C172.947,186.45,181.805,186.527,183.916,187.126z"/>
	<path fill-rule="evenodd" clip-rule="evenodd" fill="#3D4726" d="M316.9,194.125c1.623,1.71,3.025,3.639,3,6.999
		c-5.029,0.361-7.52-1.813-8-5.999C314.455,193.409,315.4,196.271,316.9,194.125z"/>
	<path fill-rule="evenodd" clip-rule="evenodd" fill="#3D4726" d="M313.9,204.124c2.836-0.17,1.951,3.381,6,2
		c-0.34,3.101,2.314,4.777,0,7C319.051,208.972,314.844,208.179,313.9,204.124z"/>
	<path fill-rule="evenodd" clip-rule="evenodd" fill="#3D4726" d="M103.926,238.119c0-0.333,0-0.666,0-1
		c2.844,6.625-7.826,16.752-8.998,25.997C90.441,255.175,100.997,245.277,103.926,238.119z"/>
	<path fill-rule="evenodd" clip-rule="evenodd" fill="#3D4726" d="M166.918,257.117c-0.89,0.776-2.258,1.075-3.999,1
		c-1.446-1.528,0.869-6.745-3.999-6.999c0.912-5.42,4.986-7.679,9.998-8.999c-1.494,2.839-4.141,4.524-5.999,6.999
		C163.554,252.482,167.789,252.248,166.918,257.117z"/>
	<path fill-rule="evenodd" clip-rule="evenodd" fill="#3D4726" d="M172.918,243.118c2.355-0.021,2.943,1.723,5.999,1
		c0.856,3.19-1.574,3.093-2,5C175.701,247.002,173.155,246.215,172.918,243.118z"/>
	<path fill-rule="evenodd" clip-rule="evenodd" fill="#3D4726" d="M71.931,295.112c2.253,0.798,3.298,6.704-1,5.999
		C70.208,298.056,71.954,297.468,71.931,295.112z"/>
	<path fill-rule="evenodd" clip-rule="evenodd" fill="#3D4726" d="M68.931,302.111c3.69-0.357,4.179,2.487,4.999,4.999
		c-2.409,0.41-2.173-1.826-4.999-1C68.931,304.777,68.931,303.444,68.931,302.111z"/>
	<path fill-rule="evenodd" clip-rule="evenodd" fill="#3D4726" d="M74.93,306.11c3.975-1.941,9.484,3.157,10.998,7
		c-3.613-3.114-3.219,4.184-7.998,2.999C78.741,312.267,78.706,307.785,74.93,306.11z"/>
	<path fill-rule="evenodd" clip-rule="evenodd" fill="#3D4726" d="M67.931,312.11c2.863-0.197,5.457-0.125,4.999,2.999
		C70.067,315.307,67.474,315.234,67.931,312.11z"/>
	<path fill-rule="evenodd" clip-rule="evenodd" fill="#3D4726" d="M91.928,312.11c1.829,2.874,1.427,12.059,0,14.998
		c-3.869,0.869-3.557-2.442-6-3C91.365,323.545,90.772,316.953,91.928,312.11z"/>
	<path fill-rule="evenodd" clip-rule="evenodd" fill="#3D4726" d="M190.916,315.109c3.869-0.869,3.557,2.442,5.998,3
		C195.504,320.413,190.402,318.034,190.916,315.109z"/>
	<path fill-rule="evenodd" clip-rule="evenodd" fill="#3D4726" d="M278.904,338.106c-4.18,0.848-3.959-2.707-5.998-3.999
		C275.047,331.39,278.871,335.408,278.904,338.106z"/>
	<path fill-rule="evenodd" clip-rule="evenodd" fill="#3D4726" d="M201.914,341.106c1.613-4.053,5.398-5.934,10-6.999
		c-0.047,5.619-2.064,9.268-4,12.998C204.773,346.247,205.691,341.328,201.914,341.106z"/>
	<path fill-rule="evenodd" clip-rule="evenodd" fill="#3D4726" d="M241.91,401.099c-3.188,0.854-3.797-0.871-5-1.999
		c-3.748,0.788-0.063,3.497-2,4.999c-19.881,1.549-22.229-14.434-29.996-24.997c-1.518,3.617-3.928-0.522-4-3.999
		c3.146,1.54,6.145,0.344,7-3c-0.844-3.614-5.156,0.305-6,0c-2.434-2.232-2.805-6.527-4-9.999c2.494-1.839,9.33,0.664,7-5.999
		c2.039,0.294,1.961,2.705,4,3c2.551-1.115-0.402-7.734,2-8.999c7.168,0.829,5.613,10.384,10.998,12.998
		C222.441,381.273,244.742,382.889,241.91,401.099z M220.912,387.101c2.666,0,5.332,0,7.998,0
		c-3.988-5.01-4.943-13.054-11.998-14.998C217.736,377.612,220.229,381.451,220.912,387.101z"/>
	<path fill-rule="evenodd" clip-rule="evenodd" fill="#3D4726" d="M217.912,32.145c3.422-0.422,3.006,2.995,5,4
		C222.537,37.413,217.596,34.874,217.912,32.145z"/>
	<path fill-rule="evenodd" clip-rule="evenodd" fill="#3D4726" d="M194.916,130.133c4.086-0.981,4.041,0.11,8.998,0
		c9.135,1.205,15.445,10.54,16.998,15.998c-2.348-0.319-3.754-1.58-7-1c-2.277,4.004-3.633,9.822-1.998,14.998
		c4.479,0.853,8.588,2.077,10.998,5c-12.574-0.758-25.52-1.143-34.996-5c-1.508-8.506,1.135-9.474,3-15.998
		c-2.148-5.811-14.882-9.567-20.998-4.999c1.556,2.229-3.643,10.577-2,12.998c5.352,0.019,6.12-4.545,11.999-3.999
		c1.874,1.904,0.109,2.512,0,4.999c2.561,1.084,4.766-3.038,5.999,0c-0.965,2.702-2.803,4.529-4.998,5.999
		c-1.394-1.273-0.436-4.897-3-4.999c-2.466,1.905-5.432,0.547-10.999,3c-4.212-0.454-3.701-5.63-6.999-6.999
		c-5.749-0.78-10.063,2.906-10.999-3c3.146,1.54,6.145,0.344,7-3c-3.227-4.354-6.228-1.539-9.999-1
		c-0.224,2.005,4.462,4.048,1,5.999c-2.317-3.015-2.632-8.034-6.999-8.999c-1.973,0.693,0.246,5.579-2,5.999
		c-9.938-8.693-37.639,3.561-40.994-12.999c4.373,0.708,6.81-0.522,7.998-3c2.092,1.241,3.758,2.908,5,5
		c3.443-1.889,6.615-4.049,12.998-3c2.944-5.388,9.186-7.479,10.998-13.999c1.772,0.895,1.275,4.059,5,3
		c0.229-1.771-1.008-5.007,2-4c0.439,3.417,2.654,8.614,1,10.999c2.531-1.468,3.533-4.466,4.999-6.999
		c-0.53-3.802-2.923-5.742-3.999-8.999c3.252-1.65,5.387,1.791,5.998-2c-1.096,0.685-3.752-2.833-0.999-5
		c8.56,3.439,8.159,15.838,14.998,20.998c-1.035,2.298-2.065,4.601-3.999,6c2.677,2.693,3.801-1.273,5.999-2
		c0.122,2.544,1.455,3.877,3.999,4C177.184,129.116,188.266,137.633,194.916,130.133z M153.92,122.134c0-2.666,0-5.333,0-7.999
		c-1,0-2,0-3,0C151.229,117.493,149.586,122.802,153.92,122.134z M132.922,140.132c2.213-2.943,0.312-8.453-3.999-7.999
		C129.856,135.199,132.037,137.019,132.922,140.132z M117.924,135.132c-1.008,3.007,2.229,1.772,4,2c0-1,0-2,0-3
		C120.183,134.057,118.815,134.355,117.924,135.132z M204.914,146.131c0.363-2.048,3.34-6.552,1-7.999
		C206.207,140.836,201.736,143.847,204.914,146.131z M195.916,142.131c-0.213-1.122-1.111-1.557-2-2c-0.32,2.318,0.16,3.839,1,4.999
		c2.355,0.022,2.943-1.722,5.998-1c0-1.666,0-3.333,0-4.999C197.775,138.659,198.273,141.823,195.916,142.131z M209.914,147.131
		c0.727-1.686,5.299-4.593,2-6.999C210.063,140.693,206.926,145.037,209.914,147.131z"/>
	<path fill-rule="evenodd" clip-rule="evenodd" fill="#3D4726" d="M110.926,227.121c3.045-0.812,4.312-6.957,7.998-4
		c1.104-5.759,6.184-12.212,9.999-11.999c3.36-8.676-0.968-20.805,2-30.996c5.44,4.511,4.974,19.296,14.998,15.998
		c2.361,1.638,1.124,6.875,2.999,8.999c1.494-3.298,1.179,3.345,4,2c3.701-3.978,10.277-10.369,15.998-8.999
		c-3.935,2.064-5.751,6.248-7.999,9.999c6.211-2.788,7.961-10.037,15.998-10.999c-2.063,3.603-5.937,5.396-7.999,8.999
		c5.913-3.844,12.304,2.642,17.998-3c0,1.333,0,2.667,0,4c-5.424,3.908-18.36,0.304-20.998,6.999c4.873,0.46,11.713-1.046,15,1
		c1.793-2.206,2.711-5.287,5.998-5.999c0,1,0,2,0,3c-1.313,2.686-4.408,3.591-5.998,6c0.16,1.171,1.822,0.843,2.998,0.999
		c-0.52,2.48-2.438,3.563-3.999,5c-3.305-1.5,2.077-2.445,1-5c-13.927,3.405-25.824,8.84-29.998,21.998
		c0.561,1.439,1.561,2.439,3,2.999c4.626-7.705,9.846-14.817,18.998-17.997c-3.765,10.234-16.762,11.234-18.998,22.997
		c5.738,7.927,7.479,19.851,11.998,28.996c3.855-10.012-3.478-23.025,8.999-27.996c3.008-1.008,1.772,2.228,2,3.999
		c3.287-1.045,3.041-5.624,4.999-7.999c3.383,1.71,7.568,0.936,7-3.999c3.887,16.974,11.264,30.955,12.998,53.993
		c-8.648-2.703-6.109-11.99-8.998-18.998c-2.779,2.202,0.141,7.125,0,9.999c-1.162-0.163-1.779,0.221-2,1
		c-10.618-6.129,1.02-22.033-2-33.996c-6.76,4.906-2.213,21.118-6,28.996c-9.996,0.052-0.262-10.827-4.999-13.998
		c-3.67,1.457,0.768,5.223-2,7.999c-9.255-5.1,1.15-13.164,0-21.997c-6.936,6.561-4.015,16.932-5.999,25.997
		c0.437,1.483,1.279-0.395,3,0c1.345,13.207,0.113,28.76,1.999,46.994c-2.127,1.538-5.104,2.229-5.999,4.999
		c2.113,19.319,32.496-1.579,36.996,14.998c-0.686,4.647-4.557,6.108-6,9.999c-3.105-2.605-7.439-0.036-9.998,1
		c-1.242-2.092-2.908-3.758-5-5c-12.942,7.572-20.98-10.234-33.996-1c-0.229-4.277-2.975,2.227-5.999-0.999
		c-0.333,0-0.667,0-0.999,0c-4.324-5.598-9.684,1.664-11.999-5c-7.774,6.497-16.42-2.538-25.997-3.999
		c-1.033,3.968-7.262,6.94-11.998,3.999c-0.726-3.058,1.725-2.94,1-5.999c-0.561-1.44-1.561-2.439-3-3
		c-6.071,1.928-10.612,5.387-14.998,8.999c-0.438,4.438,5.525,2.474,4,7.999c-0.399,2.935-3.281,3.386-4,5.999
		c-3.506,2.16-5.82,5.513-7.999,8.999c-2.914,7.419-8.241,12.424-15.998,14.998c-4,0-7.999,0-11.999,0
		c-12.406-4.525,2.021-17.126,5-21.997c1.887-1.445,4.432-2.233,4-5.999c0.016-2.983,2.6-3.399,3-5.999
		c2.408-4.925,7.268-7.397,9.999-11.999c-2.158-7.768,4.055-13.89,2-20.997c11.495,2.88,15.39,12.694,28.997,10.999
		c3.67-10.662,6.07-22.593,7.998-34.996c5.029,2.273,3.744-2.031,1-4c5.452-10.213,12.885-18.445,19.998-26.996
		c-7.646-0.589-0.128-15.795-5-20.997c-2.402,3.263,0.66,11.99-3.999,12.998c-0.306,3.124,2.889-2.542,3,1
		c2.052,3.029-2.899,5.97-4,8.999c-2.315-7.684,0.301-12.647-1.999-19.998c-0.107,9.841-5.092,22.957,0,28.997
		c-9.431,7.233-15.243,18.086-15.998,33.995c-3.635,0.302-1.336-5.33-3-6.999c-1.666,0-3.333,0-5,0
		c0.035-4.367-2.76-5.904-2.999-9.999c-3.589-0.827-4.837,2.255-6.999,0c0.279-5.719,3.384-8.614,5.999-11.998
		c3.343,2.766-1.912,5.354-1,8.999c3.807-4.859,7.556-9.775,11.999-13.998c-3.076-2.685-4.478,4.811-8.999,3.999
		c3.661-6.671,9.033-11.631,14.998-15.998c0.326,1.978,3.094,7.142-2,5.999c4.28,4.058,1.933,8.157,1,13.999
		c6.441-5.558,6.271-17.726,7.999-27.997c-2.398,1.935-3.054,5.612-6.999,5.999c2.827-10.82,8.767-20.484,9.999-29.996
		C109.981,228.842,111.208,228.735,110.926,227.121z M139.922,207.123c-2.932-3.067-4.797-7.202-7.999-9.999
		C131.067,203.59,136.279,208.387,139.922,207.123z M143.922,212.123c0-1.333,0-2.667,0-4c-1,0-2,0-3,0
		C140.64,210.738,141.288,212.424,143.922,212.123z M138.922,233.12c-2.449-3.217-5.113-6.22-6-10.999
		c-3.189-0.857-3.092,1.574-4.998,2c-0.068-2.932-2.286-3.714-4-5c-0.485,1.182-1.066,2.268-2,3
		c3.672,4.436,4.386,8.319,6.999,11.999c-2.929,0.07-5.637,0.362-4.999,3.999c1.184,1.551,4.924-2.668,6.999,1
		c0,1.667,0,3.333,0,4.999c-4.802-0.802-6.148,1.852-7.999,4c6.37,1.37,6.257-3.742,11.998-3c0.053-7.731-7.258-13.387-4.999-19.997
		c4.046,4.582,11.047,15.877,5.999,22.997c-0.211-1.122-1.109-1.557-2-2c0.146,6.912-6.086,7.277-9.998,5
		c0.738,4.737-1.125,6.874-1,10.998c7.476-3.285,12.329-11.921,19.998-11.998c0.438-3.438-0.396-5.604-1-7.999
		c10.075-9.651-5.246-24.291-10.999-30.997C129.75,221.638,142.127,223.902,138.922,233.12z M143.922,218.122
		c3.65,0.015,4.489,2.842,6.998,3.999c3.102-3.762,14.757-3.639,11.999-9.999c-3.431,0.902-6.46,2.206-8.999,4
		C153.934,208.606,142.118,210.241,143.922,218.122z M146.921,226.121c0.275-4.275-2.902-5.097-4.999-7
		C143.413,221.63,142.456,226.587,146.921,226.121z M162.919,220.121c-2.963,0.704-4.354,2.979-8.999,2
		c-0.335,3.332-2.896,4.436-2,8.999C155.954,228.29,163.603,224.408,162.919,220.121z M114.925,237.119c-0.333,0-0.667,0-1,0
		c-1.026,3.36,3.11,1.557,4.999,2c1.12-5.411,1.398-10.555-1.999-14.998c-0.681,3.985-2.179,7.153-2,11.999
		C114.925,236.453,114.925,236.786,114.925,237.119z M124.924,240.119c-1.334,0-2.666,0-4,0
		C119.337,244.769,126.09,243.59,124.924,240.119z M182.916,261.116c-0.115-2.551-0.188-5.145-2.999-4.999
		C180.033,258.668,180.105,261.262,182.916,261.116z M150.92,278.114c0.669-3.733,3.082-6.321,0-8.999
		C151.267,271.874,148.05,276.138,150.92,278.114z M161.919,304.111c-0.011-5.347-3.671-12.294-3.999-13.999
		C156.686,295.903,158.416,300.582,161.919,304.111z M127.924,308.11c-0.609-2.391,1.254-7.254-1-7.999
		C126.319,302.312,124.412,307.563,127.924,308.11z M104.926,332.107c-0.127-6.644,6.795-13.992,2-18.997
		C108.685,321.22,102.27,326.427,104.926,332.107z M56.933,366.104c3.797,2.015,3.964-4.546,2-5
		C58.503,363.008,56.778,363.616,56.933,366.104z M52.933,370.103c-0.043,1.377,0.471,2.196,1,3c2.634,0.301,3.281-1.385,3-4
		C55.191,369.028,53.823,369.326,52.933,370.103z"/>
	<path fill-rule="evenodd" clip-rule="evenodd" fill="#3D4726" d="M287.904,277.114c-4.051,6.282-9.984,10.681-13.998,16.998
		C274.607,288.47,282.414,281.299,287.904,277.114z"/>
	<path fill-rule="evenodd" clip-rule="evenodd" fill="#3D4726" d="M313.9,241.119c6.354,2.587-1.039,5.277,0,10.998
		c-8.002,4.394-16.803,16.479-23.996,24.997C293.389,264.598,309.033,255.586,313.9,241.119z"/>
	<path fill-rule="evenodd" clip-rule="evenodd" fill="#3D4726" d="M185.916,230.12c-4.303-0.707-4.496,6.002-7.999,3
		c1.646-5.354,8.991-5.007,7.999-12.999c1.061,2.575,2.723,15.29-2,17.998C181.502,235.411,187.012,234.564,185.916,230.12z"/>
	<path fill-rule="evenodd" clip-rule="evenodd" fill="#3D4726" d="M90.928,259.116c3.178,5.211-5.242,7.398-5,12.999
		C82.406,269.741,88.856,262.317,90.928,259.116z"/>
	<path fill-rule="evenodd" clip-rule="evenodd" fill="#3D4726" d="M212.912,326.108c3.359,0.497,4.754,6.516,3,8.999
		c4.107,2.751,7.928,14.479,2,15.998C218.09,341.043,211.836,333.956,212.912,326.108z"/>
	<path fill-rule="evenodd" clip-rule="evenodd" fill="#3D4726" d="M268.906,328.108c2.545,0.122,3.877,1.455,4,3.999
		c-1.701,0.368-1.887-0.779-2-2c-1.615-0.281-1.723,0.945-3,1C264.502,330.041,270.688,330.797,268.906,328.108z"/>
	<path fill-rule="evenodd" clip-rule="evenodd" fill="#3D4726" d="M200.914,174.127c5.389,5.329-5.215,4.081-3,11.999
		c-8.168-1.498-10.361-8.968-10.998-17.998c7.373,0.96,15.412,1.253,20.998,4C208.043,176.641,202.824,176.896,200.914,174.127z"/>
</g>
<g>
	<path fill-rule="evenodd" clip-rule="evenodd" fill="#EEDC82" d="M156.92,108.136c3.578,0.087,1.098,6.234,5.999,4.999
		c0.132,2.465,0.151,4.818-1,6C158.504,117.217,158.382,112.006,156.92,108.136z"/>
	<path fill-rule="evenodd" clip-rule="evenodd" fill="#EEDC82" d="M178.917,140.132c2.719,1.612,8.024,0.641,9.999,3
		c-1.531,2.467-2.354,5.645-7,5c2.172-0.829,2.227-3.774,5-4c-4.553-3.836-6.81,3.151-11.999,2
		C176.303,144.184,178.512,143.059,178.917,140.132z"/>
	<path fill-rule="evenodd" clip-rule="evenodd" fill="#EEDC82" d="M138.922,150.13c-6.709,0.511-19.846,1.13-22.997-5
		C125.387,142.66,135.264,140.868,138.922,150.13z M119.924,147.131c4.936,0.79,8.314,1.357,10.999-2
		C129.497,144.682,123.129,146.205,119.924,147.131z"/>
	<path fill-rule="evenodd" clip-rule="evenodd" fill="#EEDC82" d="M139.922,144.131c3.043-2.325,5.261,4.7,5.999,7.999
		C141.167,152.219,141.617,147.103,139.922,144.131z"/>
	<path fill-rule="evenodd" clip-rule="evenodd" fill="#EEDC82" d="M187.916,176.127c-4.119,2.88-10.823,3.175-16.998,4
		c4.766-3.233,7.727-8.271,14.998-8.999C185.766,173.611,186.434,175.277,187.916,176.127z"/>
	<path fill-rule="evenodd" clip-rule="evenodd" fill="#EEDC82" d="M190.916,185.126c-8.834-0.834-14.283,1.716-21.998,2
		C174.667,186.119,186.324,177.593,190.916,185.126z"/>
	<path fill-rule="evenodd" clip-rule="evenodd" fill="#EEDC82" d="M149.92,186.126c3.395,2.001,0.951,7.206,1,12.998
		c-2.832-2.834-2.679-8.653-5.999-10.999C147.402,188.272,149.774,188.312,149.92,186.126z"/>
	<path fill-rule="evenodd" clip-rule="evenodd" fill="#EEDC82" d="M183.916,192.125c-1.502,2.627-9.413,2.607-10.998,2
		C174.453,189.094,178.828,192.937,183.916,192.125z"/>
	<path fill-rule="evenodd" clip-rule="evenodd" fill="#EEDC82" d="M156.92,198.124c-0.473-3.139,2.69-2.641,2.999-4.999
		c5.439,1.254,5.271-0.051,9.999-1C167.397,195.936,162.871,197.742,156.92,198.124z"/>
	<path fill-rule="evenodd" clip-rule="evenodd" fill="#EEDC82" d="M175.917,213.123c0.078-3.255,4.532-2.134,6.999-3
		C182.385,212.924,178.099,211.971,175.917,213.123z"/>
	<path fill-rule="evenodd" clip-rule="evenodd" fill="#EEDC82" d="M152.92,228.121c0.966-2.367,1.754-4.913,6-4
		C156.424,224.959,156.815,228.683,152.92,228.121z"/>
	<path fill-rule="evenodd" clip-rule="evenodd" fill="#EEDC82" d="M166.918,226.121c-3.229,3.436-6.046,7.285-10.998,8.999
		c1.878,3.473-1.144,3.796-2,6.999C149.381,235.507,160.842,228.672,166.918,226.121z"/>
	<path fill-rule="evenodd" clip-rule="evenodd" fill="#EEDC82" d="M114.925,236.12c2.169,0.168,0.453-3.547,1-5
		c5.135-0.639,2.907,10.632-1,5.999C114.925,236.786,114.925,236.453,114.925,236.12z"/>
	<path fill-rule="evenodd" clip-rule="evenodd" fill="#EEDC82" d="M187.916,236.12c1.352,0.981,1.998,2.667,3,3.999
		c-2.826-0.826-2.59,1.409-5,1C185.762,238.632,187.486,238.023,187.916,236.12z"/>
	<path fill-rule="evenodd" clip-rule="evenodd" fill="#EEDC82" d="M169.918,237.119c-3.823,5.177-11.543,6.455-12.998,13.999
		c-1.086-0.248-0.679-1.988-2-2C158.441,243.64,161.706,237.905,169.918,237.119z"/>
	<path fill-rule="evenodd" clip-rule="evenodd" fill="#EEDC82" d="M175.917,282.114c1.173,1.493,4.155,1.178,4,3.999
		C177.55,288.496,175.004,285.951,175.917,282.114z"/>
	<path fill-rule="evenodd" clip-rule="evenodd" fill="#EEDC82" d="M97.927,296.112c4.38,0.097,0.122,6.038,0,7.999
		C95.349,302.738,97.706,297.984,97.927,296.112z"/>
	<path fill-rule="evenodd" clip-rule="evenodd" fill="#EEDC82" d="M59.932,334.107c3.555,4.272-1.682,8.278-3,10.999
		c-2.715,0.715,0.715-4.716-2-4C56.347,338.521,61.133,339.308,59.932,334.107z"/>
	<path fill-rule="evenodd" clip-rule="evenodd" fill="#EEDC82" d="M182.916,339.106c-1.709,2.999-3.638,1.111-6.999,1
		C176.735,338,181.189,337.363,182.916,339.106z"/>
	<path fill-rule="evenodd" clip-rule="evenodd" fill="#EEDC82" d="M180.918,77.14c-2.859-7.978-10.73-5.71-15.999,0
		c-0.261,2.927,2.26,3.072,1.999,5.999c-9.355,2.31-11.246,12.084-15.998,18.998c-6.732-6.266-3.49-22.506-5.999-32.996
		c-2.318-0.319-3.839,0.161-4.999,1c-2.57,14.095-3.129,30.201-5,44.994c-6.531,3.134-6.615,12.715-12.998,15.998
		c-18.285-0.38-28.381-8.948-44.994-10.999c0.363,6.338-8.278,6.05-8.999,11.999c-1.165,9.611,17.007,17.846,31.996,24.997
		c1.868,0.891,3.184,3.083,4.999,4c1.306,0.659,3.738-0.727,5,0c5.489,3.16,8.367,8.659,11.998,9.999c1.17,0.432,4.874-0.718,6,0
		c5.026,3.207,10.123,13.438,12.998,15.998c-8.053,1.733-7.428-13.666-11.999-8.999c0.827-2.826-1.409-2.59-0.999-5
		c-6.885-0.047-12.637-6.475-17.998-10.999c-12.743-1.438-44.969-18.289-42.995-30.996c0.931-5.991,9.501-4.514,7.999-11.999
		c17.951,1.046,28.547,9.448,45.994,10.999c12.447-11.871,19.795-34.888,16.998-57.993c-1.369-11.303-9.13-16.271-5.999-27.997
		c0.774-2.902,4.057-5.107,1.999-11.999c6.612-3.804,10.438-0.248,15.998-3c15.455,17.758-13.808,44.443,0,69.991
		c6.565-3.767,6.108-14.557,14.999-15.998c0.722-3.055-1.022-3.644-1-5.999c2.2-3.465,5.624-5.708,9.998-6.999
		C177.995,70.729,180.328,73.063,180.918,77.14z M138.922,39.144c1.151-1.182,1.132-3.534,1-5.999c-1.334,0-2.666,0-4,0
		C135.874,36.193,136.831,38.236,138.922,39.144z M141.922,39.144c2.891-0.441,4.558-2.108,4.999-5
		C144.03,34.586,142.364,36.253,141.922,39.144z"/>
	<path fill-rule="evenodd" clip-rule="evenodd" fill="#EEDC82" d="M100.927,240.119c3.085-4.58,6.61-8.721,9.999-12.998
		c0.281,1.614-0.945,1.721-1,2.999c-1.873,2.461-3.873,4.794-6,6.999c0,0.334,0,0.667,0,1
		C102.614,238.473,102.354,239.88,100.927,240.119z"/>
	<path fill-rule="evenodd" clip-rule="evenodd" fill="#EEDC82" d="M84.929,265.116c4.327-6.339,7.501-13.83,12.998-18.998
		C94.557,253.413,89.86,259.381,84.929,265.116z"/>
	<path fill-rule="evenodd" clip-rule="evenodd" fill="#EEDC82" d="M59.932,333.107c-2.039-0.294-1.96-2.705-4-3
		c3.832-20.831,13.942-35.385,23.998-49.993c-8.359,15.638-18.801,29.193-22.998,48.994
		C57.227,331.146,59.638,331.068,59.932,333.107z"/>
	<path fill-rule="evenodd" clip-rule="evenodd" fill="#EEDC82" d="M68.931,370.103c2.179-3.486,4.493-6.839,7.999-8.999
		C75.25,365.089,72.151,367.656,68.931,370.103z"/>
	<path fill-rule="evenodd" clip-rule="evenodd" fill="#EEDC82" d="M119.924,350.105c4.718-1.472,10.908,0.199,13.998,2
		C128.957,351.84,126.602,350.508,119.924,350.105z"/>
	<path fill-rule="evenodd" clip-rule="evenodd" fill="#EEDC82" d="M134.922,352.105c3.222-1.627,5.417-0.478,9,0
		c0.332,0,0.666,0,0.999,0c9.291,3.215,22.093-4.217,28.996,5.999c3.509-0.824,6.018-2.648,9.999-3
		c2.477,5.583,13.625,3.061,12.998,6.999c-1.078-4.048-4.76,0.306-8.998-1c-0.334-2.332-1.025-4.308-3-4.999
		c-4.936-0.271-6.415,2.917-10.999,3c-9.749-10.799-25.479-2.59-38.995-6C134.922,352.771,134.922,352.438,134.922,352.105z"/>
	<path fill-rule="evenodd" clip-rule="evenodd" fill="#EEDC82" d="M196.914,364.104c0.811,2.9,4.83,7.778,2,10.999
		C199.99,369.694,196.203,369.147,196.914,364.104z"/>
	<path fill-rule="evenodd" clip-rule="evenodd" fill="#EEDC82" d="M198.914,377.102c3.219,6.448,10.17,9.162,13,15.998
		C208.025,387.321,201.299,384.383,198.914,377.102z"/>
	<path fill-rule="evenodd" clip-rule="evenodd" fill="#EEDC82" d="M229.91,405.099c25.676,0.229,7.338-21.76,0-27.997
		C239.906,381.794,256.213,410.878,229.91,405.099z"/>
	<path fill-rule="evenodd" clip-rule="evenodd" fill="#EEDC82" d="M229.91,376.103c-7.336-2.995-6.117-14.547-10.998-19.998
		c5.699-5.854,3.348-14.961,0-21.997c4.137,4.785,7.551,16.669,1,20.997C224.195,361.152,224.002,371.68,229.91,376.103z"/>
	<path fill-rule="evenodd" clip-rule="evenodd" fill="#EEDC82" d="M191.916,247.118c6.311,12.889,11.869,29.555,13.998,46.994
		c0.504,4.124-0.994,8.725,0,12.998c2.314,9.94,13.641,15.977,12.998,25.997c-3.074-9.923-9.627-16.369-14.998-23.997
		C204.354,284.008,198.572,265.126,191.916,247.118z"/>
	<path fill-rule="evenodd" clip-rule="evenodd" fill="#EEDC82" d="M309.9,245.118c8.463-19.604,1.01-46.833-4.998-63.992
		c-31.164-2.905-61.93-9.015-93.988-7.999c-8.176,4.824-9.342,16.657-20.998,17.998c-4.443,7.17-2.459,18.574-1,26.997
		c-1.836-2.116-3.445-2.904-2-6c0-1,0-2,0-3c0-0.667,0-1.333,0-2c0-1.333,0-2.666,0-4c-6.158-3.564,5.35-8.627-1-11.999
		c1.283-2.716,5.121-2.878,6-5.999c2.811-0.05,2.736,4.354,4.998,2c4.721-6.279,10.594-11.405,15-17.998
		c-15.225-0.838-28.064-5.787-37.997,3c-3.883-0.253,2.724-5.435,3-7.999c-8.534-0.699-18.208-1.056-27.997-5.999
		c0.905-1.762,3.682-1.652,4-4c9.129,6.563,17.837,3.585,26.997,6.999c3.141,0.474,4.084-1.247,4.999-3c1.445,1.222,1.518,3.816,3,5
		c22.262,1.361,43.199,8.305,62.992,3.999c3.396,3.604,11.695,2.303,15.998,5c1.266-3.932-2.359-2.974-5-3
		c-0.287-6.701,8.568-2.2,11-4c-1.674-5.327-10.701-3.298-14.998-6c-0.133-2.465-0.152-4.817,1-5.999
		c6.568,2.43,15.074,2.923,21.996,5c-1.119,1.44-1.078,2.44,1,3c-1.33,3.901-4.467,0.202-7,2c-1.188,3.945,0.42,6.98-4.998,7.999
		c4.764,3.348,15.174,1.827,19.998-1c-2.924-16.742-20.248-19.082-37.996-20.998c-5.932,3.734-9.684,9.647-16.998,11.999
		c-3.834,0.182-0.363-0.818-1-3c-5.441-0.448-10.865,1.04-9.998,4c-2.768,0.169-3.434-1.536-2-3c-3.156-0.489-3.531,1.802-7,1
		c-0.428-1.904-2.154-2.512-2-4.999c-0.301-2.635,1.385-3.282,4-3c-0.889-1.778-2.791-2.541-2-5.999
		c10.865,0.579,13.162,7.661,22.998,10.999c0.461-5.466,9.889-6.339,12.998-11.999c-10.061,2.597-19.635,1.862-28.996-1
		c-4.064-6.267-8.201-12.463-15.998-14.998c6.451-0.438,12.994,7.661,15.998,13.999c9.561,1.831,19.611,4.74,27.996,0
		c3.701-0.701,2.494,3.505,4,5c14.205,1.459,26.264,5.065,36.994,9.999c5.203-1.797,9.117-4.882,14-6.999
		c7.996-23.503,3.096-52.444-13-62.992c20.242,10.811,23.227,49.644,10,69.991c3.189,5.143,0.281,16.382,6.998,17.998
		c0.689-7.211,7.766-9.162,9-15.998c0.822-4.559-4.305-11.69,0-15.998c0.723,3.056-1.023,3.644-1,6
		c0.457,5.208,10.541,0.791,10.998,6c-2.783,4.216-6.6,7.397-5,15.998c1.529,3.138,7.145,2.189,7,7c-0.973,0.027-0.775,1.224-1,2
		c-2.41,3.59-12.145-4.302-11.998,3c-1.488-2.844-5.234-3.432-10-3C310.896,198.98,321.006,227.552,309.9,245.118z M315.9,170.128
		c2.213-1.44-1.26-2.44,1-3c0.111,2.448,3.305,0.212,3-1c-1.334,0-2.668,0-4,0C315.607,166.742,313.412,169.978,315.9,170.128z
		 M316.9,173.127c2.482,2.364,6.273,0.398,4.998-4C318.639,168.868,317.088,170.315,316.9,173.127z"/>
	<path fill-rule="evenodd" clip-rule="evenodd" fill="#EEDC82" d="M285.904,276.114c5.258-5.406,8.682-12.648,14.998-16.998
		C295.465,264.345,292.102,271.646,285.904,276.114z"/>
	<path fill-rule="evenodd" clip-rule="evenodd" fill="#EEDC82" d="M284.904,276.114c-8.1,14.057-28.297,23.865-20.998,46.994
		c0.445,4.444-2.707,5.291-4,7.999c5.525,4.474,12.557,7.442,20.998,8.999c-3.521-9.143-10.285-15.046-16.998-20.997
		c4.596-5.142,2.82-11.774,5-16.998c9.166-21.965,42.576-33.313,50.994-57.993c0.854-3.187-0.871-3.795-2-4.999
		c5.279-1.784,5.277-15.529,4.998-25.997c1.346,13.911,1.461,25.077-2.998,34.996c-10.012,22.266-46.883,37.11-50.994,57.992
		c-3.68,18.684,8.338,21.301,12.998,33.996c-8.986,2.831-15.938-4.611-22.996-6.999c-1.225-4.556,2.742-3.923,1.998-7.999
		C256.867,300.079,274.096,289.444,284.904,276.114z"/>
	<path fill-rule="evenodd" clip-rule="evenodd" fill="#EEDC82" d="M317.9,119.134c3.465,4.983,2.512,18.789,0,23.997
		C318.793,135.908,319.793,126.138,317.9,119.134z"/>
	<path fill-rule="evenodd" clip-rule="evenodd" fill="#EEDC82" d="M291.902,79.139c7.609,5.39,14.441,11.556,18.998,19.998
		C305.393,91.646,298.699,85.342,291.902,79.139z"/>
	<path fill-rule="evenodd" clip-rule="evenodd" fill="#EEDC82" d="M250.908,56.142c14.35,6.649,28.727,13.269,39.994,22.997
		C278.654,70.391,264.1,63.948,250.908,56.142z"/>
	<path fill-rule="evenodd" clip-rule="evenodd" fill="#EEDC82" d="M255.908,67.141c-16.299-6.032-28.555-16.106-41.996-24.997
		c1.221-4.446,1.014-10.318,4-12.998c10.426,9,16.186,22.078,31.996,26.997c-15.412-3.586-22.604-15.391-30.996-25.997
		c-3.756,1.243-0.801,9.198-4,10.999C227.707,50.68,241.115,59.603,255.908,67.141z"/>
	<path fill-rule="evenodd" clip-rule="evenodd" fill="#EEDC82" d="M256.908,67.141c12.594,5.737,25.508,11.154,33.994,20.998
		C281.346,79.365,268.053,74.326,256.908,67.141z"/>
	<path fill-rule="evenodd" clip-rule="evenodd" fill="#EEDC82" d="M180.918,78.139c2.529,0.803,2.549,4.116,3.998,6
		c2.357-0.309,1.861-3.473,5-3c11.447,2.871,17.875,21.728,6.998,29.997c1.303,8.301-4.764,9.234-2.998,17.998
		c3.018-1.347,7.979-1.347,10.998,0c0.184,0.851-0.391,0.943-1,1c-4.957,0.11-4.912-0.981-8.998,0
		c-8.666,3.155-16.328,0.878-25.998,0c-0.154-2.487,1.571-3.095,2-5c4.364-0.698,4.445,2.887,7.999,3
		c3.729,1.063,1.583-3.75,4.999-3c-0.066-2.932-2.285-3.713-3.999-5c-2.856,1.346,2.661,2.556,1.999,5
		c-4.316,0.651-5.604-1.727-7.999-3c0.563-4.736,2.173-9.947-0.999-12.998c4.292-2.366,4.649,2.009,9.998,0
		c-0.967,5.966,3.227,6.772,7,7.999c1.15-0.325,3.443-4.361,1-4.999c6.965,0.196,5.789-9.282,9.998-8.999
		c0.588-13.02-5.941-15.442-11.998-19.998c-2.215,0.785,0.191,6.19-4,5C183.9,84.488,182.436,81.287,180.918,78.139z
		 M189.916,128.133c2.635,0.302,3.281-1.384,3-3.999c-1,0-2,0-3,0C190.006,126.861,188.25,126.146,189.916,128.133z"/>
	<path fill-rule="evenodd" clip-rule="evenodd" fill="#EEDC82" d="M49.934,357.104c0.433,3.766-2.113,4.554-4,5.999
		C46.55,360.387,47.917,358.421,49.934,357.104z"/>
	<path fill-rule="evenodd" clip-rule="evenodd" fill="#EEDC82" d="M175.917,227.121c-2.817,1.516-1.217,7.448-4.999,7.999
		C173.11,231.411,171.249,229.017,175.917,227.121z"/>
	<path fill-rule="evenodd" clip-rule="evenodd" fill="#EEDC82" d="M178.917,235.12c0.933,1.066,3.688,0.311,2.999,2.999
		c-1.418,0.086-2.831,0.165-2.999-1c-1.017,0.649-1.034,2.3-3,2C175.039,235.906,179.213,237.749,178.917,235.12z"/>
	<path fill-rule="evenodd" clip-rule="evenodd" fill="#EEDC82" d="M178.917,103.136c0.535-5.669,1.189-7.752-1-11.999
		c-3.57,1.096-5.903,3.429-6.999,6.999c-5.467-0.99-5.448,0.713-7.999,0c0.956-8.678,14.72-8.86,20.997-8.999
		C184.189,95.744,183.549,101.435,178.917,103.136z"/>
</g>
</svg>
