<?xml version="1.0" encoding="utf-8"?>
<!-- Generator: Adobe Illustrator 15.0.2, SVG Export Plug-In . SVG Version: 6.00 Build 0)  -->
<!DOCTYPE svg PUBLIC "-//W3C//DTD SVG 1.1//EN" "http://www.w3.org/Graphics/SVG/1.1/DTD/svg11.dtd">
<svg version="1.1" xmlns="http://www.w3.org/2000/svg" xmlns:xlink="http://www.w3.org/1999/xlink" x="0px" y="0px" width="360px"
	 height="440px" viewBox="0 0 360 440" enable-background="new 0 0 360 440" xml:space="preserve">
<g id="Layer_2" display="none">
</g>
<g id="Layer_1">
	<g>
		<path fill-rule="evenodd" clip-rule="evenodd" fill="#44281F" d="M246.128,188.959c-0.133,5.124-9.749,4.877-8.98,1.283
			C238.802,188.475,242.72,188.973,246.128,188.959z"/>
		<path fill-rule="evenodd" clip-rule="evenodd" fill="#44281F" d="M138.38,376.232c0,2.138,0,4.275,0,6.414
			c-4.15,1.584-0.979-4.151-5.13-2.566C134.365,378.203,135.17,376.016,138.38,376.232z"/>
		<path fill-rule="evenodd" clip-rule="evenodd" fill="#44281F" d="M226.886,82.497c5.167,3.384,12.452,4.65,12.827,12.826
			c-2.682,0.544,0.996,6.127,1.283,5.131c2.94,5.185,10.874,5.373,15.393,8.979c-2.425-0.288,1.339,7.639,6.413,8.979
			c1.027,4.449-1.911,4.931-1.283,8.979c-0.721,2.9-13,19.549-29.501,24.372c-53.857-4.822-35.142-51.644-19.241-50.024
			c1.496-2.353,3.354-4.344,5.131-6.415C218.763,95.323,227.158,83.936,226.886,82.497z M240.996,120.977
			c3.238-7.381-3.698-21.728-8.979-20.523c1.088,3.252,7.849,7.458,5.13,10.262c-2.529-2.174-2.942-6.465-8.979-5.131
			C234.693,109.303,240.436,114.785,240.996,120.977z"/>
		<path fill-rule="evenodd" clip-rule="evenodd" fill="#44281F" d="M124.271,115.846c0,0.855,16.245-7.658,25.654-14.109
			c1.865,0.568-0.13,1.126,0,2.565c-6.315,5.229-11.514,11.573-17.957,16.674c-6.522,5.451-12.508,11.437-17.958,17.958
			c-0.377,2.616-3.47,2.516-3.848,5.132c0.083,1.752,1.205,2.884,2.566,1.282c0.427,0,0.855,0,1.282,0c5.889,0,10.026,0,16.675,0
			c1.283,0,2.565,0,3.848,0c2.095,0.582,6.158-0.893,5.131-2.565c0.56-1.578,1.642-2.634,3.848-2.565
			c3.62-0.2,3.215,3.625,5.13,5.131c-11.538,3.123-11.324,20.209-1.282,24.371c-10.262,8.991-33.51,6.193-44.894,1.283
			c-0.623-1.076-1.917-0.622-2.566,0c-1.087,2.76-3.159,4.537-7.695,3.848c-2.667,2.565-2.667,3.676-5.131,5.131
			c-0.561,1.577-1.642,2.634-3.849,2.564c-1.883-3.024-2.706-2.386-1.282-6.413c-4,0.973-21.781,34.273-24.371,19.24
			c-0.692-4.018,2.533-2.346,3.848-6.414c4.813-3.666,1.82-5.538-2.565-8.978c1.026-7.35-3.389-12.571,1.283-16.675
			c2.518-1.533,0.902-4.324,1.282-7.697c0-0.854,0-1.71,0-2.564c4.813-1.173,9.068-2.904,14.11-3.849
			c3.279-0.056,8.905-0.072,11.544-2.565c0.427,0,0.854,0,1.282,0c0.428,0,0.856,0,1.283,0c1.454,1.273,1.931,0,3.849-2.565
			c5.656-2.041,8.546-6.847,11.543-11.545c4.813-3.738,9.088-8.014,12.827-12.827C120.882,119.298,120.244,115.24,124.271,115.846z"
			/>
		<path fill-rule="evenodd" clip-rule="evenodd" fill="#44281F" d="M126.837,113.281c4.165-3.959,8.388-7.858,14.109-10.262
			c1,0.283,1.491,1.074,1.283,2.565c-7.643,1.763-11.519,7.294-16.675,11.544C125.498,115.363,126.157,114.312,126.837,113.281z"/>
		<path fill-rule="evenodd" clip-rule="evenodd" fill="#44281F" d="M264.084,117.129c12.548,5.569,16.63,18.808,14.11,33.35
			c1.772,3.786,5.925,5.193,7.695,8.978c1.714,3.225,13.566,37.231-1.281,33.351c-9.076,0.623-11.035,3.068-16.677-2.565
			c-7.768-13.19-14.484-47.604-12.825-50.025C261.659,136.842,262.575,124.562,264.084,117.129z"/>
		<path fill-rule="evenodd" clip-rule="evenodd" fill="#44281F" d="M252.54,145.348c4.714,3.229,10.367,3.69,12.828,7.697
			c-6.644,7.044-2.566,32.067,0,35.914c0,0.856,0,1.711,0,2.566c0.054,2.193-0.954,3.322-2.566,3.848
			c-2.98-2.478-8.692,21.518-7.695,21.806c0,0.854,0,1.709,0,2.565c-5.779,0.806-31.725,103.898-51.308,126.987
			c-15.045,10.996-28.486-3.233-25.655-21.806c-4.365-17.859,0.979-80.811,3.849-125.705c0.135-3.284,0.727-6.114,2.565-7.695
			c1.548-1.476,1.168-3.863,0-5.13c0.361-2.072-1.213-2.209-1.282-3.849c0.778-3.08-0.885-6.414-2.566-10.261
			c2.086-4.203-0.289-4.903,0-10.261c-1.282,0-2.565,0-3.848,0c-0.918-3.483,7.629-14.125,12.826-16.675
			C185.68,155.496,250.3,146.528,252.54,145.348z"/>
		<path fill-rule="evenodd" clip-rule="evenodd" fill="#44281F" d="M184.558,122.26c3.448-0.883,2.478,2.651,3.848,3.849
			c-7.504,4.555,6.188,2.113,1.282,8.978c1.303,3.009,1.303,17.293-10.242,17.761c-11.439-21.608-5.016-29.05-2.584-29.304
			C180.023,123.712,183.04,123.737,184.558,122.26z"/>
		<path fill-rule="evenodd" clip-rule="evenodd" fill="#44281F" d="M158.903,132.521c3.113-2.446,7.754-3.363,11.546-5.131
			c3.544,0.304,0.457,7.237,5.129,6.415C176.491,154.327,153.132,155.34,158.903,132.521z"/>
		<path fill-rule="evenodd" clip-rule="evenodd" fill="#44281F" d="M152.49,135.086c1.039-0.243,1.279-1.286,2.565-1.281
			c6.75,3.68,13.057,24.37,8.979,32.066c-1.38,0.861-8.88,0.861-10.261,0C137.351,176.687,127.484,154.189,152.49,135.086z"/>
		<path fill-rule="evenodd" clip-rule="evenodd" fill="#44281F" d="M303.848,186.395c-19.517,1.871-26.648-12.36-15.393-25.655
			c4.094-1.099,3.968,2.019,6.414,2.566c0,0.855,0,1.709,0,2.565c-5.773,1.841,2.04,9.308,2.563,7.696
			c1.04,0.244,1.28,1.287,2.567,1.283C300.059,179.922,302.824,182.288,303.848,186.395z"/>
		<path fill-rule="evenodd" clip-rule="evenodd" fill="#44281F" d="M274.347,200.504c3.838-9.117,27.528-16.735,32.067-10.262
			c19.105,14.689,15.979,50.865,6.413,71.831c-2.511-2.396-3.522,4.163-5.133,6.414c-4.41,13.545-11.687,24.227-29.5,24.371
			c-4.063,4.486-7.251,9.854-8.979,16.674c-3.498-0.935-1.996,1.646,1.282,3.85c0,1.282,0,2.563,0,3.847
			c-2.137,0,1.216,1.927,1.282,2.565c1.355,2.51,0.001,6.437,1.283,11.544c-3.029-6.377-4.986,33.544-3.848,28.22
			c3.333,1.788-0.936,6.64-1.284,8.979c0.237,1.092-0.5,1.211-1.283,1.282c0-1.709-2.137,1.284,0,1.284
			c0.474,5.084-1.175,12.292,1.283,15.393c0,0.427,0,0.854,0,1.28c4.5,2.346,5.369,8.314,10.263,10.262
			c5.756,15.962-16.784,11.112-25.654,7.698c-0.941-1.197-2.332-1.945-3.849-2.565c-2.209-5.061-9.334-5.203-11.544-10.263
			c1.434-3.513,5.713-8.743,2.565-12.827c-1.269-8.777,7.22-19.211,0-25.653c1.714-7.603-4.265-15.203-2.565-23.089
			c-2.326-15.394-0.622-28.825,0-30.784c4.224-12.358-2.581-24.033,3.849-38.48c1.237-2.385,0.024-26.948,17.236-24.216
			c15.929,15.236,11.872,36.417,18.678,37.044c-0.954,3.947,3.521,2.463,2.566,6.412c0.855,0,1.71,0,2.566,0
			c1.576-1.433,1.856-0.811,2.565-2.565c4.198-4.78,5.361-12.596,8.979-17.958c0.307-5.01-4.765-4.641-7.697-6.412
			c-0.209-1.493,0.284-2.283,1.283-2.566c1.091,3.764,3.267-7.115,2.565-8.979c1.038,0.244,0.456-3.819-2.565-3.848
			c-0.429,0-0.854,0-1.283,0c-3.893-8.815,7.05-20.652-1.281-26.937c1.232-0.857,1.339-2.16,0-2.565c-1.712,0-3.422,0-5.132,0
			C278.097,206.16,274.839,204.713,274.347,200.504z M257.67,404.451c5.059,3.01,3.923-2.413,8.979-2.565
			c0.057,1.766-0.604,2.816-1.28,3.85c5.106-0.343,9.034,3.229,11.542-1.284c-1.995-0.333-0.889-2.813,0-3.848
			c-3.132-2.687-2.73-1.832-7.694-1.282c-1.234,4.655,5.763,1.077,5.131,5.13c-3.759-0.091-7.232-0.464-6.415-5.13"/>
		<path fill-rule="evenodd" clip-rule="evenodd" fill="#44281F" d="M166.6,295.424c-3.106-3.995-6.839,28.644-5.131,32.066
			c-6.452,0.844-11.256,10.084-17.958,6.413c2.167-3.391,1.57-29.79-1.283-30.784c-1.991-8.064,2.664-17.432,6.413-20.523
			C159.479,270.325,174.296,288.273,166.6,295.424z"/>
		<path fill-rule="evenodd" clip-rule="evenodd" fill="#44281F" d="M152.49,253.094c6.027-7.267,14.065-12.849,23.088-10.262
			c1.941,20.525-1.666,34.633-6.413,39.764c-3.085-1.255-22.725-0.776-26.937,7.696c-2.194,0.057-3.322-0.954-3.849-2.566
			c-1.686-1.729-1.282-4.788-1.282-6.412c4.403-9.707,12.783-15.437,14.11-28.22C151.635,253.094,152.063,253.094,152.49,253.094z"
			/>
		<path fill-rule="evenodd" clip-rule="evenodd" fill="#44281F" d="M160.186,236.42c3.836-9.846,15.07-12.295,20.523-20.524
			c0.181-3.686-3.563-10.002,0-12.826C184.24,212.152,191.576,246.682,160.186,236.42z"/>
		<path fill-rule="evenodd" clip-rule="evenodd" fill="#44281F" d="M275.629,264.64c2.072,0.359,2.207-1.214,3.848-1.282
			c2.699,4.924,7.863-2.713,11.544,0c-2.561,3.423-7.447,4.522-6.412,11.544c-1.395-0.319-0.871-2.552-2.565-2.566
			c0.632-4.028-4.422-3.39-1.284-6.414c-2.924-0.359-4.822,0.309-5.13,2.566c1.033,1.103,3.513,0.763,3.848,2.563
			c-3.277-2.542-5.896,1.331-7.696-1.281C273.203,265.371,274.981,268.403,275.629,264.64z"/>
		<path fill-rule="evenodd" clip-rule="evenodd" fill="#44281F" d="M228.169,353.146c-33.973-3.167-5.964-18.384-5.108-16.316
			c3.528,3.488,12.163,16.101,14.087,17.598C234.49,353.664,228.721,356.013,228.169,353.146z"/>
		<path fill-rule="evenodd" clip-rule="evenodd" fill="#44281F" d="M129.402,317.229c-1.094-10.395,0.035-12.861,0-14.109
			c7.255,0.441,12.369,3.024,17.957,5.131c-2.407,2.445,10.796,27.044,12.827,26.938c-0.316,13.344,7.161,10.94,1.283,21.804
			c0.844,1.724,2.742,2.39,5.131,2.566c0,2.139,0,4.275,0,6.414c-0.243,1.456-2.952,7.019-3.848,10.261
			c-0.719,1.848-2.001,3.131-3.849,3.848c-1.685,1.646-4.728,1.646-6.413,0c4.24-3.332-13.947-4.54-20.523-2.564
			c2.954-2.835-2.227-3.21-3.848-5.13c2.925-4.001,2.377-10.418-3.849-7.697c0-0.429,0-0.855,0-1.282c0-0.429,0-0.855,0-1.282
			c0.732-1.284,1.372-1.284,1.283-2.566c0-0.427,0-0.854,0-1.282C129.266,344.511,126.471,330.937,129.402,317.229z"/>
		<path fill-rule="evenodd" clip-rule="evenodd" fill="#44281F" d="M116.574,390.343c-8.729-3.08-11.543-7.417-12.826-8.979
			c4.257-4.365,9.95-5.146,12.826-6.414c1.71,0,9.834,0,11.545,0c4.205,2.186,5.746,6.228,5.13,10.263
			c-0.389,0.687-1.9,2.209-5.13,3.849c-2.255,0.736-7.536-1.551-7.696,1.282C119.14,390.343,117.857,390.343,116.574,390.343z"/>
		<path fill-rule="evenodd" clip-rule="evenodd" fill="#44281F" d="M133.25,296.705c-1.54-1.684-0.499-2.018,0-3.847
			c1,0.281,5.623-4.011,7.696,0c-2.652,2.415-1.478,6.666-2.566,7.695C136.672,299.271,134.509,298.438,133.25,296.705z"/>
		<path fill-rule="evenodd" clip-rule="evenodd" fill="#44281F" d="M271.78,342.883c0.611,4.595,2.087,7.412,0,11.544
			c-2.55,0.017-1.63,3.5-5.132,2.564c-2.408-2.269,1.527-3.745-1.28-6.413c0.786-1.777,4.937-0.193,5.13-2.565
			c-1.629-2.784-0.305-2.854-2.566-6.412C269.699,341.544,270.749,342.203,271.78,342.883z"/>
		<path fill-rule="evenodd" clip-rule="evenodd" fill="#44281F" d="M206.364,315.945c0.472,2.183-1.001,2.421-2.565,2.565
			c0.106,2.032-0.618,4.894,1.282,5.132c-2.017,4.689-1.918-2.98-5.133-1.282C201.585,319.719,201.995,315.854,206.364,315.945z"/>
	</g>
	<g>
		<path fill-rule="evenodd" clip-rule="evenodd" fill="#280D0A" d="M215.344,105.585c0.997,0.283,1.49,1.074,1.28,2.564
			c1.749-2.547,7.637-4.813,10.262-2.564c0.55,3.542-4.781,1.204-5.13,3.848c-0.856,0-1.71,0-2.566,0c-1.709,0-3.42,0-5.131,0
			c-0.003-1.287,1.039-1.526,1.285-2.565C215.344,106.439,215.344,106.013,215.344,105.585z"/>
		<path fill-rule="evenodd" clip-rule="evenodd" fill="#280D0A" d="M72.964,169.719c0.798,3.478,5.358,3.193,5.131,7.697
			c-3.696-3.833-0.403,5.857-6.414,1.282c2.945-4.271,1.913-4.168,0-8.979c-1.735,0.404-2.45,1.827-5.131,1.283
			c-2.632-11.141,4.885-18.604,14.109-20.523c1.721,0.843,2.389,2.741,2.565,5.13C78.8,159.309,74.164,162.796,72.964,169.719z"/>
		<path fill-rule="evenodd" clip-rule="evenodd" fill="#280D0A" d="M92.204,163.306c1.427-2.849,5.076-3.475,6.413-6.414
			c0.428,0,0.855,0,1.282,0c0.228,4.504-4.332,4.22-5.131,7.696c5.396,1.548,5.625-2.071,8.979-2.564
			c0.748,5.023-5.277,3.275-6.414,6.413c-0.917,3.484,6.048-0.917,5.131,2.566c-0.856,0-1.711,0-2.566,0c-2.565,0-5.131,0-7.695,0
			C92.845,166.966,89.407,165.988,92.204,163.306z"/>
		<path fill-rule="evenodd" clip-rule="evenodd" fill="#280D0A" d="M103.748,171.002c0.819-6.464-0.074-8.815,1.283-12.827
			C108.152,159.275,110.007,171.923,103.748,171.002z"/>
		<path fill-rule="evenodd" clip-rule="evenodd" fill="#280D0A" d="M115.292,158.175c7.303,2.057-2.701,5.868,0,11.544
			c-6.142-0.968-1.559-4.689-2.564-10.262C114.63,161.265,115.484,163.552,115.292,158.175z"/>
		<path fill-rule="evenodd" clip-rule="evenodd" fill="#280D0A" d="M249.975,171.002c0-0.427,0-0.855,0-1.283
			c4.793,1.961,0.943,9.164-1.283,8.979C247.762,174.775,250.905,174.926,249.975,171.002z"/>
		<path fill-rule="evenodd" clip-rule="evenodd" fill="#280D0A" d="M202.516,185.112c2.59-2.967,4.262-6.854,8.979-7.696
			c0.722,5.424-5.043,4.364-5.13,8.979c1.699,0.594,3.397,0.609,2.564,6.413c4.15,1.585,0.979-4.15,5.13-2.565
			c0.924-4.929-6.417-4.974-2.564-8.978c4.471,1.424,6.577,10.095,1.282,15.392c-0.739,3.107-4.845,2.853-7.695,3.848
			C205.987,193.61,203.617,189.995,202.516,185.112z"/>
		<path fill-rule="evenodd" clip-rule="evenodd" fill="#280D0A" d="M230.734,179.981c-0.512,4.19-7.117,2.29-8.979,5.13
			C219.43,176.184,229.486,179.407,230.734,179.981z"/>
		<path fill-rule="evenodd" clip-rule="evenodd" fill="#280D0A" d="M184.558,190.242c-0.322-5.529,2.415,0.848,3.848,1.283
			c-0.936,5.104-0.936,5.156,0,10.262c-5.058,0.354-0.37-9.036-3.848-10.262C184.558,191.098,184.558,190.67,184.558,190.242z"/>
		<path fill-rule="evenodd" clip-rule="evenodd" fill="#280D0A" d="M303.848,213.332c-0.778,2.215-6.084-0.099-6.415,2.564
			c-0.999-1.79,7.066-8.34,10.262-6.413c-1.146-2.272-5.205-1.634-3.847-6.413c4.036-0.615,5.013,1.827,7.696,2.565
			c-6.498,3.727,3.995,2.895,3.849,7.697c-2.574-0.437-4.014,0.261-3.849,2.564c-1.217-1.069-4.142-6.775-6.413-2.564
			C304.701,213.332,304.275,213.332,303.848,213.332z"/>
		<path fill-rule="evenodd" clip-rule="evenodd" fill="#280D0A" d="M289.738,213.332c1.085-1.907,4.13-1.857,6.413-2.566
			c-0.452,1.686-2.258,2.018-2.564,3.848c-0.235,1.091,0.498,1.209,1.282,1.282C292.673,220.407,292.285,212.678,289.738,213.332z"
			/>
		<path fill-rule="evenodd" clip-rule="evenodd" fill="#280D0A" d="M216.624,231.289c0-0.855,0-1.71,0-2.566
			c-0.162-2.301,1.571-2.705,1.283-5.13C219.866,223.613,220.72,233.098,216.624,231.289z"/>
		<path fill-rule="evenodd" clip-rule="evenodd" fill="#280D0A" d="M214.059,232.571c0.429,0,0.855,0,1.285,0
			c1.029,0.678,2.08,1.338,3.846,1.282c-1.709,2.138,0.467,8.164-3.846,7.697c1.075-1.49,1.69-3.439,1.28-6.415
			c-4.15-1.584-0.979,4.15-5.13,2.566c-0.568-1.143-1.127-2.295-2.565-2.566C209.238,232.881,211.135,232.213,214.059,232.571z"/>
		<path fill-rule="evenodd" clip-rule="evenodd" fill="#280D0A" d="M220.473,232.571c4.015-0.596,5.727,1.115,5.132,5.131
			C221.304,238.582,220.916,235.549,220.473,232.571z"/>
		<path fill-rule="evenodd" clip-rule="evenodd" fill="#280D0A" d="M196.102,250.529c2.871,1.832,5.289,4.117,7.697,6.412
			c-0.864,3.73-7.848-4.308-3.851,1.285c0.236,1.089-0.499,1.209-1.281,1.281c-0.854,0-1.711,0-2.565,0
			C197.439,255.875,197.439,254.163,196.102,250.529z"/>
		<path fill-rule="evenodd" clip-rule="evenodd" fill="#280D0A" d="M192.254,262.073c-1.504-3.621-0.254-5.448,1.283-8.979
			c1.614,2.616,2.315,17.62-1.283,11.546C192.254,263.782,192.254,262.928,192.254,262.073z"/>
		<path fill-rule="evenodd" clip-rule="evenodd" fill="#280D0A" d="M260.236,297.988c0.668,7.725,0.036,7.683-1.283,14.111
			c-10.693-4.308-6.745-12.004-10.262-23.09c-3.448-0.883-2.479,2.652-3.848,3.849c-3.76-1.086,0.769-4.131,0-6.413
			c8.751-1.981,3.845,7.721,11.545,3.847C255.534,293.192,254.459,298.559,260.236,297.988z M257.67,306.968
			c0.424-5.553-1.767-8.495-5.13-10.263C253.133,301.243,254.819,304.687,257.67,306.968z"/>
		<path fill-rule="evenodd" clip-rule="evenodd" fill="#280D0A" d="M197.384,321.075c-5.527-4.271-5.012,6.366-11.543,5.133
			c6.753-4.01,2.794-12.599,10.261-14.108C194.646,317.723,196.109,316.311,197.384,321.075z"/>
		<path fill-rule="evenodd" clip-rule="evenodd" fill="#280D0A" d="M189.688,333.903c-0.427,0-0.854,0-1.282,0
			c0.121,2.017-0.172,4.448,2.567,3.848c0.003,1.289-1.04,1.528-1.285,2.566c-0.854,0-1.71,0-2.563,0
			c1.777-5.784-4.988-6.404-1.283-10.262c2.239,3.172,2.83,2.581,2.564-2.565c1.287-0.004,1.527,1.04,2.567,1.283
			C191.259,331.198,189.524,331.603,189.688,333.903z"/>
		<path fill-rule="evenodd" clip-rule="evenodd" fill="#280D0A" d="M238.431,339.034c1.282,0,2.565,0,3.848,0
			c1.06,3.625-1.808,3.323-1.282,6.415C239.089,344.361,239.141,341.319,238.431,339.034z"/>
		<path fill-rule="evenodd" clip-rule="evenodd" fill="#280D0A" d="M143.511,344.166c0.615,4.034-1.827,5.014-2.565,7.695
			c-3.919,0.928-4.674-1.311-7.696-1.283C136.044,347.814,138.708,344.922,143.511,344.166z"/>
		<path fill-rule="evenodd" clip-rule="evenodd" fill="#280D0A" d="M256.389,363.406c1.292,1.996,2.425,8.036-3.849,7.696
			C251.225,365.937,254.537,365.402,256.389,363.406z"/>
		<path fill-rule="evenodd" clip-rule="evenodd" fill="#280D0A" d="M266.648,371.103c-2.137,0-4.273,0-6.412,0
			c2.251-2.024,2.661-5.89,6.412-6.414c0,1.71,0,3.421,0,5.13C266.648,370.247,266.648,370.674,266.648,371.103z"/>
		<path fill-rule="evenodd" clip-rule="evenodd" fill="#280D0A" d="M92.204,174.85c0.6,4.021-3.226,3.615-5.131,5.131
			c0.243-1.039,1.286-1.279,1.282-2.566c-2.649,0.182-9.055-1.503-10.26-6.414c2.176-2.526,5.964-3.441,10.26-3.848
			C86.956,174.936,87.975,173.537,92.204,174.85z"/>
		<path fill-rule="evenodd" clip-rule="evenodd" fill="#280D0A" d="M228.169,105.585c6.036-1.334,6.449,2.957,8.979,5.131
			c2.719-2.804-4.042-7.01-5.13-10.262c5.28-1.205,12.217,13.142,8.979,20.523C240.436,114.785,234.693,109.303,228.169,105.585z"/>
		<path fill-rule="evenodd" clip-rule="evenodd" fill="#280D0A" d="M232.018,126.108c9.934,3.637,14.152-9.936,12.826-17.959
			c13.541,19.601-11.732,33.506-12.826,43.612c0.828-6.743,4.389-3.13,8.979-5.13c0.227-6.188,4.643-8.185,7.695-11.545
			c0.956,3.949-3.52,2.466-2.563,6.414c4.547-1.01,4.407-6.709,8.979-7.695c-7.008,0.166-7.671-13.224-2.566-17.958
			c0.764,2.658-1.586,8.426,1.282,8.979c1.37-1.197,0.399-4.731,3.848-3.848c1.06,3.626-1.807,3.323-1.281,6.414
			c5.047,2.055,0.446-5.54,3.848-5.13c0.106,2.03-0.617,4.892,1.282,5.13c-0.628-4.048,2.311-4.529,1.283-8.979
			c-5.074-1.34-7.384-5.444-11.543-7.696c2.3,0.162,2.705-1.571,5.13-1.283c4.145,0.984,6.712,3.55,7.695,7.696
			c-1.509,7.433,12.202,12.29,6.414,19.241c-3.842-0.844,1.227-2.742,0-5.131c-6.067,2.615-10.084,9.25-15.392,8.979
			c-0.19,3.182-0.24,6.225,2.563,6.414c1.196,0.784,4.732,2.984,3.849-1.283c-2.704-4.943,2.996,2.142,7.697-1.282
			c0-1.711,0-3.421,0-5.132c2.027,3.898,5.626,1.782,7.694,8.98c-3.499,0.934-2.582-2.549-5.13-2.566
			c-3.77,12.973-11.616,31.704-3.849,44.894c3.819,0.066,6.508-3.773,8.979-1.283c-0.187,2.805-3.23,2.754-6.412,2.566
			c5.093,5.269,7.584-1.763,14.11,1.282c-4.651-6.306-4.04-9.986-7.698-16.675c4.259,3.881,1.438-7.093,5.133-7.697
			c-0.562-1.903-1.642,0.506-3.849,0c-1.667,2.373,6.737-7.636,0-10.261c2.515-3.425,9.072,6.818,3.849,7.696
			c6.789,0.748,0.815-5.275,3.847-6.414c1.491-0.208,2.283,0.284,2.565,1.283c-11.256,13.295-4.124,27.525,15.393,25.655
			c1.199,0.939,1.943,2.332,2.566,3.847c0,0.428,0,0.856,0,1.283c-3.761-0.089-2.812-4.886-7.697-3.849
			c0.442,3.406,3.368,4.329,6.414,5.131c-1.04,5.794-8.71-2.489-5.131,5.131c-5.01,0.307-4.642-4.765-6.413-7.696
			c-1.641,0.07-1.776,1.644-3.849,1.283c0.22,1.919-0.459,4.733,1.282,5.131c-0.91,1.65-7.303-2.02-10.262-2.565
			c-1.936,3.516-3.497,2.304-6.412,6.413c-4.476-1.513-3.258-8.715-8.979-8.979c0-0.855,0-1.71,0-2.566
			c-4.63,5.374-8.931,0.542-11.546,5.132c-0.026-4.123-4.612-7.136-5.131-14.109c3.336,3.505,5.194,8.489,10.262,10.261
			c1.287,0.004,1.527-1.039,2.565-1.283c-1.252-1.312-2.535-2.594-3.849-3.847c1.667-11.731,1.055-25.022,7.698-32.067
			c-2.461-4.007-6.494,1.081-7.698,2.564c-3.926-3.555-0.416-7.032-5.13-10.261c-2.24,1.18-2.831,4.01-2.565,7.697
			c-4.639-2.476-8.836,4.924-12.827,3.847c0,1.71,0,3.421,0,5.131c7.88-0.245,9.339-6.909,15.393-8.979
			c2.14,10.29-12.885,6.379-14.109,17.957c0.142,3.14,4.241,0.272,3.848-1.283c3.482,1.167-1.307,4.495-1.282,6.414
			c-1.516-0.185-2.907-2.284-3.849,0c-0.854,0-1.71,0-2.563,0c-1.712,0-3.422,0-5.133,0c-0.165-2.304,1.274-3.001,3.849-2.565
			c-0.177-2.389-0.845-4.287-2.565-5.131c-1.597,4.989-5.108,2.343-11.545,3.849c-0.907,4.757,2.192,5.504,1.283,10.261
			c-1.101-8.305-11.563-7.249-8.979-19.24c-1.765-0.056-2.816,0.604-3.849,1.282c-0.121,6.353,5.326,9.678-2.564,11.545
			c0.283-0.999,1.073-1.491,2.564-1.283c-6.293-3.017-3.443-14.885-11.544-12.827c0.087,3.761,2.932,4.764,5.132,6.413
			c-8.161,2.172-15.554-12.94-11.546-23.088c-5.197,2.55-2.305,9.051-2.563,14.109c-4.637,1.216-1.791-5.051-2.566-7.695
			c-5.895-0.089,1.533,8.563-5.131,3.848c-0.069,2.207,0.987,3.288,2.565,3.848c0.918,3.484-6.049-0.917-5.131,2.566
			c-7.103-1.545-7.452,3.664-12.828,3.848c-4.313-3.02,4.146-14.434-3.848-15.392c-0.767-2.284,3.759-5.327,0-6.413
			c0-0.429,0-0.856,0-1.284c0-0.855,0-1.711,0-2.565c3.626,1.06,3.323-1.808,6.414-1.283c1.422,2.427,1.636,6.061,2.565,8.98
			c2.357-4.483,3.73-9.952,6.413-14.109c0-0.428,0-0.856,0-1.283c5.821,2.401,1.746-5.096,6.414-3.848
			c0.644,5.346-3.749,5.657-2.565,11.544c4.131-1.854,7.572-4.398,8.979-8.979c4.544,0.142-2.726,4.24,1.282,3.847
			c0.996,1.142,1.38,2.897,1.285,5.131c-0.64,6.197,4.592,6.523,10.261,6.414c1.03-0.679,2.081-1.339,3.848-1.283
			c0,0.427,0,0.855,0,1.283c-1.041,0.243-1.28,1.286-2.565,1.283c3.33,4.91,13.73,5.353,14.108-2.566
			c-0.231-2.798,1.05-4.081,3.849-3.848c-0.437,2.575,0.262,4.013,2.566,3.848c-0.207,1.503-2.34,1.082-3.85,1.283
			c0.064,6.326,2.629,6.332,7.696,5.13c-5.624-4.523,2.631-3.288,2.565-8.979c-0.163-2.301,1.571-2.706,1.283-5.13
			c-0.547-6.088-1.112-6.274,0-11.544C231.162,126.108,231.59,126.108,232.018,126.108z M291.021,185.112
			c-3.62,1.502-5.448,0.254-8.978-1.283c-0.46,5.528,3.19,4.953,6.412,3.848c0.192,1.709-5.216,3.871-1.282,5.131
			c0.283-1,1.073-1.491,2.565-1.282C288.678,187.899,291.547,188.202,291.021,185.112z M185.841,137.652
			c2.484-0.199,0.307,10.608,3.847,5.13c-3.758-1.086,0.768-4.129,0-6.413C188.179,136.57,186.048,136.149,185.841,137.652z
			 M184.558,150.479c-1.48-4.167,3.917-7.89,0-10.262C183.204,141.551,181.908,149.377,184.558,150.479z M196.102,160.74
			c-4.017-4.454,3.957-6.787,0-10.261C194.568,152.709,191.102,159.55,196.102,160.74z M211.494,156.892
			c1.508,0.202,3.641-0.221,3.85,1.283c-0.783,0.073-1.521,0.192-1.285,1.282c4.043,0.196,2.496-5.2,5.131-6.412
			C216.259,150.265,211.188,152.579,211.494,156.892z M228.169,167.154c3.559-1.919-2.227-5.247,1.282-6.414
			c2.888,0.533-0.191,7.034,3.849,6.414c3.02-3.661-1.009-8.491-2.565-11.545C227.901,157.367,220.182,166.274,228.169,167.154z
			 M217.907,172.285c0.845-1.722,2.741-2.389,5.132-2.566c-0.157-3.264-1.868-4.974-5.132-5.131
			C219.414,167.99,215.449,172.142,217.907,172.285z"/>
		<path fill-rule="evenodd" clip-rule="evenodd" fill="#280D0A" d="M228.169,115.846c1.897,0.667,3.233,1.898,5.131,2.565
			c1.979,5.398-6.638,0.204-6.414,3.848c-1.248,0.035-0.995,1.57-1.281,2.565c-1.283,0-2.565,0-3.849,0
			c-4.252,2.206-5.565-0.772-7.697-3.848c2.645-0.687,0.308-6.068,3.849-2.565c-0.159-3.21-2.448-4.016,1.282-5.13
			c0,0.855,0,1.71,0,2.565c2.409,2.446-0.761,2.321,0,6.414c3.33-0.52,3.703-3.993,5.132-6.414
			C225.604,115.846,226.886,115.846,228.169,115.846z"/>
		<path fill-rule="evenodd" clip-rule="evenodd" fill="#280D0A" d="M129.402,147.914c-3.191,9.202,5.701,12.978,2.565,21.805
			c3.668-0.179,2.345-5.35,2.565-8.979c5.959,0.261,0.49,7.071,1.283,10.262c-8.252,2.203-9.89,2.915-16.675,0
			c0.193-3.191,4.344-0.375,5.131,0c1.857-4.85-3.524-2.461-2.565-6.414c1.142,0.997,2.897,1.38,5.132,1.283
			c0.647,4.029-3.024,5.241,1.282,6.414C131.942,166.349,124.042,152.877,129.402,147.914z"/>
		<path fill-rule="evenodd" clip-rule="evenodd" fill="#280D0A" d="M147.359,169.719c-10.042-4.161-10.256-21.248,1.282-24.371
			c0,0.427,0,0.855,0,1.283c-1.667,3.185,3.764,5.323,0,6.414c-0.176-2.39-0.844-4.288-2.564-5.131
			c-1.598,3.104-3.175,6.23-3.849,10.261c6.294,0.699,2.363,7.327,5.131,10.261c1.516-2.759,5.475-3.075,3.848-8.979
			c-1.51-0.2-3.641,0.221-3.848-1.282c3.542,0.55,1.203-4.782,3.848-5.13c3.529,1.602,2.751,7.51,6.414,8.979
			c-1.106-6.009-3.779-9.159-1.282-14.109c5.487,4.877,4.926,9.771,3.847,16.674c-2.974-0.409-4.924,0.207-6.413,1.283
			C151.505,167.023,150.028,168.968,147.359,169.719z"/>
		<path fill-rule="evenodd" clip-rule="evenodd" fill="#280D0A" d="M225.604,246.682c1.494-3.843,3.477-12.656,0-14.11
			c1.581-1.839,4.408-2.431,7.695-2.565c-1.36-4.395-11.366-3.073,0-3.848c-0.209-1.492,0.282-2.283,1.284-2.565
			c0.218-1.737-7.426-1.663-2.566-3.849c-3.179-1.953-5.417-4.844-6.413-8.979c-4.757,0.91-5.505-2.19-10.261-1.283
			c-0.168-4.441,5.641-2.908,6.412-6.413c0.39-3.384-2.678-3.309-5.132-3.849c1.756-4.811,9.279-5.518,10.262,1.283
			c-1.248-0.035-0.995-1.57-1.281-2.565c-1.039,0.244-1.278,1.287-2.565,1.282c-0.544,2.682,0.88,3.397,1.282,5.131
			c3.817,0.066,6.508-3.773,8.979-1.282c-1.181,2.24-4.011,2.831-7.695,2.565c2.446,7.793,14.181,7.286,14.108,14.109
			c7.602,2.043,4.063-7.053,8.979-7.696c-2.795,2.683,0.641,3.662,0,7.696c-8.836,2.238-6.014,10.904-11.544,17.958
			c-1.032-0.679-2.083-1.339-3.848-1.282c1.705,6.176,2.623,0.019-1.282,3.848c-4.102,4.021-2.125,12.915,2.566,15.393
			c-3.437,4.581-5.824-2.627-10.263-1.282c0.142-2.425,4.24-0.891,3.848-3.849c-4.384,0.822-7.493,2.004-5.13,6.412
			c-0.856,0-1.711,0-2.566,0c0-0.854,0-1.709,0-2.563c-2.621,1.227-5.077,2.619-7.696,3.849
			c-0.264-2.874,10.135-6.083,12.828-10.264C225.604,247.537,225.604,247.107,225.604,246.682z"/>
		<path fill-rule="evenodd" clip-rule="evenodd" fill="#280D0A" d="M183.275,182.546c-0.429,0-0.855,0-1.283,0
			c0.282-4.13-2.269-5.427-1.283-10.261c4.903,1.054,1.512-6.185,6.415-5.13c-0.072,4.204-3.648,4.902-2.566,10.261
			c4.819,0.152,4.34,2.343,6.415,2.566c-0.202,1.509,0.219,3.641-1.285,3.848C185.661,184.462,186.299,179.408,183.275,182.546z"/>
		<path fill-rule="evenodd" clip-rule="evenodd" fill="#280D0A" d="M312.827,262.073c-1.44-0.271-1.997-1.423-2.566-2.565
			c-0.375-2.979-3.221-6.012,2.566-5.13C312.431,257.375,310.316,259.677,312.827,262.073z"/>
		<path fill-rule="evenodd" clip-rule="evenodd" fill="#280D0A" d="M284.608,209.482c2.269-0.823,5.424-7.265,7.695-3.848
			c-4.323,0.38-3.719,5.687-7.695,6.413C284.608,211.193,284.608,210.338,284.608,209.482z"/>
		<path fill-rule="evenodd" clip-rule="evenodd" fill="#280D0A" d="M251.259,200.504c4.727-0.031,8.563-7.608,11.543-5.131
			c-1.411,8.423-4.358,15.311-7.695,21.806c-0.997-0.289-2.531-0.036-2.566-1.284c1.478-1.617,5.87-6.821,2.566-8.979
			c-2.542,2.162-3.516,5.893-5.132,8.979c-0.021-5.107-1.227-9.034-3.847-11.543c-0.021,3.401,0.712,7.553-2.567,7.696
			c-0.7-1.864,1.499-6.629-1.282-6.413c-1.248,3.026-3.649,4.9-5.131,7.697c0.618-7.064,3.399-6.496-1.282-7.697
			c4.187-2.227,11.58-1.247,14.109-5.131C250.401,200.504,250.83,200.504,251.259,200.504z"/>
		<path fill-rule="evenodd" clip-rule="evenodd" fill="#280D0A" d="M203.799,236.42c1.613-0.318,1.292-2.55,0-2.566
			c4.039-3.004,3.553,11.96,1.282,12.828C203.096,244.817,203.95,240.114,203.799,236.42z"/>
		<path fill-rule="evenodd" clip-rule="evenodd" fill="#280D0A" d="M194.818,235.136c0.111-1.819,0.213-3.633-1.281-3.847
			c0.559-1.904,1.642,0.506,3.847,0c-0.271-3.736-5.031-6.36-2.565-8.979c0.723,6.545,9.826,4.711,14.11,7.695
			c-2.662,1.164-9.269-0.647-7.695,7.696c-0.271,1.438-1.425,1.996-2.566,2.565c-0.056,1.766,0.604,2.815,1.281,3.848
			c2.725,5.943-5.202-1.897-2.564-7.695c-0.854,0-1.71,0-2.565,0C194.818,235.991,194.818,235.564,194.818,235.136z"/>
		<path fill-rule="evenodd" clip-rule="evenodd" fill="#280D0A" d="M199.948,203.07c1.565,0.145,3.038,0.383,2.567,2.565
			c-0.155,3.694-5.47,2.226-5.132,6.413c0.867,3.246,4.263-4.637,5.132,1.284c-4.413,0.717-6.525,3.735-8.979,6.413
			c3.673-6.021,0.218-11.671,5.13-15.392C199.449,204.279,200.185,204.16,199.948,203.07z"/>
		<path fill-rule="evenodd" clip-rule="evenodd" fill="#280D0A" d="M180.709,203.07c-0.361-2.072,1.213-2.209,1.283-3.849
			c1.616,5.096,2.59,3.4,5.132,6.414c-3.889,21.023-8.139,32.812-7.697,52.592c1.305,21.43-2.343,39.998-3.849,64.134
			c-3.977,0.129-6.128-1.569-8.979-2.566c-2.337,4.932-3.701,10.836-6.414,15.394c-2.031,0.106-4.892-0.618-5.131,1.281
			c0.56,1.905,1.642-0.504,3.848,0c-1.145,4.898,2.095,8.188,0,10.263c-2.664-0.331-0.35-5.636-2.564-6.414
			c-0.038,4.839-2.04,10.741-1.284,15.394c-6.43-0.939,0.417-7.173,0-10.262c-5.733-1.477-1.634,6.151-3.848,2.563
			c-5.404,0.092,2.85-4.739,0-10.262c-4.383,0.825-7.495,2.004-5.13,6.415c-5.248,0.701-4.336-5.538-1.283-6.415
			c-4.836-1.752-1.739-4.798-7.696-6.413c0.124-3.295,5.007-1.833,5.131-5.13c2.844,0.705,1.826-2.45,3.849-2.565
			c1.282,0,2.564,0,3.847,0c-3.732,1.826-4.246,6.87-6.413,10.261c6.702,3.671,11.506-5.569,17.958-6.413
			c-1.708-3.423-1.884-8.378-6.414-8.979c1.012-1.283,4.486,0.479,6.414-2.565c-3.75-4.443-5.285-3.193-11.544-5.13
			c1.308-1.686,1.258-4.728,2.566-6.413c1.975,1.445,3.156,3.685,5.131,5.13c1.411-2.787,6.328-10.116,1.282-11.544
			c2.024-3.531,4.59-6.56,7.696-2.564c-0.544-2.682,0.88-3.396,1.282-5.132c-0.833-1.304-2.949-1.326-2.564-3.847
			c-2.481,3.365-6.467,7.599-12.827,10.26c-1.623-5.077,9.631-8.299,11.543-14.109c0-0.426,0-0.854,0-1.282
			c-0.708-2.285-0.658-5.325-2.565-6.412c2.216-2.131,4.611,6.439,7.696,7.694c-0.671-3.88,4.279-9.202,5.131-15.393
			c0-0.428,0-0.854,0-1.282c3.368-4.692-1.418-16.447,1.282-23.089c-9.022-2.587-19.424,4.506-21.805,12.828
			c-1.248-0.036-0.996-1.571-1.283-2.566c0-0.426,0-0.855,0-1.282c5.583-6.389,9.059-14.884,19.24-16.676
			c10.935,5.598,7.072-14.056,6.413-14.108c0.194-2.372,4.344-0.788,5.132-2.566C183.277,211.857,180.613,211.709,180.709,203.07z"
			/>
		<path fill-rule="evenodd" clip-rule="evenodd" fill="#280D0A" d="M230.734,282.596c2.956-7.565,11.562-26.229,2.565-33.35
			c3.483,0.918-0.918-6.049,2.565-5.131c1.515,0.623,2.907,1.369,3.848,2.566c-3.55-1.694-4.403,5.07-2.565,1.281
			c5.691,0.133,3.991-7.126,7.696-8.979c0.199-3.19-2.015-3.971-2.565-6.413c1.898-0.667,3.232-1.898,5.13-2.565
			c0.387-2.521-1.731-2.543-2.564-3.848c0.718-1.848,2.002-3.131,3.848-3.848c-0.402,1.732-1.825,2.449-1.283,5.131
			c6.538-1.406,1.919-6.892,7.698-7.697c4.701,17.104,12.238,31.371,20.522,44.896c-0.647,3.764-2.426,0.731-3.849,5.13
			c1.8,2.612,4.419-1.261,7.696,1.281c1.091-0.235,1.21,0.501,1.282,1.284c-0.289,1.847-3.828,0.446-3.849,2.566
			c-6.806-0.627,4.255,4.535-1.281,6.412c-8.937-0.757-4.766-7.126-10.261-10.263c1.493,6.202,0.939,14.454,6.412,16.675
			c0,0.429,0,0.857,0,1.284c-1.039-0.244-1.279-1.286-2.564-1.284c-0.107,2.033,0.617,4.894-1.284,5.133
			c-4.716-8.403-28.946-9.988-21.804-21.808c-0.731,4.322,5.589,5.476,2.563,11.545c2.682,0.543,3.396-0.879,5.131-1.282
			c-2.938-4.333-4.906-9.631-6.414-15.393c-1.086,1.905-4.128,1.855-6.412,2.566c0.739-0.779,3.001-6.084,0-6.414
			c-6.43,14.447,0.375,26.122-3.849,38.48c2.843,0.706,1.827-2.448,3.849-2.565c0.042,4.981-2.405,8.38-1.283,11.544
			c0.428,0,0.855,0,1.283,0c-1.471,4.036,2.015,3.117,2.564,5.132c-4.379,0.75-0.73,9.53-3.848,11.544
			c-1.173-2.249-0.441-6.4-2.565-7.697c-2.372,9.671,7.266,14.076,5.131,19.24c-2.735-0.359-3.707-8.982-5.131-6.413
			c-1.699,7.886,4.279,15.486,2.565,23.089c-0.854,0-1.711,0-2.565,0c-1.924-1.497-3.136-3.704-6.413-3.849
			c3.173,2.241,2.582,2.832-2.565,2.567c-9.063,0.938-14.328-1.921-19.24-5.133c0.499-1.393,1.54-3.079,0-1.281
			c-3.095-7.824,7.929-12.575,6.415-23.089c1.698-7.706,6.685-12.129,7.695-20.523C226.693,297.367,229.866,291.135,230.734,282.596
			z M265.368,250.529c-5.761-2.387-10.75-12.309-19.24-7.697C255.446,241.661,259.587,252.426,265.368,250.529z M247.408,265.921
			c1.073-4.379-0.265-6.067,7.698-5.131c-1.511-2.626-3.852-3.006,0-7.696c0.993-0.286,2.528-0.034,2.563-1.282
			c-5.624-1.72-7.622,0.859-11.542-2.565c1.687,0.169,9.281,0.193,5.131-1.283c-2.138,0-4.276,0-6.415,0
			C244.041,251.976,240.392,265.898,247.408,265.921z M224.321,345.449c-1.37,1.195-0.401,4.73-3.849,3.847
			c1.145-2.818,5.184-10.103,0-11.545c0.935,5.621-2.548-1.032-2.565,2.566c1.197,1.368,4.731,0.398,3.849,3.849
			c-3.2,2.466-5.271-1.959-7.697,1.283c3.219,3.893,4.503,1.746,6.414,6.412c3.184-0.779,12.572-2.717,6.413-5.13
			C224.632,354.285,225.766,341.402,224.321,345.449z M262.802,245.398c-0.278-4.062-6.694-8.612-8.979-6.414
			C257.94,239.998,259.428,243.643,262.802,245.398z M257.67,272.335c0.563-4.409-0.506-7.19-1.281-10.262
			c-3.191,0.14-3.971,2.402-6.414,0c0,1.709,0,3.421,0,5.13c3.948,0.955,2.465-3.52,6.414-2.563
			C254.278,266.631,255.84,270.623,257.67,272.335z M257.67,282.596c2.426-0.286,2.829,1.446,5.132,1.283
			c-3.004-3.581-0.02-8.397-6.413-10.262C256.798,276.63,258.415,278.432,257.67,282.596z"/>
		<path fill-rule="evenodd" clip-rule="evenodd" fill="#280D0A" d="M194.818,245.398c0.245,1.455,1.288,0.712,1.283,0
			c1.874,0.727-2.416,6.035-5.129,6.413c-0.957-3.948,3.518-2.466,2.564-6.413C193.964,245.398,194.392,245.398,194.818,245.398z"/>
		<path fill-rule="evenodd" clip-rule="evenodd" fill="#280D0A" d="M206.364,256.941c-1.212-3.918-6.243-4.019-6.416-8.979
			c2.982-3.098,3.435,2.005,6.416,2.566c0.243,1.038,1.287,1.277,1.281,2.564c0.216,2.88,4.239,8.451,2.565,8.979
			C208.478,260.813,207.647,258.65,206.364,256.941z"/>
		<path fill-rule="evenodd" clip-rule="evenodd" fill="#280D0A" d="M220.473,259.508c3.924,0.931,3.773-2.212,7.696-1.281
			c0,0.426,0,0.854,0,1.281c-5.233,0.676-12.658,5.867-16.675,11.543c7.586-2.461,9.186-6.064,17.957-8.978
			c-4.83,5.431-11.903,8.618-19.24,11.544c-0.188,8.673-2.045-7.214-7.695-5.13c1.332,5.183-2.708,7.346-2.567,14.108
			c-4.634-1.755,0.7-9.658-3.847-8.979c-0.142-6.361,1.26-6.303,0-11.544c3.948,0.898,2.465,0.898,6.414,0
			c0.599,2.736-1.832,2.444-3.849,2.566c0.13,3.289,4.78,2.06,6.414,3.848c0.367-2.236-4.097-6.886,1.283-6.414
			c0,0.428,0,0.854,0,1.284c0.666,1.897,1.896,3.23,2.564,5.13C214.153,266.871,215.643,261.518,220.473,259.508z"/>
		<path fill-rule="evenodd" clip-rule="evenodd" fill="#280D0A" d="M220.473,274.901c4.604-1.384,3.761-8.213,10.262-7.698
			C227.594,270.05,225.969,274.412,220.473,274.901z"/>
		<path fill-rule="evenodd" clip-rule="evenodd" fill="#280D0A" d="M185.841,300.554c1.901,1.089,2.758,3.228,2.564,6.414
			c4.054,0.633,0.477-6.365,5.132-5.132c1.033,5.739-2.283,7.124-6.413,7.696c3.703,5.132,1.54,8.508,0,14.11
			c-1.395-0.318-0.871-2.552-2.566-2.567c6.868-5.465-2.709-12.787,2.566-17.956c-4.112,2.624-4.665,2.07-2.566-2.565
			C184.985,300.554,185.412,300.554,185.841,300.554z"/>
		<path fill-rule="evenodd" clip-rule="evenodd" fill="#4C402E" d="M139.663,315.945"/>
		<path fill-rule="evenodd" clip-rule="evenodd" fill="#4C402E" d="M138.38,324.926"/>
		<path fill-rule="evenodd" clip-rule="evenodd" fill="#280D0A" d="M238.431,391.625c3.541,2.287,10.135-1.242,8.978-7.696
			C254.863,386.645,239.578,401.433,238.431,391.625z"/>
		<path fill-rule="evenodd" clip-rule="evenodd" fill="#280D0A" d="M271.78,319.794c-0.066-0.639-6.1,1.325-7.696-2.565
			c2.138,0,4.277,0,6.414,0C271.744,317.266,271.494,318.799,271.78,319.794z"/>
		<path fill-rule="evenodd" clip-rule="evenodd" fill="#280D0A" d="M258.953,386.495c0.187,3.606-3.141,3.7-6.413,3.848
			c5.886,4.523,1.558,5.329-2.565,11.543c-1.646-5.298,1.827-9.82,3.848-16.674C254.963,386.208,256.72,386.591,258.953,386.495z"/>
		<path fill-rule="evenodd" clip-rule="evenodd" fill="#280D0A" d="M239.713,95.323c0.996,1.142,1.38,2.897,1.283,5.131
			c-0.287,0.996-0.036,2.53-1.283,2.566c-0.02-4.684-3.646-5.76-5.129-8.979C236.316,94.444,237.031,95.867,239.713,95.323z"/>
		<path fill-rule="evenodd" clip-rule="evenodd" fill="#280D0A" d="M196.102,113.281c0.854,0,1.711,0,2.565,0
			c0,0.427,0,0.855,0,1.282c0,1.283,0,2.565,0,3.848c2.453,0.597,5.521-3.954,5.132,1.283c-1.034,0.679-2.082,1.338-3.851,1.282
			c-4.937,0.628-4.39-3.432-8.976-5.13c0-0.428,0-0.855,0-1.283c1.64-0.07,1.773-1.644,3.846-1.282
			C195.247,113.281,195.674,113.281,196.102,113.281z"/>
		<path fill-rule="evenodd" clip-rule="evenodd" fill="#280D0A" d="M294.869,165.871c1.022,2.397,2.142,4.698,2.563,7.696
			c-0.523,1.612-1.652,2.622-3.846,2.565C292.33,171.7,289.096,167.712,294.869,165.871z"/>
		<path fill-rule="evenodd" clip-rule="evenodd" fill="#280D0A" d="M279.477,263.357c2.682-0.741,3.66-3.182,7.696-2.567
			c1.857-4.85-3.523-2.463-2.564-6.412c0.428,0,0.854,0,1.281,0c2.933,1.771,8.004,1.402,7.697,6.412
			c-3.617,5.362-4.78,13.178-8.979,17.958c0-0.855,0-1.71,0-2.566c0-0.427,0-0.854,0-1.28c-1.035-7.021,3.852-8.121,6.412-11.544
			C287.34,260.645,282.176,268.281,279.477,263.357z"/>
		<path fill-rule="evenodd" clip-rule="evenodd" fill="#280D0A" d="M269.216,309.532c0.678,1.033,1.337,2.082,1.282,3.85
			c-3.278-2.203-4.49,1.469-6.414-1.282C266.633,312.082,265.718,308.598,269.216,309.532z"/>
		<path fill-rule="evenodd" clip-rule="evenodd" fill="#280D0A" d="M151.208,385.212c-3.069,2.062-6.042,4.221-11.544,3.849
			c-3.848,0-7.696,0-11.544,0c-0.571-3.707-9.691,1.139-10.262-2.565c4.089,1.094,4.869-1.117,6.413-2.566
			c1.939,5.493,4.398-2.606,8.979,1.283c0.615-4.035-1.827-5.015-2.565-7.696c0.428,0,0.855,0,1.283,0
			c6.576-1.976,6.071-11.031,15.392-10.262c-1.565-7.853-11.527,1.104-15.392-2.565c3.098-2.889,7.373-4.6,12.827-5.131
			c-0.068,2.207,0.988,3.288,2.565,3.849c1.87-3.233,6.867-2.407,7.696-1.282c0,1.282,0,2.564,0,3.848
			c-1.518-0.377-4.845-5.166-6.414-1.283c1.551,0.271,0.79,1.425,0,2.565c3.401,0.02,7.553-0.712,7.697,2.564
			c-5.386,1.207,0.392,6.93-3.849,10.262c-0.428,0-0.855,0-1.283,0C149.722,381.979,149.722,383.314,151.208,385.212z
			 M133.25,380.08c4.151-1.585,0.98,4.15,5.13,2.566c0-2.139,0-4.276,0-6.414C135.17,376.016,134.365,378.203,133.25,380.08z"/>
		<path fill-rule="evenodd" clip-rule="evenodd" fill="#280D0A" d="M240.996,199.221c-0.428,0-0.855,0-1.283,0
			c-14.321,0.528-4.872-17.591,6.415-14.109c0.07,4.203,3.646,4.903,2.563,10.261C242.734,192.071,245.832,198.412,240.996,199.221z
			 M237.147,190.242c-0.769,3.594,8.848,3.841,8.98-1.283C242.72,188.973,238.802,188.475,237.147,190.242z"/>
		<path fill-rule="evenodd" clip-rule="evenodd" fill="#280D0A" d="M244.844,254.378c2.673-2.454,5.411-0.293,7.696,0
			c-1.447,2.4-1.517,6.178-6.412,5.13C246.021,257.477,246.744,254.615,244.844,254.378z"/>
		<path fill-rule="evenodd" clip-rule="evenodd" fill="#280D0A" d="M289.738,242.832c0.701,1.864-1.498,6.63,1.282,6.414
			c0.622-2.283,1.368,0.557,2.566,1.283c-0.937-3.5,2.547-2.582,2.564-5.131c-2.207-0.507-3.287,1.903-3.848,0
			c1.29-7.862,10.467-3.495,10.261-8.979c2.427,0.287,2.831-1.447,5.13-1.284c2.138,2.549-0.115,1.632,0,5.132
			c-2.441-2.403-3.221-0.141-6.412,0c1.342,11.146,8.102,19.18,2.565,26.936c1.05-4.486-3.927-12.851-7.696-16.674
			c-0.229,4.182,3.015,6.174-2.564,6.412c0-1.709,0-3.419,0-5.13c-3.187-1.669-5.323,3.764-6.414,0
			c1.477-1.516,1.451-4.532,1.282-7.696C288.094,241.823,289.668,241.484,289.738,242.832z"/>
		<path fill-rule="evenodd" clip-rule="evenodd" fill="#280D0A" d="M293.587,203.07c2.496,2.889,4.002,6.764,8.978,3.847
			c0.391,3.383-2.678,3.309-5.132,3.848C296.296,208.057,293.529,206.975,293.587,203.07z"/>
		<path fill-rule="evenodd" clip-rule="evenodd" fill="#280D0A" d="M137.098,319.794c1.198-0.939,1.943-2.332,2.565-3.849
			c3.74,2.195-2.906,4.67-1.283,8.98c-1.076,4.073-1.691-2.278-1.282-3.851C137.098,320.649,137.098,320.223,137.098,319.794z"/>
	</g>
	<g>
		<path fill-rule="evenodd" clip-rule="evenodd" fill="#705750" d="M208.929,87.627c4.656-1.971,7.105,4.703,3.848,6.414
			C208.771,94.627,208.676,91.3,208.929,87.627z"/>
		<path fill-rule="evenodd" clip-rule="evenodd" fill="#705750" d="M155.055,133.805c2.072,0.36,2.208-1.213,3.848-1.283
			c3.825,4.555-4.129,6.314,1.283,10.261c0,0.428,0,0.855,0,1.284c-1.247,0.035-0.996,1.569-1.283,2.565
			c-3.263-0.157-4.973-1.868-5.13-5.131C160.307,144.572,149.9,137.061,155.055,133.805z"/>
		<path fill-rule="evenodd" clip-rule="evenodd" fill="#705750" d="M139.663,142.783c1.831,0.307,2.164,2.113,3.848,2.565
			c-4.611,1.89-2.282,2.76-3.848,7.697c-4.809-1.013-0.081-4.487-2.565-6.414c-2.373,0.192-0.788,4.343-2.565,5.13
			c-1.721-0.259-2.389-5.327-2.565,0c-1.495-0.216-1.393-2.027-1.283-3.848c2.016-0.123,4.447,0.171,3.848-2.566
			c0-0.428,0-0.855,0-1.282C136.563,143.958,139.425,144.682,139.663,142.783z"/>
		<path fill-rule="evenodd" clip-rule="evenodd" fill="#705750" d="M110.161,144.066c1.04,0.243,1.278,1.286,2.566,1.282
			c-1.253,3.816-0.415,7.729-5.131,5.131c-0.525,3.091,2.343,2.788,1.282,6.413c-3.102-1.601-4.148-5.257-5.13-8.978
			C108.062,148.807,107.953,145.277,110.161,144.066z"/>
		<path fill-rule="evenodd" clip-rule="evenodd" fill="#705750" d="M249.975,171.002c-3.123-3.209-0.156-11.21,3.848-11.545
			c-1.124,3.58-3.069,6.336-3.848,10.262C249.975,170.147,249.975,170.575,249.975,171.002z"/>
		<path fill-rule="evenodd" clip-rule="evenodd" fill="#705750" d="M234.584,176.133c0.854,0,1.709,0,2.563,0
			c6.12-0.072-3.707,7.213-5.13,3.849C232.133,177.959,235.289,178.977,234.584,176.133z"/>
		<path fill-rule="evenodd" clip-rule="evenodd" fill="#705750" d="M303.848,213.332c0.428,0,0.854,0,1.283,0
			c1.283,0,2.563,0,3.849,0c-2.688,3.884,0.283,10.577-1.285,12.827c-4.304-2.974-0.501-4.204-2.563-10.263
			c-0.855,0-1.711,0-2.566,0C302.81,214.857,303.852,214.617,303.848,213.332z"/>
		<path fill-rule="evenodd" clip-rule="evenodd" fill="#705750" d="M297.433,221.027c-4.965-2.671-2.093,1.911-7.694,1.283
			c-0.543-2.682,0.879-3.396,1.282-5.131C291.896,219.723,298.662,216.378,297.433,221.027z"/>
		<path fill-rule="evenodd" clip-rule="evenodd" fill="#705750" d="M216.624,228.723c0,0.856,0,1.711,0,2.566
			c-1.09-0.236-1.208,0.5-1.28,1.282c-0.43,0-0.856,0-1.285,0c-0.939-1.198-2.332-1.942-3.848-2.565c0.94-2.284,2.333-0.186,3.848,0
			c0.122-4.048-3.429-7.65,2.565-7.695C215.886,223.088,213.623,228.395,216.624,228.723z"/>
		<path fill-rule="evenodd" clip-rule="evenodd" fill="#705750" d="M225.604,246.682c0,0.426,0,0.855,0,1.281
			c-4.751,2.42-3.551-6.129-1.283-8.979C227.153,239.145,224.864,244.427,225.604,246.682z"/>
		<path fill-rule="evenodd" clip-rule="evenodd" fill="#705750" d="M206.364,250.529c0.833-2.179,2.948-0.803,2.564,1.282
			c4.212-1.347,1.593-9.522,6.415-10.261c-1.394,4.594-2.003,9.97-3.85,14.109c-1.685-0.453-2.018-2.26-3.849-2.566
			C207.651,251.807,206.607,251.567,206.364,250.529z"/>
		<path fill-rule="evenodd" clip-rule="evenodd" fill="#705750" d="M302.564,241.551c5.623,0.12,2.721,5.183,2.566,7.695
			C303.006,247.95,303.737,243.799,302.564,241.551z"/>
		<path fill-rule="evenodd" clip-rule="evenodd" fill="#705750" d="M185.841,251.812c-5.857,0.091-2.57-3.773-1.283-6.413
			C187.339,245.183,185.138,249.948,185.841,251.812z"/>
		<path fill-rule="evenodd" clip-rule="evenodd" fill="#705750" d="M279.477,271.051c-0.335-1.801-2.814-1.461-3.848-2.563
			c0.308-2.258,2.206-2.926,5.13-2.566c-3.138,3.024,1.916,2.386,1.284,6.414c-0.429,0-0.856,0-1.284,0
			C280.687,271.552,280.567,270.815,279.477,271.051z"/>
		<path fill-rule="evenodd" clip-rule="evenodd" fill="#705750" d="M210.211,277.465c3.266,0.584-1.302,8.998,5.133,6.414
			c-0.893,1.035-1.997,3.514,0,3.847C212.246,291.083,206.457,281.149,210.211,277.465z"/>
		<path fill-rule="evenodd" clip-rule="evenodd" fill="#705750" d="M271.78,287.726c0-0.854,0-1.709,0-2.563
			c4.896,1.146,8.188-2.095,10.263,0c0.273,3.813-4.574,4.523-6.414,2.563c2.647,4.022-0.883,1.673-3.849,1.284
			C271.78,288.583,271.78,288.154,271.78,287.726z"/>
		<path fill-rule="evenodd" clip-rule="evenodd" fill="#705750" d="M202.516,294.141c8.06-1.469-2.487,9.023,6.413,7.695
			c-0.397,1.743-3.21,1.064-5.13,1.283C204.426,299.07,201.487,298.59,202.516,294.141z"/>
		<path fill-rule="evenodd" clip-rule="evenodd" fill="#705750" d="M198.667,303.119c-3.074,0.509,0.712-5.843-3.849-3.848
			C196.26,293.185,202.927,299.853,198.667,303.119z"/>
		<path fill-rule="evenodd" clip-rule="evenodd" fill="#705750" d="M160.186,299.271c-2.805,5.708-9.345,6.463-14.109,2.564
			C148.712,298.914,157.153,301.797,160.186,299.271z"/>
		<path fill-rule="evenodd" clip-rule="evenodd" fill="#705750" d="M239.713,309.532c-0.165-2.302,1.274-3.001,3.848-2.564
			c1.857-4.851-3.523-2.462-2.564-6.414c5.801,1.469,6.291,8.247,8.979,12.828c-2.39,1.227-4.286-3.843-5.131,0
			c-1.716-0.864,0.371-7.849-3.848-3.85C240.568,309.532,240.141,309.532,239.713,309.532z"/>
		<path fill-rule="evenodd" clip-rule="evenodd" fill="#705750" d="M137.098,321.075c-4.306,2.006-2.721-11.385-3.848-16.673
			c3.579,1.124,6.335,3.071,10.262,3.848c-0.996,1.141-1.379,2.896-1.283,5.132c-5.048,2.054-0.446-5.54-3.849-5.132
			c-3.798,3.313,1.789,8.038-1.282,11.544C137.098,320.223,137.098,320.649,137.098,321.075z"/>
		<path fill-rule="evenodd" clip-rule="evenodd" fill="#705750" d="M260.236,317.229c-2.634,3.374-6.259-3.062-6.414-6.413
			C257.037,311.875,257.881,315.309,260.236,317.229z"/>
		<path fill-rule="evenodd" clip-rule="evenodd" fill="#705750" d="M125.554,358.275c0,0.428,0,0.855,0,1.282
			c3.373,0.381,1.009-4.977,5.131-3.847c-3.333,4.682,2.563,5.76,0,8.978c-2.903-0.64-2.807-6.29-6.414-2.564
			c0-0.428,0-0.856,0-1.284C124.063,359.349,124.555,358.558,125.554,358.275z"/>
		<path fill-rule="evenodd" clip-rule="evenodd" fill="#705750" d="M251.259,358.275c3.379-0.387,4.208,1.776,3.848,5.131
			c-3.356,0.361-5.521-0.47-5.132-3.849C251.066,359.792,251.184,359.059,251.259,358.275z"/>
		<path fill-rule="evenodd" clip-rule="evenodd" fill="#705750" d="M269.216,396.756c1.067,1.154-8.505,2.549-11.546,3.848
			C259.957,397.76,263.277,395.948,269.216,396.756z"/>
		<path fill-rule="evenodd" clip-rule="evenodd" fill="#705750" d="M170.449,127.39c1.923-1.496,3.135-3.705,6.412-3.847
			c-2.432,0.254-4.328,7.479-1.283,8.979c0,0.427,0,0.855,0,1.283C170.906,134.627,173.993,127.694,170.449,127.39z"/>
		<path fill-rule="evenodd" clip-rule="evenodd" fill="#705750" d="M58.854,179.981c1.766,1.944,4.423-0.323,1.283-1.284
			c10.906-2.326,11.889,19.778-1.283,16.675c1.593-3.964,4.234-6.882,7.696-8.978c-1.159-3.475-2.87,2.932-5.131,2.564
			C66.652,184.828,61.795,182.665,58.854,179.981z"/>
		<path fill-rule="evenodd" clip-rule="evenodd" fill="#705750" d="M307.694,268.487c1.61-2.251-0.554-8.941-1.28-12.827
			c2.959-0.393,1.424,3.705,3.847,3.848c0.569,1.143,1.126,2.294,2.566,2.565c0,0.854,0,1.709,0,2.566
			C310.211,265.016,310.312,268.108,307.694,268.487z"/>
		<path fill-rule="evenodd" clip-rule="evenodd" fill="#705750" d="M220.473,95.323c1.695,0.016,1.173,2.249,2.566,2.566
			c0.36-4.281-6.008-8.431-2.566-11.544c2.642,0.352,1.207,4.779,3.849,5.13c0.691-4.538-2.075-5.621-3.849-7.694
			c2.453-0.598,5.521,3.953,5.132-1.284c0.427,0,0.854,0,1.281,0c0.272,1.439,1.424,1.998,2.565,2.565
			c-0.718,2.667-2.001,2.718-3.847,1.283c1.142,8.412-2.44,12.098-6.415,15.393C215.592,100.454,219.06,95.804,220.473,95.323z"/>
		<path fill-rule="evenodd" clip-rule="evenodd" fill="#705750" d="M140.946,103.02c4.276-3.42,11.572-8.488,20.859-10.413
			c-0.912,3.769-9.19,9.255-11.88,11.696c-0.13-1.439,1.865-1.997,0-2.565c-9.409,6.451-14.79,10.587-25.654,16.674
			c0-0.855,0-1.71,0-2.565c0.569-1.142,1.127-2.294,2.566-2.565c-0.68,1.031-1.339,2.082-1.283,3.848
			c5.156-4.25,9.032-9.781,16.675-11.544C142.437,104.094,141.945,103.303,140.946,103.02z"/>
		<path fill-rule="evenodd" clip-rule="evenodd" fill="#705750" d="M221.756,141.5c0.306,4.206,6.85,4.633,7.695,1.283
			c0.065,5.691-8.189,4.456-2.565,8.979c-5.067,1.202-7.632,1.195-7.696-5.13c1.51-0.201,3.643,0.22,3.85-1.283
			c-2.305,0.165-3.003-1.273-2.566-3.848C220.899,141.5,221.328,141.5,221.756,141.5z"/>
		<path fill-rule="evenodd" clip-rule="evenodd" fill="#705750" d="M221.756,124.825c-0.245,1.04-1.286,1.279-1.283,2.565
			c5.693,6.338,6.014-7.693,7.696,0c1.877-1.115,4.064-1.919,3.849-5.13c0.854,0,1.709,0,2.566,0
			c-0.309,1.831-2.113,2.163-2.566,3.849c-0.428,0-0.855,0-1.283,0c-1.112,5.27-0.547,5.456,0,11.544
			c-1.03-0.679-2.082-1.338-3.849-1.283c-0.64-4.035,2.795-5.015,0-7.696c-2.615,0.377-2.514,3.47-5.13,3.848
			c3.669,1.997,0.78,2.531,1.283,7.696c-0.428,0-0.856,0-1.283,0c-1.396-8.513-3.223,4.137-8.979,5.131c1.282,0,2.567,0,3.848,0
			c-0.378,7.918-10.778,7.476-14.108,2.566c1.285,0.003,1.524-1.04,2.565-1.283c-0.395,1.554,3.706,4.423,3.848,1.283
			c-2.515,0.619-4.131-5.881-1.283-6.414c1.306,0.833,1.326,2.949,3.849,2.566c-1.638-5.032,3.511-4.301,5.13-2.566
			c6.401-7.495,0.801-15.321-5.13-20.523c0.769,3.333-0.517,4.616-3.849,3.848c2.541-1.971,4.014-7.469,0-8.979
			c1.82,0.111,3.633,0.211,3.849-1.283c-6.389-6.148-11.255-5.852-17.957-8.979c-2.392,2.272-1.325,6.76,1.281,7.696
			c-2.072-0.362-2.206,1.212-3.846,1.282c0-0.855,0-1.71,0-2.565c0.761-2.657-1.587-8.426,1.281-8.979
			c4.619,0.138,9.792,6.378,14.11,2.565c-2.501-2.629-1.399-8.864-5.131-10.262c2.352,0.067,4.342-6.573,6.412-2.564
			c-4.305,2.121-0.515,12.712,1.283,16.674c1.895-6.229,5.204-11.043,7.695-16.674c1,0.283,1.492,1.073,1.283,2.564
			c-1.777,2.071-3.635,4.062-5.131,6.415c1.511,0.2,3.641-0.221,3.848,1.282c-0.999,0.283-1.491,1.074-1.28,2.565
			c0,0.428,0,0.854,0,1.282c-4.35,3.257,2.364,6.535-1.285,14.109C216.19,124.052,217.504,127.031,221.756,124.825z"/>
		<path fill-rule="evenodd" clip-rule="evenodd" fill="#705750" d="M122.988,120.977c3.051,2.239-1.425-0.955-2.565,1.283
			c1.103,1.035,0.762,3.513,2.565,3.849c-0.384,1.912-5.396-1.389-6.414,2.565c0.454,1.796,2.259,0.11,2.565-1.283
			c4.69,2.018-2.98,1.917-1.282,5.131c-1.031-0.679-2.083-1.337-3.848-1.283c2.44,3.792-0.824,1.107-5.131,2.566
			c-1.879,3.143-8.688,11.599-15.391,14.109C104.358,138.833,115.899,122.822,122.988,120.977z"/>
		<path fill-rule="evenodd" clip-rule="evenodd" fill="#705750" d="M188.405,126.108c1.994-1.548,4.998-4.1,7.696-1.284
			c0.301-5.687-7.021-3.745-5.129-7.696c0-0.428,0-0.855,0-1.283c4.586,1.699,4.039,5.758,8.976,5.13
			c-3.888,4.392,3.545,8.374,7.697,8.979c-0.017,2.549-3.499,1.631-2.564,5.13c-2.946-1.757-4.124-5.282-6.414-7.696
			c-2.29,1.556-7.462,0.234-8.979,2.565c3.135,3.155,5.563-0.948,10.261,0c1.044,5.8,2.95,10.733,5.133,15.393
			c-1.767-0.056-2.817,0.604-3.848,1.283c4.679-5.387-7.788-8.182-10.261-6.414c0.095-2.234-0.289-3.989-1.285-5.131
			C194.594,128.221,180.901,130.663,188.405,126.108z M190.973,133.805c-1.146,4.118,9.699,7.088,8.976,2.565
			C196.316,136.154,194.604,134.019,190.973,133.805z"/>
		<path fill-rule="evenodd" clip-rule="evenodd" fill="#705750" d="M212.776,133.805c0.595-4.017-1.114-5.727-5.131-5.131
			c1.26-1.734,3.422-2.563,5.131-3.849c-2.168,4.771,0.273,2.515,2.567,5.131C214.719,131.472,213.975,132.863,212.776,133.805z"/>
		<path fill-rule="evenodd" clip-rule="evenodd" fill="#705750" d="M114.009,145.348c3.637-2.922,13.351-3.825,16.675,0
			c-0.665,4.185-4.576-1.618-10.262,1.283c-1.759,5.265,3.096,10.471,0,12.826c-1.313-1.252-2.596-2.535-3.849-3.848
			C117.513,150.805,118.386,147.362,114.009,145.348z"/>
		<path fill-rule="evenodd" clip-rule="evenodd" fill="#705750" d="M92.204,163.306c-1.709-0.192-3.871,5.215-5.131,1.282
			c0.234-5.763,8.734-6.791,5.131-11.543c6.98,4.594,2.26-5.486,10.262-5.131c-4.139,3.188-2.351,7.237-2.566,8.978
			c0.005-0.711-1.038-1.456-1.282,0C97.28,159.831,93.631,160.457,92.204,163.306z"/>
		<path fill-rule="evenodd" clip-rule="evenodd" fill="#705750" d="M143.511,140.217c2.074-2.629,6.172-3.234,8.979-5.131
			c0.473,4.322-5.393,2.305-5.131,6.414c2.924-0.358,4.822,0.309,5.131,2.566c-3.484-0.919,0.918,6.048-2.566,5.13
			c-0.287-0.996-0.035-2.531-1.283-2.565c0-0.428,0-0.856,0-1.283C146.727,143.843,147.131,140.018,143.511,140.217z"/>
		<path fill-rule="evenodd" clip-rule="evenodd" fill="#705750" d="M240.996,199.221c3.091-0.525,2.788,2.343,6.412,1.283
			c-0.046-3.14,7.976-4.717,7.698-3.848c0.393,2.958-3.707,1.425-3.848,3.848c-0.429,0-0.857,0-1.284,0
			c-7.791,3.864-21.803,3.329-23.089-6.413c-0.19-1.709,5.216-3.872,1.283-5.132c-0.146,1.566-0.383,3.037-2.564,2.566
			c1.115-1.878,1.919-4.065,5.13-3.849c-0.286,2.425,1.445,2.83,1.283,5.131c-1.565,0.146-3.037,0.384-2.566,2.565
			c1.837,2.084,6.58,7.859,10.262,3.848C240.141,199.221,240.568,199.221,240.996,199.221z"/>
		<path fill-rule="evenodd" clip-rule="evenodd" fill="#705750" d="M212.776,196.656c4.804,0.099,4.376-5.031,5.131-8.979
			c4.081,8.812-6.269,14.234-12.826,16.675c2.266,6.454-8.376,6.583-1.282,3.848c-2.586-9.158-4.282-17.747-1.283-23.088
			c1.102,4.883,3.472,8.499,2.565,15.392C207.932,199.509,212.037,199.763,212.776,196.656z"/>
		<path fill-rule="evenodd" clip-rule="evenodd" fill="#705750" d="M184.558,186.395c2.632-4.266,3.134,1.877,7.696-2.566
			c1.507-3.401-2.459-7.553,0-7.696c3.645,3.683,0.674,8.915,1.283,10.262c2.405-0.282,4.328-7.48,6.411-3.849
			c-2.744,3.668-8.635,4.192-8.976,10.262c3.477,3.604,3.19,1.013,7.694,0c-0.834,4.552-4.834,5.933-2.565,10.262
			c3.611,1.066,1.434-6.347,3.847,0c0.236,1.09-0.499,1.209-1.281,1.282c-1.831,0.307-2.164,2.113-3.849,2.565
			c-0.004-1.287,1.039-1.526,1.283-2.565c-4.879-1.886-0.252,5.734-5.129,3.848c1.464-6.106,2.545-4.971,2.564-11.543
			c-3.413-0.009-3.273-3.569-5.132-5.131c-1.433-0.436-4.17-6.812-3.848-1.283C182.273,189.302,184.372,187.911,184.558,186.395z"/>
		<path fill-rule="evenodd" clip-rule="evenodd" fill="#705750" d="M75.529,149.196c2.03-2.673,8.974-0.433,11.544-2.565
			c-2.639,2.493-6.688,3.573-10.262,5.13C77.093,150.149,78.809,149.141,75.529,149.196z"/>
		<path fill-rule="evenodd" clip-rule="evenodd" fill="#705750" d="M72.964,169.719c1.2-6.923,5.836-10.41,10.261-14.109
			c1.997-0.334,0.89-2.813,0-3.848c4.183,0.334,6.173-1.523,6.414-5.13c-0.427,0-0.855,0-1.283,0
			c0.291-1.848,3.829-0.447,3.849-2.565c0.427,0,0.854,0,1.283,0c-3.712,7.319-0.188,11.329-10.263,12.826
			c-0.617,3.532-3.57,8.179-7.695,11.544C79.11,171.747,74.941,172.814,72.964,169.719z"/>
		<path fill-rule="evenodd" clip-rule="evenodd" fill="#705750" d="M60.137,163.306c0.737-2.255-1.551-7.537,1.282-7.697
			c-0.38,3.373,4.977,1.01,3.848,5.131c-3.449,2.537-2.802,9.169-5.13,12.827C58.867,168.547,62.97,166.12,60.137,163.306z"/>
		<path fill-rule="evenodd" clip-rule="evenodd" fill="#705750" d="M219.189,153.045c-2.635,1.212-1.088,6.608-5.131,6.412
			c-0.236-1.09,0.502-1.209,1.285-1.282c-0.209-1.503-2.342-1.081-3.85-1.283C211.188,152.579,216.259,150.265,219.189,153.045z"/>
		<path fill-rule="evenodd" clip-rule="evenodd" fill="#705750" d="M288.455,163.306c2.244,1.601-3.283,5.257,0,8.979
			C281.277,172.093,287.695,166.533,288.455,163.306z"/>
		<path fill-rule="evenodd" clip-rule="evenodd" fill="#705750" d="M72.964,183.829c-3.526-3.743-9.658-4.88-11.545-10.262
			C65.792,176.463,71.253,178.271,72.964,183.829z"/>
		<path fill-rule="evenodd" clip-rule="evenodd" fill="#705750" d="M287.173,238.984c3.021,0.028,3.777-2.209,7.696-1.282
			c-0.335-4.183,1.522-6.174,5.131-6.413c-2.007,4.108-4.13,10.078-8.979,7.695c-0.286,2.426,1.446,2.83,1.283,5.131
			c-1.287,0.004-1.527-1.039-2.565-1.283c-0.07-1.348-1.645-1.009-1.283,1.283C286.715,243.719,287.392,240.904,287.173,238.984z"/>
		<path fill-rule="evenodd" clip-rule="evenodd" fill="#705750" d="M193.537,245.398c2.912-9.079-7.84-16.368,1.281-10.263
			c0,0.429,0,0.855,0,1.284c0.155,5.65,1.775,5.254,0,8.979C194.392,245.398,193.964,245.398,193.537,245.398z"/>
		<path fill-rule="evenodd" clip-rule="evenodd" fill="#705750" d="M179.427,258.227c3.644,0.223-1.551-8.393,3.849-6.415
			c0.934,2.913-2.312,10.007,2.565,8.979c0.606-3.561-4.456-8.676,2.564-7.696c-0.739,0.777-3.003,6.086,0,6.414
			c1.288-3.962,1.214,3.684,3.849,2.565c0,0.854,0,1.709,0,2.566c-1.763,2.222,0.42,5.743-3.849,7.695
			c0.536,5.022,5.317,5.799,6.413,10.261c-0.271,1.438-1.423,1.998-2.564,2.566c0.176-4.728-2.916-10.039-5.13-5.132
			c2.223-6.356-3.006-11.12,1.281-17.957c-8.616,7.965,0.668,28.361-6.413,38.48c2.144-2.515-0.664,9.802-2.565,11.546
			c2.208,0.505,3.289-1.905,3.849,0c-2.683,2.895-5.746,11.012-1.283,10.261c-2.021,0.115-1.004,3.271-3.849,2.565
			c-1.142-0.568-2.294-1.126-2.565-2.565C177.084,298.225,180.731,279.656,179.427,258.227z"/>
		<path fill-rule="evenodd" clip-rule="evenodd" fill="#705750" d="M223.039,256.941c1.141-0.996,2.896-1.377,5.13-1.281
			c0.596,4.109,4.884,4.522,5.131,8.979c-1.142,0.996-2.896,1.377-5.131,1.281c2.108-2.556,3.593-4.491,0-6.413
			c0-0.428,0-0.855,0-1.281c-3.923-0.931-3.772,2.212-7.696,1.281c-4.217,0.934-1.964-2.549,0-2.566
			C221.328,256.941,222.183,256.941,223.039,256.941z"/>
		<path fill-rule="evenodd" clip-rule="evenodd" fill="#705750" d="M217.907,213.332c0.869-0.278-0.707,7.742-3.849,7.696
			c0-2.566,0-5.132,0-7.696c-3.01,0.408-2.87,3.969-5.13,5.129c0.034,1.249,1.569,0.996,2.565,1.283
			c-2.211,6.015-4.764-0.618-8.979,0c2.752-3.659,7.294-5.533,10.261-8.979c3.45-0.883,2.479,2.653,3.848,3.848
			C217.715,214.849,217.835,214.114,217.907,213.332z"/>
		<path fill-rule="evenodd" clip-rule="evenodd" fill="#705750" d="M215.344,323.643c1.514,10.514-9.51,15.265-6.415,23.089
			c1.54-1.798,0.499-0.111,0,1.281c-1.143-0.996-2.896-1.377-5.13-1.281c-6.869-1.305-12.027-5.459-11.545-14.11
			c-0.307,1.393-2.111,3.08-2.566,1.282c-0.163-2.301,1.571-2.705,1.285-5.13c4.283-0.009,3.396,5.152,6.411,6.414
			c0.021-4.691,7.602-12.632,0-10.262c3.476,1.159-1.08,4.723-2.565,5.13c0.602-11.355,11.798-17.565,14.11-23.088
			c2.788,3.117,6.586-3.604,10.261-3.849c-0.004,1.287,1.039,1.526,1.283,2.566c-1.845,1.695-3.232,5.866-6.414,2.564
			c-1.151,3.755-1.151,3.941,0,7.695c-4.335-1.648-6.784,5.024-3.848,6.415c0.177-2.389,0.844-4.288,2.565-5.132
			C213.322,319.674,216.441,319.55,215.344,323.643z M199.948,322.36c3.215-1.698,3.116,5.972,5.133,1.282
			c-1.9-0.238-1.176-3.1-1.282-5.132c1.564-0.145,3.037-0.383,2.565-2.565C201.995,315.854,201.585,319.719,199.948,322.36z"/>
		<path fill-rule="evenodd" clip-rule="evenodd" fill="#705750" d="M199.948,244.115c-0.678-1.032-1.337-2.082-1.281-3.848
			c1.142-0.569,2.295-1.127,2.566-2.565c1.197-0.727,1.942-3.566,2.565-1.282c0.151,3.694-0.703,8.397,1.282,10.262
			C203.921,250.155,202.212,243.748,199.948,244.115z"/>
		<path fill-rule="evenodd" clip-rule="evenodd" fill="#705750" d="M160.186,236.42c5.272,0.091,11.505-5.533,15.392-2.566
			c-1.509,0.2-3.641-0.221-3.848,1.282c-10.182,1.792-13.658,10.287-19.24,16.676C153.89,245.516,157.934,241.862,160.186,236.42z"
			/>
		<path fill-rule="evenodd" clip-rule="evenodd" fill="#705750" d="M174.296,265.921c0,0.429,0,0.854,0,1.282
			c-3.625,1.062-3.323-1.808-6.414-1.282c-1.916,2.992,0.434,5.527-1.282,6.414c-3.665-3.181,1.846-7.98,1.282-8.978
			C170.324,263.906,171.105,266.119,174.296,265.921z"/>
		<path fill-rule="evenodd" clip-rule="evenodd" fill="#705750" d="M164.034,282.596c-0.427,0-0.854,0-1.282,0
			c-2.211,2.549-6.768,9.407-8.979,7.696c1.798-4.188,7.675-4.297,7.696-10.262c-3.124-1.143-6.597,5.722-6.414,0
			c-5.905-0.773-3.616,6.646-7.696,7.695c-0.363-2.343,4.11-8.208,1.282-5.13c-3.749,3.092-5.319,8.363-6.413,14.109
			c4.695,0.773,5.964-8.474,10.262-3.847c-3.771,3.07-10.086,3.597-10.262,10.261c2.853,0.994,6.956,0.74,7.696,3.849
			c-1.751,8.021,3.429,9.891-3.847,16.675c-2.022,0.115-1.005,3.271-3.849,2.565c1.522-6.048-1.196-9.449,5.131-11.544
			c0.762-4.094-2.407-3.969,0-6.414c-5.588-2.106-10.702-4.689-17.957-5.131c0.035,1.248,1.569,0.994,2.565,1.283
			c-2.177,1.244-3.296,3.546-2.565,7.697c2.167-8.712,6.212,4.708,0,5.129c-1.63-7.671-2.28-17.339,3.847-20.523
			c1.259,1.733,3.422,2.566,5.13,3.849c1.088-1.029-0.086-5.28,2.566-7.695c-2.074-4.011-1.594,5.098-6.414,2.565
			c0.209-1.492-0.283-2.284-1.283-2.565c1.159-2.262,2.87-3.973,5.13-5.133c0.526,1.612,1.655,2.623,3.849,2.566
			c4.211-8.473,7.539-12.691,12.827-17.957c-3.354,0.362-5.517-0.469-5.131-3.848c9.79-0.812,9.472,8.485,14.109,12.826
			C164.034,281.741,164.034,282.17,164.034,282.596z"/>
		<path fill-rule="evenodd" clip-rule="evenodd" fill="#705750" d="M137.098,281.313c1.287-0.003,1.527,1.038,2.565,1.282
			c1.445-1.974,3.686-3.155,5.131-5.131c-2.867-0.931-0.62-7.313,2.565-6.414c-4.302,4.558,0.617,13.277-10.262,12.828
			C137.098,283.022,137.098,282.17,137.098,281.313z"/>
		<path fill-rule="evenodd" clip-rule="evenodd" fill="#705750" d="M301.282,262.073c1.325-3.021,1.62,10.47-2.565,12.828
			C292.271,271.685,302.646,268.182,301.282,262.073z"/>
		<path fill-rule="evenodd" clip-rule="evenodd" fill="#705750" d="M292.304,271.051c0-1.281,0-2.563,0-3.848
			c5.384,1.6,2.921-1.929,1.283-3.846c1.71,0,3.421,0,5.13,0C296.719,266.06,296.422,270.467,292.304,271.051z"/>
		<path fill-rule="evenodd" clip-rule="evenodd" fill="#705750" d="M206.364,262.073c-0.377-0.787-3.191-4.939,0-5.132
			c1.283,1.709,2.113,3.872,3.847,5.132c-0.163,2.3,1.569,2.706,1.283,5.13c-4.122,1.128-1.758-4.228-5.13-3.846
			C206.364,262.928,206.364,262.501,206.364,262.073z"/>
		<path fill-rule="evenodd" clip-rule="evenodd" fill="#705750" d="M184.558,300.554c4.639-4.769,7.369-11.444,12.826-15.392
			c-2.189,3.196-4.473,6.293-2.565,10.262c-2.954-2.314-6.515,2.982-8.978,5.13C185.412,300.554,184.985,300.554,184.558,300.554z"
			/>
		<path fill-rule="evenodd" clip-rule="evenodd" fill="#705750" d="M282.043,281.313c1.776-0.787,0.192-4.938,2.565-5.132
			c0,0.856,0,1.711,0,2.566c0.377,4.525,3.469-4.525,3.847,0c-0.718,1.848-2.001,3.13-3.847,3.848
			C284.677,280.196,283.619,279.881,282.043,281.313z"/>
		<path fill-rule="evenodd" clip-rule="evenodd" fill="#705750" d="M208.929,289.01c3.311,3.028,4.418,6.674,1.282,10.262
			c-2.69,3.111,2.92-7.782-5.13-5.131C205.458,291.524,208.551,291.625,208.929,289.01z"/>
		<path fill-rule="evenodd" clip-rule="evenodd" fill="#705750" d="M267.932,368.536c0.349-2.339,4.617-7.19,1.284-8.979
			c-1.139,5.324-6.471,6.353-10.263,6.414c-0.393-2.958,3.706-1.425,3.849-3.848c-3.73-1.116-1.443-1.922-1.283-5.133
			c-10.643-0.16-6.756-13.187-3.849-16.674c-7.596-2.669,1.111-7.477-2.563-11.544c-1.326,4.062-4.246,6.521-3.848,8.978
			c0.391-4.006-3.707,3.262-3.851-1.282c4.654-3.289,0.288-8.518,2.566-12.826c-4.45-0.175-2.054,6.498-6.414,6.413
			c0.438-5.393-2.96-6.899,0-11.545c0.122,2.017-0.17,4.448,2.567,3.85c2.229-2.644,1.8-5.763,6.412-2.566
			c1.693-3.21-5.07-4.015-1.281-5.13c4.408,6.018,10.287,3.94,15.39,7.696c-6.139-0.154-12.056-0.085-15.39,2.565
			c7.064,2.34,18.775,0.035,21.805,6.412c0.884,5.159-1.229,7.323-1.283,11.545c-1.031-0.68-2.081-1.339-3.849-1.282
			c2.262,3.559,0.938,3.628,2.566,6.412c-0.193,2.372-4.344,0.788-5.13,2.565c2.808,2.668-1.128,4.145,1.28,6.413
			c3.502,0.936,2.582-2.548,5.132-2.564C271.864,360.497,271.984,366.603,267.932,368.536z M262.802,348.013
			c1.94-5.151,7.732-10.352,2.566-15.392C266.267,338.892,256.982,344.919,262.802,348.013z"/>
		<path fill-rule="evenodd" clip-rule="evenodd" fill="#705750" d="M276.91,404.451c-2.508,4.514-6.436,0.941-11.542,1.284
			c0.677-1.033,1.337-2.084,1.28-3.85c-5.056,0.152-3.92,5.575-8.979,2.565c4.143-2.444,4.532-2.919,10.262-5.13
			c-0.817,4.666,2.656,5.039,6.415,5.13c0.632-4.053-6.365-0.475-5.131-5.13c4.964-0.55,4.563-1.404,7.694,1.282
			C276.021,401.639,274.915,404.118,276.91,404.451z"/>
		<path fill-rule="evenodd" clip-rule="evenodd" fill="#705750" d="M147.359,350.578c-3.801-1.863,1.689-5.004,0-8.978
			C152.553,344.063,146.626,347.623,147.359,350.578z"/>
		<path fill-rule="evenodd" clip-rule="evenodd" fill="#705750" d="M164.034,369.818c-3.137-1.629-7.118-5.146-2.565-7.694
			c1.847,0.717,3.131,2.001,3.849,3.848C163.822,366.188,163.925,367.999,164.034,369.818z"/>
		<path fill-rule="evenodd" clip-rule="evenodd" fill="#705750" d="M130.685,377.516c-2.235,2.376-4.94-0.33-2.565-2.566
			c-1.71,0-3.42,0-5.131,0c-0.767,2.286,3.759,5.328,0,6.414c-3.161-2.354-4.625-3.199-1.283-6.414c-1.709,0-3.42,0-5.131,0
			c-0.263,5.395,4.875,5.388,5.131,10.263c-2.358-3.487-10.165-2.944-6.414-8.979c-4.604,3.591-7.29,1.191-11.543,5.131
			c3.2-0.903,5.271-1.263,7.696,1.283c0.362,2.072-1.212,2.209-1.283,3.849c2.384,1.035,5.183,1.657,6.413,3.848
			c-2.782,3.929-7.219-1.231-11.543,0c-1.494-3.637-5.369-4.895-3.849-11.546c0-0.427,0-0.854,0-1.281
			c1.686-1.54,2.018-0.501,3.849,0c1.713-1.278,2.518-3.468,5.13-3.849c2.138,0,4.276,0,6.413,0
			c2.758-3.228,4.819-7.154,7.696-10.261c0,0.427,0,0.854,0,1.282c6.226-2.721,6.774,3.696,3.849,7.697
			c1.621,1.92,6.802,2.295,3.848,5.13C131.54,377.516,131.112,377.516,130.685,377.516z"/>
		<path fill-rule="evenodd" clip-rule="evenodd" fill="#705750" d="M152.49,380.08c1.685,1.646,4.728,1.646,6.413,0
			c-0.907,3.369-6.02,2.533-7.696,5.132c-1.486-1.897-1.486-3.232,0-5.132C151.635,380.08,152.063,380.08,152.49,380.08z"/>
		<path fill-rule="evenodd" clip-rule="evenodd" fill="#705750" d="M239.713,380.08c3.147,4.084-1.132,9.314-2.565,12.827
			c2.21,5.06,9.335,5.202,11.544,10.263c-4.646-4.76-14.12-4.692-12.826-15.395C237.643,385.707,236.948,381.166,239.713,380.08z"/>
		<path fill-rule="evenodd" clip-rule="evenodd" fill="#705750" d="M225.604,114.563c0.993,0.288,2.528,0.036,2.564,1.283
			c-1.283,0-2.564,0-3.848,0c-1.429,2.42-1.802,5.894-5.132,6.414c-0.761-4.093,2.409-3.968,0-6.414
			c1.641,0.071,1.776,1.645,3.85,1.283C223.184,115.563,223.421,114.092,225.604,114.563z"/>
		<path fill-rule="evenodd" clip-rule="evenodd" fill="#705750" d="M261.519,145.348c0.884,4.268-2.652,2.067-3.849,1.283
			C254.228,141.967,259.485,142.662,261.519,145.348z"/>
		<path fill-rule="evenodd" clip-rule="evenodd" fill="#705750" d="M230.734,282.596c-0.868,8.539-4.041,14.771-7.695,20.523
			c-3.308-6.435,8.974-17.654-1.283-19.24c1.809-2.894,8.354-1.052,7.695-6.414c0.394-2.957-3.706-1.425-3.847-3.848
			c4.257,1.973,4.845-6.07,7.695-1.282C231.838,275.148,229.989,277.575,230.734,282.596z"/>
	</g>
	<g>
		<path fill-rule="evenodd" clip-rule="evenodd" fill="#B1B4AF" d="M190.973,111.998c-2.914-16.174,9.93-31.303,34.632-29.501
			c0.389,5.237-2.679,0.686-5.132,1.284c1.773,2.073,4.54,3.156,3.849,7.694c-2.642-0.351-1.207-4.778-3.849-5.13
			c-3.441,3.114,2.927,7.263,2.566,11.544c-1.394-0.317-0.871-2.55-2.566-2.566c-0.854,0-1.71,0-2.565,0
			c0.209-1.491-0.283-2.282-1.283-2.564c-2.491,5.631-5.801,10.445-7.695,16.674c-1.798-3.962-5.588-14.553-1.283-16.674
			c-2.07-4.008-4.061,2.631-6.412,2.564c3.731,1.398,2.63,7.633,5.131,10.262c-4.318,3.813-9.491-2.428-14.11-2.565
			C189.386,103.572,191.733,109.341,190.973,111.998z M212.776,94.041c3.258-1.711,0.809-8.385-3.848-6.414
			C208.676,91.3,208.771,94.627,212.776,94.041z M196.102,103.02c1.326-0.719,5.086-1.25,6.414-5.131
			C200.418,98.887,192.606,100.671,196.102,103.02z"/>
		<path fill-rule="evenodd" clip-rule="evenodd" fill="#B1B4AF" d="M184.558,122.26c1.256-3.929,4.324,0.572,5.13,1.283
			c3.51-1.168-2.275-4.495,1.285-6.414c-1.892,3.951,5.43,2.009,5.129,7.696c-2.698-2.816-5.702-0.265-7.696,1.284
			C187.035,124.911,188.006,121.376,184.558,122.26z"/>
		<path fill-rule="evenodd" clip-rule="evenodd" fill="#B1B4AF" d="M124.271,360.84c0,0.428,0,0.856,0,1.284
			c0,0.427,0,0.854,0,1.282c-2.877,3.106-4.938,7.033-7.696,10.261c-2.137,0-4.275,0-6.413,0c0.397-1.741,3.211-1.063,5.13-1.281
			C120.09,370.342,120.263,363.674,124.271,360.84z"/>
		<path fill-rule="evenodd" clip-rule="evenodd" fill="#B1B4AF" d="M164.034,369.818c-0.108-1.819-0.211-3.631,1.284-3.847
			c-0.004,0.711,1.039,1.456,1.282,0c1.798,1.468-2.656,7.532-3.848,10.261C161.692,372.608,164.559,372.909,164.034,369.818z"/>
		<path fill-rule="evenodd" clip-rule="evenodd" fill="#B1B4AF" d="M235.865,387.775c-1.294,10.702,8.18,10.635,12.826,15.395
			c1.517,0.62,2.907,1.368,3.849,2.565c-8.136-3.773-19.87-8.093-17.956-17.96C235.01,387.775,235.438,387.775,235.865,387.775z"/>
		<path fill-rule="evenodd" clip-rule="evenodd" fill="#B1B4AF" d="M267.932,386.495c5.208,2.06,6.757,7.779,10.263,11.542
			c-4.894-1.947-5.763-7.916-10.263-10.262C267.932,387.35,267.932,386.922,267.932,386.495z"/>
		<path fill-rule="evenodd" clip-rule="evenodd" fill="#B1B4AF" d="M194.818,113.281c-2.606-0.936-3.673-5.424-1.281-7.696
			c6.702,3.127,11.568,2.83,17.957,8.979c-0.216,1.494-2.028,1.394-3.849,1.283c4.014,1.509,2.541,7.008,0,8.979
			c3.332,0.768,4.617-0.515,3.849-3.848c5.931,5.202,11.531,13.028,5.13,20.523c-1.619-1.734-6.768-2.466-5.13,2.566
			c-2.522,0.383-2.543-1.733-3.849-2.566c-2.848,0.533-1.231,7.033,1.283,6.414c-0.142,3.14-4.242,0.271-3.848-1.283
			c0-0.428,0-0.856,0-1.283c-2.183-4.66-4.089-9.593-5.133-15.393c-4.697-0.948-7.126,3.155-10.261,0
			c1.518-2.331,6.689-1.009,8.979-2.565c2.29,2.414,3.468,5.938,6.414,7.696c0,1.284,0,2.566,0,3.848
			c1.669-2.605,5.487-3.063,7.695-5.129c1.198-0.941,1.942-2.333,2.567-3.849c-2.294-2.616-4.735-0.36-2.567-5.131
			c-1.709,1.285-3.871,2.115-5.131,3.849c0,0.427,0,0.855,0,1.282c-4.152-0.605-11.585-4.587-7.697-8.979
			c1.769,0.056,2.816-0.603,3.851-1.282c1.197-0.94,1.942-2.332,2.565-3.848c-0.741-1.555-4.845,0.835-7.697-1.283
			c0-0.427,0-0.855,0-1.282c3.124,0.827,6.598,2.59,6.414-2.565c-5.594-2.348-8.266-0.543-11.544-3.849
			c-1.101,4.093,2.018,3.967,2.564,6.414C195.674,113.281,195.247,113.281,194.818,113.281z"/>
		<path fill-rule="evenodd" clip-rule="evenodd" fill="#B1B4AF" d="M219.189,110.716c0-0.427,0-0.855,0-1.283
			c0.856,0,1.71,0,2.566,0c9.73-1.179,15.048,2.055,16.675,8.979c-1.898,1.486-3.232,1.486-5.131,0
			c-1.897-0.667-3.233-1.898-5.131-2.565c-0.036-1.247-1.571-0.995-2.564-1.283c-1.54-1.685-0.501-2.018,0-3.848
			C223.465,110.716,221.328,110.716,219.189,110.716z"/>
		<path fill-rule="evenodd" clip-rule="evenodd" fill="#B1B4AF" d="M226.886,122.26c1.711,0,3.422,0,5.132,0
			c0.216,3.211-1.972,4.016-3.849,5.13c-1.683-7.693-2.003,6.338-7.696,0c-0.003-1.287,1.038-1.526,1.283-2.565
			c1.283,0,2.565,0,3.849,0C225.891,123.83,225.638,122.295,226.886,122.26z"/>
		<path fill-rule="evenodd" clip-rule="evenodd" fill="#B1B4AF" d="M199.948,136.37c0.724,4.523-10.121,1.553-8.976-2.565
			C194.604,134.019,196.316,136.154,199.948,136.37z"/>
		<path fill-rule="evenodd" clip-rule="evenodd" fill="#B1B4AF" d="M190.973,140.217c2.473-1.768,14.939,1.027,10.261,6.414
			C195.564,146.74,190.333,146.415,190.973,140.217z"/>
		<path fill-rule="evenodd" clip-rule="evenodd" fill="#B1B4AF" d="M128.119,389.061c3.848,0,7.696,0,11.544,0
			c-3.88,2.959-13.23,0.451-19.24,1.282C120.583,387.51,125.864,389.797,128.119,389.061z"/>
		<path fill-rule="evenodd" clip-rule="evenodd" fill="#B1B4AF" d="M221.756,140.217c0.427,0,0.855,0,1.283,0
			c-0.503-5.165,2.386-5.699-1.283-7.696c2.616-0.378,2.515-3.471,5.13-3.848c2.795,2.681-0.64,3.662,0,7.696
			c1.767-0.056,2.818,0.604,3.849,1.283c0.288,2.424-1.446,2.829-1.283,5.13c-0.846,3.35-7.39,2.923-7.695-1.283
			C221.756,141.071,221.756,140.645,221.756,140.217z"/>
		<path fill-rule="evenodd" clip-rule="evenodd" fill="#B1B4AF" d="M101.182,378.797c-1.52,6.651,2.355,7.909,3.849,11.546
			C101.47,389.565,97.381,382.686,101.182,378.797z"/>
	</g>
	<g>
		<path fill-rule="evenodd" clip-rule="evenodd" fill="#FFFFFF" d="M202.516,97.889c-1.328,3.881-5.088,4.412-6.414,5.131
			C192.606,100.671,200.418,98.887,202.516,97.889z"/>
		<path fill-rule="evenodd" clip-rule="evenodd" fill="#FFFFFF" d="M196.102,113.281c-0.547-2.447-3.665-2.321-2.564-6.414
			c3.278,3.306,5.95,1.501,11.544,3.849c0.184,5.155-3.29,3.393-6.414,2.565C197.813,113.281,196.956,113.281,196.102,113.281z"/>
		<path fill-rule="evenodd" clip-rule="evenodd" fill="#FFFFFF" d="M219.189,113.281c0-0.856,0-1.711,0-2.565
			c2.139,0,4.275,0,6.415,0c-0.501,1.83-1.54,2.163,0,3.848c-2.184-0.472-2.421,1-2.565,2.565c-2.073,0.362-2.209-1.212-3.85-1.283
			C219.189,114.991,219.189,114.137,219.189,113.281z"/>
	</g>
</g>
</svg>
