<?xml version="1.0" encoding="utf-8"?>
<!-- Generator: Adobe Illustrator 15.0.2, SVG Export Plug-In . SVG Version: 6.00 Build 0)  -->
<!DOCTYPE svg PUBLIC "-//W3C//DTD SVG 1.1//EN" "http://www.w3.org/Graphics/SVG/1.1/DTD/svg11.dtd">
<svg version="1.1" id="Layer_1" xmlns="http://www.w3.org/2000/svg" xmlns:xlink="http://www.w3.org/1999/xlink" x="0px" y="0px"
	 width="54px" height="66px" viewBox="-26.5 407.5 54 66" enable-background="new -26.5 407.5 54 66" xml:space="preserve">
<g>
	<path fill="#E2AE37" d="M13.072,414.341c-2.561-1.305-4.881-2.848-7.096-4.5c0.553-0.311,0.042-1.688,0.692-1.903
		c1.453,1.835,2.697,3.879,5.365,4.5c0.058,0,0.115,0,0.173,0c2.283,1.351,4.802,2.466,6.922,3.98c0.058,0,0.116,0,0.172,0
		c1.177,1.073,2.335,2.164,3.289,3.46c0.561,0.997,1.113,2.004,1.212,3.461c0.327,1.214,0.154,2.904,0,4.154
		c0,0.059,0,0.116,0,0.174c-0.675,0.885,0.212,2.291,0,2.769c1.452,2.516,0.881,2.769-1.558,2.769
		c-1.163-0.279-0.659-2.225-1.21-3.116c2.289-3.521,1.772-10.241-1.732-12.113c-0.057,0-0.115,0-0.172,0
		c-1.469-1.703-3.704-2.642-5.884-3.634C13.187,414.341,13.129,414.341,13.072,414.341z"/>
	<path fill="#E2AE37" d="M4.245,425.07c0.059,0,0.116,0,0.173,0c1.35,0.439,2.065,1.511,2.769,2.597
		c1.62,0.495,3.277,0.622,5.019,0.172c-0.245,0.447,0.118,0.728,0.173,0.692c3.071,0.332,6.07,0.736,6.576,3.635
		c-0.835,0.489-1.649,0.94-3.98,0.346c-0.745-0.467-2.181-0.241-2.769-0.864c-3.426,0.745-4.636,0.537-6.749,0.345
		c-0.763,1.143-1.779,2.028-2.597,3.115c-0.391,0.407-1.7-0.172-1.73,2.77c0,1.039-12.625,4.013-13.152,4.153
		c2.256-1.761,3.723-4.814,3.115-8.479c0.526-1.114-1.009-1.137-1.211-1.212c-0.628-0.232-1.127-1.183-2.077-1.73
		c-0.218-0.126-0.639,0.113-0.865,0c-0.314-0.158-0.542-0.538-0.865-0.692c-2.594-1.237-5.739-2.663-5.538-4.326
		c0.125-1.03,1.621-0.98,1.558-2.076c2.875,0.354,4.623,1.838,7.788,1.902c1.104-0.567,1.119-2.226,2.249-2.769
		c0.324-2.56,0.421-5.348,0.866-7.787c0.201-0.146,0.464-0.229,0.865-0.173c0.435,1.815-0.127,4.625,1.039,5.711
		c0.822-1.197,1.149-2.889,2.769-3.289c0.045-0.507-0.391-0.531-0.346-1.038c0.912-0.988,2.274-1.381,2.769,0
		c0,0.058,0,0.116,0,0.174c0.263,0.544,0.516,1.098,0.692,1.729c0.726,0.207,0.31-0.729,0.692-0.865
		c1.048,0.789,2.178,1.208,2.076,3.462c-0.732,0.865-1.903,4.327-1.038,4.672c0.433,0.412,1.138,0.364,1.557,0
		C4.178,425.233,4.277,425.217,4.245,425.07z"/>
	<path fill="#E2AE37" d="M23.628,434.588c0.627,1.393,0.967,3.071,1.038,5.02c0.048,1.812,0.049,4.191-0.865,4.499
		c0.195,0.209,0.494,0.314,0.346,0.866c-1.457,4.271-7.24,6.234-8.826,10.037c-0.377,0.904-0.07,2.052-0.865,2.941
		c1.162,1.03,2.333,2.052,2.942,3.634c-1.461-0.27-2.678-0.782-3.634-1.557c0.224-0.469,0.769-0.615,0.692-1.385
		c-1.264-4.003,2.232-5.7,3.634-8.134c0.058,0,0.115,0,0.173,0c1.073-0.772,1.655-2.037,2.596-2.941
		c0.404-0.923,1.248-1.406,1.558-2.423c1.922-3.041,0.172-7.986-0.519-11.076C22.722,433.994,23.371,434.096,23.628,434.588z"/>
	<path fill="#E2AE37" d="M1.13,438.569c0,0.114,0,0.229,0,0.347c-0.569,0.122-0.728,0.655-1.038,1.037
		c-0.569-0.354-1.752-0.093-2.597-0.173C-2.047,438.622,0.191,439.244,1.13,438.569z"/>
	<path fill="#E2AE37" d="M-6.138,463.662c0.523,0.559,0.771-18.517,1.039-19.21c0.346-2.975,6.003-4.553,6.23-5.018
		c-0.25,0.535,0.028,0.672,0.346,1.038c0.118,0.797,0.01,2.127-0.173,3.114c-0.074,0.33,0.031,0.551,0.52,0.693
		c0.239,0.223,0.171,0.751,0.173,1.21c1.152,3.118,2.153,6.386,2.077,10.729c0.93,1.321,2.063,2.438,2.596,4.155
		c0,0.057,0,0.115,0,0.173c0.58,1.217,0.987,2.793,0,3.807c0.845,0.942,0.634,2.943,1.904,3.461c0,0.058,0,0.115,0,0.173
		c1.27,1.079,4.444,4.886,0,4.846c-1.534-0.196-2.869-0.592-3.115-2.076c-0.49-1.184-1.693-1.653-2.25-2.77c0-0.115,0-0.229,0-0.346
		c0.49-0.558-0.206-1.401-0.347-1.903c0-0.117,0-0.231,0-0.347c0.109-0.682-1.82-0.244-2.249-1.211
		c-0.689,0.061-1.124,0.376-1.731,0.519C-2.314,462.934-4.53,464.219-6.138,463.662z"/>
	<path fill="#E2AE37" d="M-6.311,463.662c-0.62-0.082-1-0.281-1.558,0c-0.058,0-0.115,0-0.172,0
		c-0.535-0.312-1.606-0.601-2.423-0.346c-1.198,0.216-1.024-0.937-1.904-1.039c-0.595,0.04-0.754,0.516-0.866,1.039
		c-0.639-0.257-1.615,0.209-2.076-0.52c0.251-0.497,0.483-1.021,0-1.385c-0.887,0.209-0.982,1.209-2.077,1.212
		c-0.073,0.707,0.57,0.699,0.346,1.558c-0.058,0-0.116,0-0.173,0c0.264-0.956-0.768-0.617-0.692-1.385
		c0.759-0.626,1.545-1.225,2.596-1.558c0.249,0.098,2.244,1.553,2.422,0.865c1.658,0.254,3.154,1.816,4.5,0.692
		C-7.987,463.95-7.06,462.693-6.311,463.662z"/>
	<path fill="#E2AE37" d="M-13.234,443.761c0.369-0.382,0.715-0.785,1.039-1.211c3.497-3.115,3.712-5.084,3.842-5.949
		c2.445,2.358,9.513,1.384,3.115,7.16c-0.254,1.832-2.631,14.562-7.55,16.614c-2.355,0.293-7.914-0.307-7.541,1.037
		c-0.473,0.797-1.314,1.225-1.731,2.077c0.142-0.551,0.111-1.274,0.347-1.73c0.47-0.124-0.124,0.815,0.346,0.691
		c0.228-0.471,1.134-1.163,0.52-1.902c0-0.058,0-0.116,0-0.173c-0.051-0.354-0.469-0.341-0.52-0.692
		c0.726-3.429,2.534-5.774,3.98-8.48c-0.073-1.227,0.583-1.724,0.866-2.596c0.853-0.993,1.666-2.025,2.25-3.288
		c-0.008-0.527,0.365-0.674,0.519-1.038C-13.505,444.238-13.484,444.113-13.234,443.761z"/>
	<path fill="#E2AE37" d="M-24.136,469.373c0.36-1.078,2.421-4.245,3.148-4.453c1.024-0.291,0.547,2.824-1.072,4.453
		C-22.358,469.66-23.838,469.66-24.136,469.373z"/>
	<path fill="#E2AE37" d="M-7.696,408.456c0.231,0,0.461,0,0.692,0c2.639-0.168,1.558,1.418-0.173,1.039
		C-7.539,409.338-7.704,408.984-7.696,408.456z"/>
</g>
<g>
	<path fill="#8B6A29" d="M8.399,410.88c0.356,0.22,0.877,0.276,0.865,0.865C9.008,411.425,8.37,411.485,8.399,410.88z"/>
	<path fill="#8B6A29" d="M23.628,424.551c-0.815-0.28-0.705-1.487-0.692-2.596c-0.203,0.028-0.146,0.314-0.173,0.52
		c-2.026-5.941-8.036-7.567-12.979-10.21c0.265-0.702,1.534-0.098,1.557,0.52c0.346,0,0.692,0,1.039,0
		C16.383,415.354,23.406,417.128,23.628,424.551z"/>
	<path fill="#8B6A29" d="M0.092,416.938c-0.93-0.55-2.5,0.606-2.423-0.866c0.604,0.271,1.415-0.011,1.731-0.519
		C-0.216,415.859,0.012,416.324,0.092,416.938z"/>
	<path fill="#8B6A29" d="M0.958,418.321c0.441,0.603,1.464,2.139,1.558,3.115c-0.347,0-0.692,0-1.039,0
		c0.862-0.89-0.129-1.763-0.692-2.25C0.642,418.697,1.028,418.737,0.958,418.321z"/>
	<path fill="#8B6A29" d="M-0.773,418.841c0.14,0.032,0.172,0.173,0.346,0.173c0,0.115,0,0.23,0,0.346
		c-0.417-0.07-0.376,0.315-0.866,0.174C-1.242,419.18-0.824,419.193-0.773,418.841z"/>
	<path fill="#8B6A29" d="M-4.061,419.014c0.265,0.601,0.932,0.798,0.865,1.729c-0.512-0.18-0.508-0.876-1.384-0.691
		C-4.731,419.381-3.825,419.769-4.061,419.014z"/>
	<path fill="#8B6A29" d="M0.438,420.225c0.693,0.188,0.225,1.246-0.519,1.038C-0.078,420.747,0.369,420.674,0.438,420.225z"/>
	<path fill="#8B6A29" d="M-7.522,420.917c0.394,0.239,0.064,1.205,0.173,1.73C-8.045,422.457-7.533,421.441-7.522,420.917z"/>
	<path fill="#8B6A29" d="M-14.272,425.59c-0.647,0.067-0.983-0.697-1.384-0.347c0.465,1.555,2.076,1.962,2.942,3.115
		c-0.678,0.171-1.005-0.383-1.385,0c-0.151,0.671,0.755,0.283,0.519,1.038c-1.075-0.715-3.015-0.538-3.461-2.249
		c-0.489-0.144-0.449,0.243-0.865,0.173c-0.189-0.966-1.734-0.573-1.385-2.077c0.201,0.029,0.308-0.038,0.346-0.173
		c0.892,0.031,0.608,1.237,1.384,1.384c0.141-0.032,0.173-0.173,0.347-0.172c-0.118-0.646-1.297-0.912-0.866-1.559
		c1.429,0.879,2.147,2.468,3.289,3.635c0.723-1.136-1.907-1.736-1.73-3.461c-0.564-0.303-1.504-0.227-1.385-1.211
		C-16.955,424.483-13.718,423.858-14.272,425.59z"/>
	<path fill="#8B6A29" d="M21.897,432.857c0.208-1.304-0.512-1.679-0.692-2.596c0.104-0.646,0.651-0.849,0.692-1.558
		c0.378,0.284,1.101,0.551,1.038-0.346c-0.117-0.345-0.575,0.171-0.692-0.173c-0.167-0.963,1.06-0.14,1.039-0.866
		c0.096,0.934,0.153,3.074-1.384,2.597c-0.202,0.71,1.203,0.695,1.211,0.172C23.462,431.08,22.472,432.218,21.897,432.857z"/>
	<path fill="#8B6A29" d="M-7.177,429.743c0.184-0.646-0.649-0.274-0.519-0.865c0.362,0.377,0.494-0.087,1.039,0
		c0.632,0.646-0.029,1.277,0,2.249c0.462,0.749,2.238,0.186,2.769,0.865c0.728,0.036,0.727-0.657,1.384-0.691
		c-0.417,0.97-1.955,2.067-2.941,1.384c-0.485,0.17,0.251,0.462-0.173,0.692c-0.541,0.08-0.553-0.369-0.519-0.865
		c-0.79,0.46-1.446,0.025-2.423,0.346c0.101-0.925,1.934-1.217,1.039-2.076c-0.365,0.153-0.512,0.527-1.039,0.52
		c-0.596-1.144-2.045,0.395-2.25-1.213c-0.644,0.679-1.5,0.322-2.423,0c0.715-0.438,0.435-1.872,1.385-2.076
		C-10.707,429.006-8.323,428.755-7.177,429.743z"/>
	<path fill="#8B6A29" d="M12.726,428.704c0.126,0.162,0.314,0.263,0.519,0.347c-0.63,2.073-2.75,2.844-5.191,2.25
		C10.289,431.113,11.066,429.469,12.726,428.704z"/>
	<path fill="#8B6A29" d="M-9.946,430.954c0.259,0.202,0.708,0.215,0.866,0.519c0.121,0.641-0.274,0.765-0.866,0.693
		C-9.946,431.763-9.946,431.358-9.946,430.954z"/>
	<path fill="#8B6A29" d="M16.706,431.127c0.341,0.137,0.623,0.604,0.346,0.865c-0.173,0-0.346,0-0.519,0
		C16.478,431.591,16.561,431.328,16.706,431.127z"/>
	<path fill="#8B6A29" d="M-2.677,432.685c-0.157,0.306-0.387,0.536-0.692,0.692c-0.029,0.375,0.614,0.079,0.865,0.174
		c-0.04,0.595-0.515,0.754-1.038,0.865c-0.33-0.419,0.188-0.841-0.172-1.385C-3.17,433.114-3.323,432.5-2.677,432.685z"/>
	<path fill="#8B6A29" d="M-6.138,433.203c0,0.289,0,0.578,0,0.866c-0.306-0.155-0.505-0.417-0.865-0.519
		C-6.781,433.103-6.645,433.007-6.138,433.203z"/>
	<path fill="#8B6A29" d="M-7.869,433.377c0.402,0.06,0.812,0.112,0.692,0.692C-7.617,434.048-7.848,433.817-7.869,433.377z"/>
	<path fill="#8B6A29" d="M-4.753,433.551c0.173,0,0.346,0,0.519,0c-0.069,0.818,0.367,1.138-0.173,1.557
		C-5.102,434.913-4.28,434.098-4.753,433.551z"/>
	<path fill="#8B6A29" d="M23.801,436.146c-1.096,0.115-0.614-1.348-1.558-1.384c0.213-0.249,0.595-0.329,1.039-0.346
		C23.476,434.971,23.755,435.441,23.801,436.146z"/>
	<path fill="#8B6A29" d="M-2.331,434.588c0.174,0.521-0.385,0.308-0.692,0.348c0.042,0.979,0.901,0.112,1.384,0.518
		c-0.296,0.397-0.975,0.41-1.558,0.52c0.185-0.646-0.429-0.493-0.346-1.037C-3.158,434.801-2.867,434.571-2.331,434.588z"/>
	<path fill="#8B6A29" d="M0.611,435.107c-0.635,0.23-1.261,0.47-2.077,0.52C-1.288,434.991,0.246,435.004,0.611,435.107z"/>
	<path fill="#8B6A29" d="M23.628,436.319c0.281,0.295,0.523,0.63,0.52,1.211c-0.871,0.063-1.302-0.313-1.385-1.038
		C23.205,436.195,23.369,436.69,23.628,436.319z"/>
	<path fill="#8B6A29" d="M23.109,438.05c0.491-0.029,0.337,0.585,1.039,0.347c-0.059,0.536,0.4,0.825,0,1.211
		C24,438.889,23.272,438.751,23.109,438.05z"/>
	<path fill="#8B6A29" d="M-13.234,443.934c0-0.058,0-0.115,0-0.173c0.492,1.146-1.354,2.899-1.557,4.499
		C-15.567,446.886-13.74,445.172-13.234,443.934z"/>
	<path fill="#8B6A29" d="M-2.331,447.222c-0.154,0.134-0.391,0.187-0.692,0.173c-0.25-0.265,0.15-1.166-0.692-1.211
		c0.158-0.938,0.863-1.328,1.73-1.558c-0.258,0.491-0.717,0.782-1.038,1.211C-2.913,446.42-2.18,446.379-2.331,447.222z"/>
	<path fill="#8B6A29" d="M-1.292,444.799c0.408-0.003,0.509,0.298,1.038,0.173c0.148,0.553-0.272,0.536-0.346,0.865
		C-0.811,445.471-1.251,445.335-1.292,444.799z"/>
	<path fill="#8B6A29" d="M-18.771,453.799c0.39,0.137,0.571,1.159-0.173,1.037C-19.069,454.307-18.767,454.205-18.771,453.799z"/>
	<path fill="#8B6A29" d="M-19.291,455.01c0.638-0.063,0.723,0.431,0.865,0.864c-0.417,0.072-0.376-0.315-0.865-0.173
		C-19.291,455.471-19.291,455.239-19.291,455.01z"/>
	<path fill="#8B6A29" d="M-18.252,455.701c0.688-0.336,1.642,0.547,1.904,1.212c-0.625-0.539-0.557,0.724-1.384,0.52
		C-17.592,456.768-17.599,455.992-18.252,455.701z"/>
	<path fill="#8B6A29" d="M-19.463,456.739c0.496-0.033,0.945-0.021,0.865,0.52C-19.094,457.293-19.542,457.28-19.463,456.739z"/>
	<path fill="#8B6A29" d="M-15.31,456.739c0.316,0.498,0.247,2.088,0,2.596c-0.67,0.151-0.616-0.422-1.039-0.519
		C-15.408,458.72-15.51,457.579-15.31,456.739z"/>
	<path fill="#8B6A29" d="M1.823,457.259c0.669-0.15,0.616,0.423,1.038,0.52C2.617,458.177,1.734,457.766,1.823,457.259z"/>
	<path fill="#8B6A29" d="M17.052,461.239c-0.724,0.146-0.686-0.468-1.038-0.691C16.384,460.077,17.046,460.773,17.052,461.239z"/>
	<path fill="#8B6A29" d="M3.727,461.759c0.279-0.702,0.934-1.027,1.73-1.211c-0.008,0.972-0.357,1.604-0.692,2.249
		C4.222,462.648,4.38,461.797,3.727,461.759z"/>
	<path fill="#8B6A29" d="M10.649,472.142c-0.552,0.148-0.657-0.15-0.865-0.345c-0.649,0.136-0.011,0.604-0.347,0.865
		c-3.441,0.268-3.848-2.498-5.192-4.328c-0.262,0.627-0.68-0.09-0.692-0.691c0.545,0.267,1.063,0.06,1.212-0.519
		c-0.146-0.626-0.892,0.052-1.038,0c-0.421-0.387-0.485-1.131-0.692-1.731c0.431-0.318,1.615,0.115,1.211-1.038
		c0.353,0.051,0.34,0.469,0.693,0.52c0.441-0.193-0.07-1.339,0.346-1.558c1.24,0.144,0.971,1.798,1.903,2.25
		C7.279,468.71,11.139,468.99,10.649,472.142z M7.015,469.719c0.461,0,0.923,0,1.384,0c-0.69-0.867-0.855-2.259-2.077-2.595
		C6.465,468.076,6.896,468.741,7.015,469.719z"/>
	<path fill="#8B6A29" d="M6.495,408.284c0.592-0.074,0.521,0.519,0.865,0.691C7.296,409.195,6.44,408.757,6.495,408.284z"/>
	<path fill="#8B6A29" d="M2.515,425.243c0.707-0.169,0.699,0.019,1.557,0c1.582,0.209,2.674,1.825,2.942,2.769
		c-0.407-0.055-0.65-0.272-1.212-0.173c-0.395,0.693-0.629,1.7-0.346,2.597c0.775,0.147,1.487,0.359,1.903,0.865
		c-2.176-0.132-4.417-0.198-6.057-0.865c-0.261-1.473,0.196-1.641,0.52-2.769c-0.372-1.007-2.576-1.656-3.635-0.866
		c0.27,0.386-0.63,1.831-0.346,2.25c0.926,0.003,1.059-0.786,2.077-0.692c0.324,0.33,0.019,0.436,0,0.865
		c0.443,0.188,0.825-0.525,1.039,0c-0.167,0.468-0.485,0.784-0.865,1.039c-0.241-0.221-0.076-0.849-0.519-0.866
		c-0.427,0.33-0.94,0.095-1.904,0.52c-0.729-0.078-0.641-0.975-1.211-1.212c-0.995-0.135-1.742,0.503-1.904-0.518
		c0.544,0.266,1.063,0.058,1.211-0.52c-0.559-0.754-1.078-0.268-1.73-0.174c-0.039,0.347,0.772,0.701,0.173,1.038
		c-0.401-0.521-0.456-1.391-1.212-1.558c-0.341,0.121,0.043,0.966-0.346,1.038c-1.72-1.504-6.515,0.617-7.095-2.249
		c0.757,0.122,1.179-0.091,1.384-0.52c0.362,0.215,0.65,0.503,0.865,0.864c0.596-0.326,1.146-0.699,2.25-0.519
		c0.51-0.933,1.59-1.294,1.904-2.423c0.307,0.155,0.221,0.702,0.865,0.52c0.04-0.307-0.174-0.866,0.346-0.692
		c0.076,0.592,0.46,1.491,0.174,1.904c0.438-0.255,0.611-0.773,0.865-1.212c-0.092-0.658-0.506-0.994-0.692-1.558
		c0.563-0.285,0.933,0.311,1.038-0.346c-0.189,0.118-0.649-0.491-0.173-0.865c1.482,0.595,1.412,2.74,2.596,3.634
		c-0.18,0.397-0.358,0.796-0.692,1.038c0.463,0.467,0.658-0.221,1.038-0.346c0.021,0.44,0.252,0.671,0.692,0.692
		C-0.554,425.067,1.364,426.542,2.515,425.243z M-4.581,423.858c0-0.462,0-0.923,0-1.384c-0.173,0-0.346,0-0.519,0
		C-5.046,423.056-5.331,423.975-4.581,423.858z M-8.215,426.974c0.383-0.509,0.054-1.463-0.692-1.384
		C-8.746,426.12-8.368,426.436-8.215,426.974z M-10.811,426.108c-0.175,0.521,0.386,0.307,0.692,0.346c0-0.172,0-0.346,0-0.519
		C-10.419,425.923-10.657,425.975-10.811,426.108z M4.245,428.012c0.063-0.354,0.578-1.133,0.173-1.384
		C4.469,427.096,3.695,427.617,4.245,428.012z M2.688,427.32c-0.037-0.194-0.192-0.27-0.346-0.347
		c-0.056,0.402,0.027,0.664,0.173,0.865c0.407,0.004,0.509-0.298,1.038-0.173c0-0.289,0-0.577,0-0.865
		C3.01,426.719,3.096,427.267,2.688,427.32z M5.111,428.187c0.126-0.293,0.917-0.797,0.346-1.213
		C5.137,427.071,4.593,427.823,5.111,428.187z"/>
	<path fill="#8B6A29" d="M-12.022,442.03c0.527-0.142,0.747-1.204,1.384-0.693c0.191-0.996,1.071-2.113,1.731-2.076
		c0.582-1.502-0.167-3.601,0.346-5.364c0.942,0.78,0.861,3.34,2.596,2.769c0.408,0.284,0.194,1.19,0.519,1.558
		c0.258-0.571,0.204,0.579,0.692,0.347c0.64-0.688,1.779-1.795,2.769-1.558c-0.681,0.356-0.995,1.081-1.384,1.729
		c1.075-0.482,1.378-1.736,2.769-1.904c-0.357,0.625-1.028,0.935-1.385,1.56c1.024-0.667,2.13,0.457,3.115-0.521
		c0,0.231,0,0.463,0,0.693c-0.939,0.675-3.178,0.053-3.635,1.211c0.844,0.08,2.028-0.182,2.597,0.173
		c0.31-0.382,0.469-0.915,1.038-1.037c0,0.172,0,0.345,0,0.519c-0.227,0.465-0.763,0.62-1.038,1.038
		c0.028,0.203,0.315,0.146,0.519,0.173c-0.09,0.43-0.422,0.617-0.692,0.865c-0.572-0.259,0.359-0.423,0.173-0.865
		c-2.411,0.59-4.47,1.53-5.192,3.808c0.097,0.249,0.27,0.422,0.519,0.52c0.8-1.334,1.704-2.565,3.288-3.115
		c-0.652,1.771-2.901,1.943-3.288,3.979c0.993,1.372,1.294,3.437,2.076,5.019c0.668-1.732-0.602-3.984,1.558-4.845
		c0.521-0.175,0.307,0.386,0.346,0.691c0.569-0.181,0.526-0.973,0.866-1.384c0.585,0.296,1.31,0.161,1.211-0.692
		c0.673,2.938,1.95,5.358,2.25,9.345c-1.497-0.467-1.057-2.074-1.558-3.287c-0.481,0.381,0.024,1.232,0,1.73
		c-0.201-0.029-0.308,0.037-0.346,0.173c-1.837-1.062,0.177-3.813-0.346-5.885c-1.17,0.85-0.383,3.655-1.039,5.02
		c-1.729,0.009-0.045-1.874-0.865-2.423c-0.635,0.252,0.133,0.903-0.346,1.385c-1.603-0.884,0.199-2.279,0-3.809
		c-1.201,1.137-0.695,2.932-1.039,4.5c0.076,0.257,0.222-0.068,0.52,0c0.233,2.286,0.02,4.979,0.346,8.134
		c-0.368,0.267-0.883,0.386-1.038,0.866c0.366,3.344,5.625-0.274,6.403,2.595c-0.119,0.805-0.789,1.057-1.039,1.73
		c-0.537-0.45-1.288-0.005-1.73,0.174c-0.216-0.362-0.504-0.65-0.866-0.865c-2.24,1.31-3.631-1.771-5.884-0.174
		c-0.04-0.74-0.516,0.386-1.039-0.173c-0.058,0-0.116,0-0.173,0c-0.748-0.969-1.676,0.288-2.077-0.865
		c-1.345,1.125-2.842-0.438-4.5-0.692c-0.179,0.688-1.256,1.201-2.076,0.692c-0.125-0.529,0.298-0.509,0.173-1.038
		c-0.097-0.249-0.27-0.422-0.52-0.52c-1.051,0.333-1.836,0.932-2.596,1.558c-0.076,0.769,0.957,0.429,0.692,1.385
		c-0.069,0.508-0.568,0.586-0.692,1.038c-0.606,0.374-1.007,0.954-1.384,1.558c-0.504,1.284-1.426,2.15-2.769,2.596
		c-0.692,0-1.385,0-2.077,0c-2.147-0.782,0.35-2.964,0.865-3.807c0.327-0.25,0.767-0.387,0.692-1.038
		c0.003-0.517,0.45-0.589,0.519-1.039c0.417-0.852,1.258-1.28,1.731-2.076c-0.374-1.345,0.702-2.405,0.346-3.635
		c1.989,0.498,2.663,2.197,5.019,1.904c0.635-1.845,1.05-3.911,1.384-6.058c0.871,0.394,0.648-0.353,0.173-0.692
		c0.943-1.768,2.23-3.193,3.461-4.673c-1.323-0.102-0.022-2.733-0.865-3.634c-0.416,0.565,0.114,2.075-0.692,2.249
		c-0.053,0.541,0.5-0.439,0.52,0.175c0.355,0.523-0.502,1.033-0.692,1.557c-0.401-1.331,0.052-2.189-0.346-3.461
		c-0.019,1.703-0.882,3.973,0,5.019c-1.632,1.252-2.639,3.13-2.769,5.884c-0.629,0.053-0.231-0.922-0.52-1.212
		c-0.289,0-0.577,0-0.865,0c0.006-0.755-0.478-1.021-0.519-1.73c-0.621-0.143-0.837,0.391-1.211,0
		c0.048-0.989,0.586-1.49,1.038-2.076c0.579,0.479-0.331,0.927-0.173,1.557c0.659-0.84,1.308-1.69,2.077-2.422
		c-0.533-0.465-0.776,0.832-1.558,0.691c0.634-1.153,1.563-2.013,2.595-2.769c0.057,0.343,0.536,1.236-0.346,1.039
		c0.741,0.702,0.334,1.412,0.173,2.423c1.115-0.963,1.085-3.068,1.384-4.847c-0.416,0.336-0.528,0.972-1.212,1.039
		c0.49-1.873,1.518-3.546,1.73-5.191C-12.185,442.328-11.973,442.309-12.022,442.03z M-7.003,438.569
		c-0.507-0.531-0.83-1.248-1.384-1.732C-8.536,437.957-7.634,438.787-7.003,438.569z M-6.311,439.435c0-0.231,0-0.461,0-0.693
		c-0.173,0-0.346,0-0.52,0C-6.879,439.195-6.767,439.486-6.311,439.435z M-7.177,443.068c-0.423-0.557-0.885-1.077-1.038-1.903
		c-0.552-0.148-0.535,0.272-0.865,0.346c-0.011-0.507-0.396-0.643-0.692-0.865c-0.084,0.205-0.185,0.393-0.346,0.52
		c0.635,0.768,0.759,1.439,1.211,2.076c-0.506,0.012-0.976,0.063-0.865,0.692c0.205,0.269,0.852-0.462,1.211,0.173
		c0,0.289,0,0.577,0,0.865c-0.831-0.139-1.064,0.32-1.385,0.693c1.103,0.236,1.083-0.648,2.077-0.52
		c0.009-1.338-1.256-2.317-0.865-3.461c0.7,0.792,1.912,2.747,1.038,3.98c-0.036-0.195-0.192-0.27-0.346-0.347
		c0.025,1.195-1.054,1.26-1.73,0.865c0.127,0.82-0.195,1.189-0.174,1.903c1.294-0.568,2.135-2.063,3.461-2.076
		c0.076-0.595-0.068-0.971-0.173-1.385c1.744-1.671-0.908-4.204-1.904-5.365C-8.764,441.081-6.622,441.473-7.177,443.068z
		 M-6.311,440.473c0.632,0.003,0.777,0.492,1.211,0.692c0.537-0.651,2.554-0.63,2.077-1.73c-0.594,0.155-1.119,0.382-1.558,0.691
		C-4.578,438.825-6.623,439.108-6.311,440.473z M-5.792,441.856c0.047-0.739-0.503-0.882-0.866-1.211
		C-6.399,441.079-6.565,441.938-5.792,441.856z M-3.023,440.818c-0.513,0.122-0.753,0.516-1.558,0.347
		c-0.058,0.576-0.501,0.768-0.346,1.557C-4.229,442.232-2.905,441.561-3.023,440.818z M-11.33,443.761c-0.057,0-0.115,0-0.173,0
		c-0.177,0.581,0.539,0.27,0.865,0.346c0.194-0.937,0.242-1.826-0.346-2.596c-0.118,0.69-0.377,1.238-0.346,2.076
		C-11.33,443.646-11.33,443.703-11.33,443.761z M-9.599,444.28c-0.231,0-0.461,0-0.692,0C-10.566,445.084-9.397,444.88-9.599,444.28
		z M0.438,447.914c-0.02-0.441-0.032-0.891-0.519-0.864C-0.061,447.489-0.048,447.939,0.438,447.914z M-5.1,450.855
		c0.116-0.646,0.533-1.094,0-1.557C-5.04,449.775-5.597,450.515-5.1,450.855z M-3.196,455.355c-0.001-0.926-0.635-2.129-0.692-2.423
		C-4.102,453.935-3.802,454.745-3.196,455.355z M-9.08,456.048c-0.105-0.414,0.217-1.256-0.173-1.385
		C-9.358,455.045-9.688,455.952-9.08,456.048z M-13.061,460.2c-0.022-1.149,1.176-2.42,0.347-3.287
		C-12.41,458.317-13.52,459.218-13.061,460.2z M-21.367,466.085c0.657,0.349,0.686-0.787,0.347-0.865
		C-21.095,465.55-21.394,465.655-21.367,466.085z M-22.06,466.777c-0.007,0.239,0.082,0.38,0.173,0.52
		c0.456,0.052,0.568-0.24,0.519-0.692C-21.668,466.591-21.905,466.644-22.06,466.777z"/>
	<path fill="#8B6A29" d="M18.609,450.684c-0.701,1.086-1.727,1.848-2.422,2.941C16.308,452.648,17.659,451.406,18.609,450.684z"/>
	<path fill="#8B6A29" d="M23.109,444.452c1.1,0.449-0.18,0.914,0,1.904c-1.385,0.761-2.909,2.853-4.153,4.327
		C19.559,448.517,22.266,446.957,23.109,444.452z"/>
	<path fill="#8B6A29" d="M0.958,442.55c-0.745-0.123-0.779,1.037-1.384,0.519c0.284-0.927,1.555-0.866,1.384-2.25
		c0.183,0.445,0.471,2.646-0.346,3.115C0.193,443.465,1.146,443.317,0.958,442.55z"/>
	<path fill="#8B6A29" d="M-15.483,447.567c0.55,0.902-0.908,1.28-0.866,2.25C-16.958,449.407-15.841,448.121-15.483,447.567z"/>
	<path fill="#8B6A29" d="M5.63,459.163c0.582,0.085,0.823,1.127,0.519,1.557c0.711,0.477,1.372,2.507,0.346,2.77
		C6.526,461.748,5.443,460.521,5.63,459.163z"/>
	<path fill="#8B6A29" d="M15.321,459.509c0.44,0.021,0.671,0.252,0.692,0.691c-0.294,0.064-0.327-0.134-0.346-0.346
		c-0.28-0.048-0.299,0.164-0.519,0.174C14.559,459.844,15.629,459.975,15.321,459.509z"/>
	<path fill="#8B6A29" d="M3.553,432.857c0.933,0.923-0.902,0.706-0.519,2.078c-1.414-0.26-1.793-1.553-1.904-3.115
		c1.276,0.166,2.668,0.216,3.634,0.691C4.787,433.293,3.884,433.338,3.553,432.857z"/>
</g>
<g>
	<path fill="#EEDC82" d="M-4.061,421.437c0.619,0.015,0.189,1.079,1.038,0.865c0.023,0.426,0.026,0.834-0.173,1.037
		C-3.788,423.009-3.808,422.105-4.061,421.437z"/>
	<path fill="#EEDC82" d="M-0.254,426.974c0.471,0.279,1.389,0.11,1.731,0.52c-0.265,0.427-0.407,0.977-1.211,0.865
		c0.376-0.144,0.385-0.653,0.865-0.691c-0.788-0.665-1.179,0.544-2.077,0.346C-0.707,427.676-0.324,427.48-0.254,426.974z"/>
	<path fill="#EEDC82" d="M-7.177,428.704c-1.161,0.09-3.434,0.196-3.979-0.865C-9.519,427.411-7.81,427.102-7.177,428.704z
		 M-10.464,428.187c0.854,0.136,1.438,0.234,1.903-0.348C-8.808,427.762-9.91,428.025-10.464,428.187z"/>
	<path fill="#EEDC82" d="M-7.003,427.667c0.527-0.402,0.911,0.813,1.039,1.384C-6.788,429.065-6.71,428.181-7.003,427.667z"/>
	<path fill="#EEDC82" d="M1.303,433.203c-0.713,0.5-1.873,0.551-2.942,0.693c0.825-0.559,1.338-1.432,2.596-1.558
		C0.931,432.769,1.047,433.058,1.303,433.203z"/>
	<path fill="#EEDC82" d="M1.823,434.762c-1.529-0.144-2.472,0.297-3.808,0.346C-0.99,434.934,1.028,433.457,1.823,434.762z"/>
	<path fill="#EEDC82" d="M-5.273,434.936c0.587,0.346,0.165,1.246,0.173,2.249c-0.49-0.49-0.464-1.497-1.039-1.904
		C-5.709,435.307-5.298,435.313-5.273,434.936z"/>
	<path fill="#EEDC82" d="M0.611,435.973c-0.26,0.455-1.629,0.452-1.904,0.347C-1.026,435.448-0.27,436.113,0.611,435.973z"/>
	<path fill="#EEDC82" d="M-4.061,437.012c-0.082-0.544,0.465-0.457,0.519-0.866c0.941,0.218,0.913-0.008,1.73-0.173
		C-2.248,436.633-3.031,436.945-4.061,437.012z"/>
	<path fill="#EEDC82" d="M-0.773,439.607c0.013-0.563,0.784-0.369,1.211-0.52C0.346,439.572-0.396,439.408-0.773,439.607z"/>
	<path fill="#EEDC82" d="M-4.753,442.202c0.167-0.409,0.303-0.85,1.039-0.691C-4.147,441.655-4.08,442.301-4.753,442.202z"/>
	<path fill="#EEDC82" d="M-2.331,441.856c-0.559,0.595-1.046,1.262-1.903,1.558c0.325,0.602-0.198,0.657-0.346,1.212
		C-5.366,443.482-3.383,442.298-2.331,441.856z"/>
	<path fill="#EEDC82" d="M-11.33,443.587c0.376,0.03,0.079-0.613,0.174-0.865c0.888-0.11,0.502,1.841-0.174,1.039
		C-11.33,443.703-11.33,443.646-11.33,443.587z"/>
	<path fill="#EEDC82" d="M1.303,443.587c0.234,0.17,0.346,0.462,0.52,0.693c-0.489-0.143-0.448,0.243-0.865,0.172
		C0.931,444.022,1.229,443.917,1.303,443.587z"/>
	<path fill="#EEDC82" d="M-1.812,443.761c-0.661,0.895-1.998,1.118-2.249,2.423c-0.188-0.044-0.118-0.344-0.346-0.347
		C-3.798,444.89-3.233,443.896-1.812,443.761z"/>
	<path fill="#EEDC82" d="M-0.773,451.548c0.203,0.259,0.719,0.205,0.692,0.692C-0.491,452.652-0.932,452.213-0.773,451.548z"/>
	<path fill="#EEDC82" d="M-14.272,453.971c0.758,0.018,0.021,1.045,0,1.385C-14.718,455.117-14.31,454.295-14.272,453.971z"/>
	<path fill="#EEDC82" d="M-20.848,460.548c0.615,0.739-0.292,1.432-0.52,1.902c-0.47,0.124,0.124-0.815-0.346-0.691
		C-21.469,461.312-20.64,461.447-20.848,460.548z"/>
	<path fill="#EEDC82" d="M0.438,461.412c-0.295,0.52-0.63,0.193-1.211,0.173C-0.632,461.221,0.139,461.111,0.438,461.412z"/>
	<path fill="#EEDC82" d="M0.092,416.071c-0.495-1.381-1.857-0.988-2.769,0c-0.045,0.507,0.391,0.531,0.346,1.038
		c-1.619,0.4-1.946,2.092-2.769,3.289c-1.166-1.086-0.604-3.896-1.039-5.712c-0.401-0.055-0.664,0.028-0.865,0.174
		c-0.445,2.439-0.542,5.227-0.866,7.787c-1.13,0.543-1.145,2.2-2.249,2.769c-3.165-0.064-4.913-1.549-7.788-1.903
		c0.063,1.097-1.433,1.047-1.558,2.077c-0.202,1.663,2.943,3.089,5.538,4.326c0.324,0.154,0.551,0.533,0.865,0.692
		c0.226,0.113,0.647-0.126,0.865,0c0.95,0.548,1.449,1.498,2.077,1.73c0.202,0.075,0.843-0.125,1.038,0
		c0.87,0.555,1.752,2.326,2.25,2.769c-1.394,0.301-1.286-2.365-2.077-1.557c0.143-0.49-0.244-0.448-0.173-0.865
		c-1.191-0.009-2.188-1.121-3.115-1.904c-2.206-0.248-7.783-3.166-7.441-5.365c0.162-1.036,1.645-0.781,1.384-2.077
		c3.107,0.182,4.941,1.636,7.961,1.904c2.154-2.055,3.426-6.038,2.942-10.037c-0.237-1.957-1.58-2.816-1.038-4.846
		c0.134-0.502,0.702-0.884,0.346-2.076c1.144-0.659,1.806-0.043,2.769-0.52c2.675,3.073-2.39,7.691,0,12.113
		c1.137-0.651,1.058-2.519,2.596-2.769c0.125-0.529-0.177-0.631-0.173-1.038c0.381-0.6,0.974-0.988,1.73-1.212
		C-0.414,414.962-0.01,415.366,0.092,416.071z M-7.177,409.495c0.2-0.205,0.196-0.611,0.173-1.039c-0.231,0-0.461,0-0.692,0
		C-7.704,408.984-7.539,409.338-7.177,409.495z M-6.657,409.495c0.5-0.076,0.789-0.364,0.866-0.866
		C-6.292,408.706-6.581,408.995-6.657,409.495z"/>
	<path fill="#EEDC82" d="M-13.752,444.28c0.534-0.794,1.144-1.51,1.73-2.25c0.049,0.278-0.163,0.298-0.173,0.52
		c-0.324,0.426-0.67,0.829-1.039,1.211c0,0.058,0,0.115,0,0.173C-13.461,443.995-13.505,444.238-13.752,444.28z"/>
	<path fill="#EEDC82" d="M-16.521,448.606c0.748-1.098,1.298-2.394,2.249-3.288C-14.855,446.581-15.668,447.613-16.521,448.606z"/>
	<path fill="#EEDC82" d="M-20.848,460.375c-0.353-0.052-0.34-0.469-0.692-0.521c0.663-3.604,2.413-6.124,4.153-8.653
		c-1.447,2.707-3.254,5.053-3.98,8.481C-21.316,460.034-20.899,460.021-20.848,460.375z"/>
	<path fill="#EEDC82" d="M-19.291,466.777c0.377-0.604,0.778-1.184,1.385-1.558C-18.197,465.909-18.733,466.354-19.291,466.777z"/>
	<path fill="#EEDC82" d="M-10.464,463.316c0.816-0.255,1.888,0.034,2.423,0.346C-8.901,463.616-9.309,463.386-10.464,463.316z"/>
	<path fill="#EEDC82" d="M-7.869,463.662c0.558-0.281,0.938-0.082,1.558,0c0.058,0,0.115,0,0.173,0
		c1.608,0.557,3.824-0.729,5.019,1.038c0.607-0.143,1.042-0.458,1.731-0.519c0.429,0.967,2.358,0.529,2.249,1.211
		c-0.186-0.7-0.823,0.054-1.557-0.173c-0.057-0.404-0.177-0.746-0.519-0.865c-0.854-0.047-1.11,0.505-1.904,0.519
		c-1.688-1.869-4.41-0.448-6.75-1.038C-7.869,463.777-7.869,463.721-7.869,463.662z"/>
	<path fill="#EEDC82" d="M2.86,465.739c0.141,0.502,0.836,1.346,0.347,1.903C3.394,466.706,2.737,466.612,2.86,465.739z"/>
	<path fill="#EEDC82" d="M3.207,467.988c0.557,1.116,1.76,1.586,2.25,2.77C4.784,469.757,3.62,469.249,3.207,467.988z"/>
	<path fill="#EEDC82" d="M8.572,472.834c4.444,0.04,1.27-3.766,0-4.846C10.302,468.801,13.125,473.834,8.572,472.834z"/>
	<path fill="#EEDC82" d="M8.572,467.815c-1.27-0.518-1.059-2.518-1.904-3.461c0.987-1.014,0.58-2.59,0-3.807
		c0.716,0.827,1.307,2.885,0.173,3.634C7.583,465.229,7.549,467.051,8.572,467.815z"/>
	<path fill="#EEDC82" d="M1.996,445.49c1.093,2.231,2.055,5.116,2.423,8.135c0.087,0.715-0.172,1.511,0,2.249
		c0.401,1.721,2.361,2.766,2.25,4.501c-0.532-1.718-1.666-2.834-2.596-4.155C4.148,451.876,3.147,448.608,1.996,445.49z"/>
	<path fill="#EEDC82" d="M22.417,445.146c1.465-3.394,0.175-8.106-0.865-11.076c-5.394-0.503-10.719-1.561-16.267-1.385
		c-1.415,0.835-1.617,2.883-3.634,3.115c-0.77,1.24-0.426,3.215-0.173,4.673c-0.318-0.366-0.596-0.503-0.346-1.038
		c0-0.174,0-0.347,0-0.52c0-0.116,0-0.231,0-0.346c0-0.231,0-0.462,0-0.693c-1.065-0.616,0.926-1.493-0.173-2.076
		c0.222-0.471,0.886-0.499,1.038-1.039c0.487-0.008,0.474,0.754,0.865,0.347c0.817-1.087,1.834-1.974,2.597-3.115
		c-2.635-0.145-4.857-1.001-6.577,0.52c-0.672-0.044,0.471-0.94,0.52-1.385c-1.478-0.121-3.152-0.183-4.846-1.039
		c0.156-0.304,0.637-0.284,0.692-0.691c1.58,1.137,3.087,0.621,4.672,1.211c0.544,0.082,0.707-0.216,0.865-0.52
		c0.25,0.212,0.263,0.661,0.519,0.866c3.853,0.236,7.477,1.438,10.903,0.692c0.588,0.623,2.024,0.398,2.769,0.865
		c0.219-0.681-0.409-0.515-0.866-0.52c-0.05-1.16,1.483-0.381,1.904-0.692c-0.29-0.921-1.853-0.571-2.596-1.038
		c-0.023-0.427-0.026-0.834,0.173-1.039c1.137,0.421,2.609,0.506,3.807,0.865c-0.194,0.249-0.187,0.423,0.173,0.52
		c-0.23,0.676-0.773,0.035-1.211,0.347c-0.206,0.684,0.072,1.208-0.865,1.384c0.825,0.58,2.626,0.316,3.461-0.172
		c-0.506-2.899-3.505-3.304-6.576-3.635c-1.026,0.646-1.676,1.669-2.942,2.076c-0.664,0.031-0.063-0.142-0.173-0.52
		c-0.942-0.077-1.881,0.181-1.73,0.692c-0.479,0.029-0.594-0.266-0.346-0.519c-0.546-0.084-0.611,0.312-1.211,0.174
		c-0.074-0.33-0.373-0.436-0.346-0.865c-0.052-0.457,0.239-0.569,0.692-0.52c-0.154-0.309-0.483-0.44-0.346-1.039
		c1.88,0.101,2.278,1.326,3.98,1.904c0.08-0.946,1.711-1.098,2.25-2.077c-1.741,0.449-3.398,0.323-5.019-0.173
		c-0.704-1.085-1.419-2.156-2.769-2.596c1.117-0.077,2.25,1.326,2.769,2.423c1.655,0.317,3.395,0.82,4.846,0
		c0.641-0.121,0.432,0.606,0.692,0.865c2.458,0.252,4.545,0.876,6.403,1.729c0.9-0.31,1.578-0.844,2.423-1.21
		c1.384-4.068,0.536-9.077-2.25-10.903c3.504,1.872,4.021,8.592,1.732,12.113c0.551,0.892,0.048,2.836,1.21,3.115
		c0.12-1.248,1.344-1.585,1.558-2.768c0.142-0.789-0.745-2.024,0-2.769c0.125,0.528-0.177,0.63-0.173,1.037
		c0.079,0.901,1.825,0.138,1.904,1.039c-0.482,0.729-1.142,1.28-0.866,2.769c0.264,0.544,1.237,0.379,1.211,1.212
		c-0.168,0.005-0.134,0.212-0.172,0.346c-0.417,0.621-2.102-0.743-2.077,0.52c-0.257-0.492-0.906-0.594-1.73-0.52
		C22.589,437.159,24.338,442.104,22.417,445.146z M23.455,432.166c0.383-0.249-0.218-0.424,0.173-0.52
		c0.02,0.424,0.572,0.037,0.52-0.174c-0.231,0-0.461,0-0.692,0C23.404,431.579,23.024,432.14,23.455,432.166z M23.628,432.685
		c0.43,0.409,1.085,0.069,0.865-0.692C23.929,431.947,23.661,432.198,23.628,432.685z"/>
	<path fill="#EEDC82" d="M18.263,450.51c0.91-0.936,1.502-2.189,2.596-2.942C19.918,448.473,19.336,449.737,18.263,450.51z"/>
	<path fill="#EEDC82" d="M18.09,450.51c-1.402,2.434-4.898,4.131-3.634,8.134c0.077,0.77-0.469,0.916-0.692,1.385
		c0.956,0.773,2.173,1.287,3.634,1.557c-0.609-1.582-1.78-2.604-2.942-3.634c0.795-0.89,0.488-2.037,0.865-2.941
		c1.586-3.803,7.369-5.766,8.826-10.038c0.147-0.551-0.151-0.656-0.346-0.865c0.914-0.308,0.913-2.688,0.865-4.499
		c0.233,2.407,0.253,4.34-0.519,6.058c-1.733,3.853-8.115,6.422-8.826,10.036c-0.637,3.234,1.443,3.688,2.25,5.884
		c-1.555,0.491-2.759-0.798-3.98-1.21c-0.212-0.789,0.475-0.681,0.346-1.386C13.237,454.657,16.219,452.816,18.09,450.51z"/>
	<path fill="#EEDC82" d="M23.801,423.339c0.6,0.864,0.435,3.252,0,4.154C23.956,426.243,24.128,424.553,23.801,423.339z"/>
	<path fill="#EEDC82" d="M19.301,416.418c1.317,0.933,2.5,2,3.289,3.46C21.636,418.582,20.478,417.491,19.301,416.418z"/>
	<path fill="#EEDC82" d="M12.206,412.438c2.483,1.15,4.972,2.296,6.922,3.98C17.008,414.903,14.489,413.788,12.206,412.438z"/>
	<path fill="#EEDC82" d="M13.072,414.341c-2.821-1.044-4.942-2.788-7.269-4.327c0.211-0.77,0.175-1.784,0.692-2.249
		c1.805,1.558,2.801,3.821,5.538,4.673c-2.668-0.621-3.913-2.664-5.365-4.5c-0.65,0.215-0.139,1.593-0.692,1.903
		C8.19,411.492,10.511,413.036,13.072,414.341z"/>
	<path fill="#EEDC82" d="M13.244,414.341c2.18,0.992,4.415,1.931,5.884,3.634C17.474,416.457,15.173,415.585,13.244,414.341z"/>
	<path fill="#EEDC82" d="M0.092,416.244c0.438,0.14,0.441,0.713,0.692,1.038c0.408-0.053,0.322-0.602,0.866-0.519
		c1.981,0.497,3.094,3.761,1.21,5.191c0.226,1.438-0.824,1.598-0.518,3.115c0.522-0.233,1.381-0.233,1.903,0
		c0.032,0.146-0.067,0.163-0.173,0.173c-0.858,0.019-0.85-0.169-1.557,0c-1.5,0.547-2.826,0.152-4.5,0
		c-0.026-0.431,0.272-0.535,0.346-0.865c0.755-0.12,0.77,0.5,1.384,0.52c0.646,0.185,0.274-0.648,0.866-0.52
		c-0.012-0.508-0.396-0.643-0.692-0.865c-0.494,0.233,0.461,0.442,0.346,0.865c-0.747,0.112-0.97-0.299-1.385-0.52
		c0.098-0.819,0.376-1.721-0.173-2.249c0.743-0.409,0.805,0.347,1.73,0c-0.167,1.032,0.559,1.172,1.212,1.385
		c0.199-0.057,0.596-0.756,0.173-0.866c1.206,0.035,1.002-1.606,1.73-1.557c0.102-2.254-1.028-2.673-2.076-3.462
		c-0.383,0.136,0.034,1.072-0.692,0.865C0.608,417.343,0.355,416.789,0.092,416.244z M1.65,424.897
		c0.456,0.052,0.568-0.24,0.519-0.692c-0.173,0-0.346,0-0.519,0C1.665,424.677,1.361,424.554,1.65,424.897z"/>
	<path fill="#EEDC82" d="M-22.579,464.527c0.075,0.651-0.366,0.789-0.692,1.039C-23.164,465.095-22.927,464.756-22.579,464.527z"/>
	<path fill="#EEDC82" d="M-0.773,442.03c-0.488,0.262-0.211,1.288-0.866,1.384C-1.259,442.772-1.582,442.358-0.773,442.03z"/>
	<path fill="#EEDC82" d="M-0.254,443.414c0.162,0.185,0.639,0.055,0.52,0.52c-0.246,0.015-0.49,0.029-0.52-0.173
		c-0.176,0.111-0.179,0.398-0.519,0.346C-0.925,443.551-0.203,443.869-0.254,443.414z"/>
	<path fill="#EEDC82" d="M-0.254,420.571c0.093-0.981,0.206-1.343-0.172-2.077c-0.618,0.189-1.021,0.593-1.212,1.211
		c-0.946-0.171-0.942,0.124-1.384,0c0.166-1.502,2.548-1.533,3.634-1.557C0.659,419.291,0.548,420.276-0.254,420.571z"/>
</g>
</svg>
